<?xml version="1.0" encoding="utf-8" standalone="no"?>
<!DOCTYPE svg PUBLIC "-//W3C//DTD SVG 1.1//EN"
  "http://www.w3.org/Graphics/SVG/1.1/DTD/svg11.dtd">
<svg xmlns:xlink="http://www.w3.org/1999/xlink" width="250.554688pt" height="221.07625pt" viewBox="0 0 250.554688 221.07625" xmlns="http://www.w3.org/2000/svg" version="1.1">
 <metadata>
  <rdf:RDF xmlns:dc="http://purl.org/dc/elements/1.1/" xmlns:cc="http://creativecommons.org/ns#" xmlns:rdf="http://www.w3.org/1999/02/22-rdf-syntax-ns#">
   <cc:Work>
    <dc:type rdf:resource="http://purl.org/dc/dcmitype/StillImage"/>
    <dc:date>2024-01-26T15:55:10.286345</dc:date>
    <dc:format>image/svg+xml</dc:format>
    <dc:creator>
     <cc:Agent>
      <dc:title>Matplotlib v3.7.3, https://matplotlib.org/</dc:title>
     </cc:Agent>
    </dc:creator>
   </cc:Work>
  </rdf:RDF>
 </metadata>
 <defs>
  <style type="text/css">*{stroke-linejoin: round; stroke-linecap: butt}</style>
 </defs>
 <g id="figure_1">
  <g id="patch_1">
   <path d="M 0 221.07625 
L 250.554687 221.07625 
L 250.554687 0 
L 0 0 
L 0 221.07625 
z
" style="fill: none"/>
  </g>
  <g id="axes_1">
   <g id="patch_2">
    <path d="M 40.103125 173.52 
L 235.403125 173.52 
L 235.403125 7.2 
L 40.103125 7.2 
L 40.103125 173.52 
z
" style="fill: none"/>
   </g>
   <g id="matplotlib.axis_1">
    <g id="xtick_1">
     <g id="line2d_1">
      <defs>
       <path id="mfe742a7d77" d="M 0 0 
L 0 3.5 
" style="stroke: #000000; stroke-width: 0.8"/>
      </defs>
      <g>
       <use xlink:href="#mfe742a7d77" x="40.103125" y="183.52" style="stroke: #000000; stroke-width: 0.8"/>
      </g>
     </g>
     <g id="text_1">
      <!-- 0.0 -->
      <g transform="translate(32.151562 198.118438) scale(0.1 -0.1)">
       <defs>
        <path id="DejaVuSans-30" d="M 2034 4250 
Q 1547 4250 1301 3770 
Q 1056 3291 1056 2328 
Q 1056 1369 1301 889 
Q 1547 409 2034 409 
Q 2525 409 2770 889 
Q 3016 1369 3016 2328 
Q 3016 3291 2770 3770 
Q 2525 4250 2034 4250 
z
M 2034 4750 
Q 2819 4750 3233 4129 
Q 3647 3509 3647 2328 
Q 3647 1150 3233 529 
Q 2819 -91 2034 -91 
Q 1250 -91 836 529 
Q 422 1150 422 2328 
Q 422 3509 836 4129 
Q 1250 4750 2034 4750 
z
" transform="scale(0.015625)"/>
        <path id="DejaVuSans-2e" d="M 684 794 
L 1344 794 
L 1344 0 
L 684 0 
L 684 794 
z
" transform="scale(0.015625)"/>
       </defs>
       <use xlink:href="#DejaVuSans-30"/>
       <use xlink:href="#DejaVuSans-2e" x="63.623047"/>
       <use xlink:href="#DejaVuSans-30" x="95.410156"/>
      </g>
     </g>
    </g>
    <g id="xtick_2">
     <g id="line2d_2">
      <g>
       <use xlink:href="#mfe742a7d77" x="79.163125" y="183.52" style="stroke: #000000; stroke-width: 0.8"/>
      </g>
     </g>
     <g id="text_2">
      <!-- 0.2 -->
      <g transform="translate(71.211563 198.118438) scale(0.1 -0.1)">
       <defs>
        <path id="DejaVuSans-32" d="M 1228 531 
L 3431 531 
L 3431 0 
L 469 0 
L 469 531 
Q 828 903 1448 1529 
Q 2069 2156 2228 2338 
Q 2531 2678 2651 2914 
Q 2772 3150 2772 3378 
Q 2772 3750 2511 3984 
Q 2250 4219 1831 4219 
Q 1534 4219 1204 4116 
Q 875 4013 500 3803 
L 500 4441 
Q 881 4594 1212 4672 
Q 1544 4750 1819 4750 
Q 2544 4750 2975 4387 
Q 3406 4025 3406 3419 
Q 3406 3131 3298 2873 
Q 3191 2616 2906 2266 
Q 2828 2175 2409 1742 
Q 1991 1309 1228 531 
z
" transform="scale(0.015625)"/>
       </defs>
       <use xlink:href="#DejaVuSans-30"/>
       <use xlink:href="#DejaVuSans-2e" x="63.623047"/>
       <use xlink:href="#DejaVuSans-32" x="95.410156"/>
      </g>
     </g>
    </g>
    <g id="xtick_3">
     <g id="line2d_3">
      <g>
       <use xlink:href="#mfe742a7d77" x="118.223125" y="183.52" style="stroke: #000000; stroke-width: 0.8"/>
      </g>
     </g>
     <g id="text_3">
      <!-- 0.4 -->
      <g transform="translate(110.271563 198.118438) scale(0.1 -0.1)">
       <defs>
        <path id="DejaVuSans-34" d="M 2419 4116 
L 825 1625 
L 2419 1625 
L 2419 4116 
z
M 2253 4666 
L 3047 4666 
L 3047 1625 
L 3713 1625 
L 3713 1100 
L 3047 1100 
L 3047 0 
L 2419 0 
L 2419 1100 
L 313 1100 
L 313 1709 
L 2253 4666 
z
" transform="scale(0.015625)"/>
       </defs>
       <use xlink:href="#DejaVuSans-30"/>
       <use xlink:href="#DejaVuSans-2e" x="63.623047"/>
       <use xlink:href="#DejaVuSans-34" x="95.410156"/>
      </g>
     </g>
    </g>
    <g id="xtick_4">
     <g id="line2d_4">
      <g>
       <use xlink:href="#mfe742a7d77" x="157.283125" y="183.52" style="stroke: #000000; stroke-width: 0.8"/>
      </g>
     </g>
     <g id="text_4">
      <!-- 0.6 -->
      <g transform="translate(149.331563 198.118438) scale(0.1 -0.1)">
       <defs>
        <path id="DejaVuSans-36" d="M 2113 2584 
Q 1688 2584 1439 2293 
Q 1191 2003 1191 1497 
Q 1191 994 1439 701 
Q 1688 409 2113 409 
Q 2538 409 2786 701 
Q 3034 994 3034 1497 
Q 3034 2003 2786 2293 
Q 2538 2584 2113 2584 
z
M 3366 4563 
L 3366 3988 
Q 3128 4100 2886 4159 
Q 2644 4219 2406 4219 
Q 1781 4219 1451 3797 
Q 1122 3375 1075 2522 
Q 1259 2794 1537 2939 
Q 1816 3084 2150 3084 
Q 2853 3084 3261 2657 
Q 3669 2231 3669 1497 
Q 3669 778 3244 343 
Q 2819 -91 2113 -91 
Q 1303 -91 875 529 
Q 447 1150 447 2328 
Q 447 3434 972 4092 
Q 1497 4750 2381 4750 
Q 2619 4750 2861 4703 
Q 3103 4656 3366 4563 
z
" transform="scale(0.015625)"/>
       </defs>
       <use xlink:href="#DejaVuSans-30"/>
       <use xlink:href="#DejaVuSans-2e" x="63.623047"/>
       <use xlink:href="#DejaVuSans-36" x="95.410156"/>
      </g>
     </g>
    </g>
    <g id="xtick_5">
     <g id="line2d_5">
      <g>
       <use xlink:href="#mfe742a7d77" x="196.343125" y="183.52" style="stroke: #000000; stroke-width: 0.8"/>
      </g>
     </g>
     <g id="text_5">
      <!-- 0.8 -->
      <g transform="translate(188.391563 198.118438) scale(0.1 -0.1)">
       <defs>
        <path id="DejaVuSans-38" d="M 2034 2216 
Q 1584 2216 1326 1975 
Q 1069 1734 1069 1313 
Q 1069 891 1326 650 
Q 1584 409 2034 409 
Q 2484 409 2743 651 
Q 3003 894 3003 1313 
Q 3003 1734 2745 1975 
Q 2488 2216 2034 2216 
z
M 1403 2484 
Q 997 2584 770 2862 
Q 544 3141 544 3541 
Q 544 4100 942 4425 
Q 1341 4750 2034 4750 
Q 2731 4750 3128 4425 
Q 3525 4100 3525 3541 
Q 3525 3141 3298 2862 
Q 3072 2584 2669 2484 
Q 3125 2378 3379 2068 
Q 3634 1759 3634 1313 
Q 3634 634 3220 271 
Q 2806 -91 2034 -91 
Q 1263 -91 848 271 
Q 434 634 434 1313 
Q 434 1759 690 2068 
Q 947 2378 1403 2484 
z
M 1172 3481 
Q 1172 3119 1398 2916 
Q 1625 2713 2034 2713 
Q 2441 2713 2670 2916 
Q 2900 3119 2900 3481 
Q 2900 3844 2670 4047 
Q 2441 4250 2034 4250 
Q 1625 4250 1398 4047 
Q 1172 3844 1172 3481 
z
" transform="scale(0.015625)"/>
       </defs>
       <use xlink:href="#DejaVuSans-30"/>
       <use xlink:href="#DejaVuSans-2e" x="63.623047"/>
       <use xlink:href="#DejaVuSans-38" x="95.410156"/>
      </g>
     </g>
    </g>
    <g id="xtick_6">
     <g id="line2d_6">
      <g>
       <use xlink:href="#mfe742a7d77" x="235.403125" y="183.52" style="stroke: #000000; stroke-width: 0.8"/>
      </g>
     </g>
     <g id="text_6">
      <!-- 1.0 -->
      <g transform="translate(227.451562 198.118438) scale(0.1 -0.1)">
       <defs>
        <path id="DejaVuSans-31" d="M 794 531 
L 1825 531 
L 1825 4091 
L 703 3866 
L 703 4441 
L 1819 4666 
L 2450 4666 
L 2450 531 
L 3481 531 
L 3481 0 
L 794 0 
L 794 531 
z
" transform="scale(0.015625)"/>
       </defs>
       <use xlink:href="#DejaVuSans-31"/>
       <use xlink:href="#DejaVuSans-2e" x="63.623047"/>
       <use xlink:href="#DejaVuSans-30" x="95.410156"/>
      </g>
     </g>
    </g>
    <g id="text_7">
     <!-- $r \; / \; r_c$ -->
     <g transform="translate(127.153125 211.796563) scale(0.1 -0.1)">
      <defs>
       <path id="DejaVuSans-Oblique-72" d="M 2853 2969 
Q 2766 3016 2653 3041 
Q 2541 3066 2413 3066 
Q 1953 3066 1609 2717 
Q 1266 2369 1153 1784 
L 800 0 
L 225 0 
L 909 3500 
L 1484 3500 
L 1375 2956 
Q 1603 3259 1920 3421 
Q 2238 3584 2597 3584 
Q 2691 3584 2781 3573 
Q 2872 3563 2963 3538 
L 2853 2969 
z
" transform="scale(0.015625)"/>
       <path id="DejaVuSans-2f" d="M 1625 4666 
L 2156 4666 
L 531 -594 
L 0 -594 
L 1625 4666 
z
" transform="scale(0.015625)"/>
       <path id="DejaVuSans-Oblique-63" d="M 3431 3366 
L 3316 2797 
Q 3109 2947 2876 3022 
Q 2644 3097 2394 3097 
Q 2119 3097 1870 3000 
Q 1622 2903 1453 2725 
Q 1184 2453 1037 2087 
Q 891 1722 891 1331 
Q 891 859 1127 628 
Q 1363 397 1844 397 
Q 2081 397 2348 469 
Q 2616 541 2906 684 
L 2797 116 
Q 2547 13 2283 -39 
Q 2019 -91 1741 -91 
Q 1044 -91 669 257 
Q 294 606 294 1253 
Q 294 1797 489 2255 
Q 684 2713 1069 3078 
Q 1331 3328 1684 3456 
Q 2038 3584 2456 3584 
Q 2700 3584 2940 3529 
Q 3181 3475 3431 3366 
z
" transform="scale(0.015625)"/>
      </defs>
      <use xlink:href="#DejaVuSans-Oblique-72" transform="translate(0 0.09375)"/>
      <use xlink:href="#DejaVuSans-2f" transform="translate(68.172417 0.09375)"/>
      <use xlink:href="#DejaVuSans-Oblique-72" transform="translate(128.922959 0.09375)"/>
      <use xlink:href="#DejaVuSans-Oblique-63" transform="translate(170.03624 -16.3125) scale(0.7)"/>
     </g>
    </g>
   </g>
   <g id="matplotlib.axis_2">
    <g id="ytick_1">
     <g id="line2d_7">
      <defs>
       <path id="m24cb5cf961" d="M 0 0 
L -3.5 0 
" style="stroke: #000000; stroke-width: 0.8"/>
      </defs>
      <g>
       <use xlink:href="#m24cb5cf961" x="30.103125" y="138.987019" style="stroke: #000000; stroke-width: 0.8"/>
      </g>
     </g>
     <g id="text_8">
      <!-- 0.0 -->
      <g transform="translate(7.2 142.786237) scale(0.1 -0.1)">
       <use xlink:href="#DejaVuSans-30"/>
       <use xlink:href="#DejaVuSans-2e" x="63.623047"/>
       <use xlink:href="#DejaVuSans-30" x="95.410156"/>
      </g>
     </g>
    </g>
    <g id="ytick_2">
     <g id="line2d_8">
      <g>
       <use xlink:href="#m24cb5cf961" x="30.103125" y="99.906355" style="stroke: #000000; stroke-width: 0.8"/>
      </g>
     </g>
     <g id="text_9">
      <!-- 0.5 -->
      <g transform="translate(7.2 103.705573) scale(0.1 -0.1)">
       <defs>
        <path id="DejaVuSans-35" d="M 691 4666 
L 3169 4666 
L 3169 4134 
L 1269 4134 
L 1269 2991 
Q 1406 3038 1543 3061 
Q 1681 3084 1819 3084 
Q 2600 3084 3056 2656 
Q 3513 2228 3513 1497 
Q 3513 744 3044 326 
Q 2575 -91 1722 -91 
Q 1428 -91 1123 -41 
Q 819 9 494 109 
L 494 744 
Q 775 591 1075 516 
Q 1375 441 1709 441 
Q 2250 441 2565 725 
Q 2881 1009 2881 1497 
Q 2881 1984 2565 2268 
Q 2250 2553 1709 2553 
Q 1456 2553 1204 2497 
Q 953 2441 691 2322 
L 691 4666 
z
" transform="scale(0.015625)"/>
       </defs>
       <use xlink:href="#DejaVuSans-30"/>
       <use xlink:href="#DejaVuSans-2e" x="63.623047"/>
       <use xlink:href="#DejaVuSans-35" x="95.410156"/>
      </g>
     </g>
    </g>
    <g id="ytick_3">
     <g id="line2d_9">
      <g>
       <use xlink:href="#m24cb5cf961" x="30.103125" y="60.825691" style="stroke: #000000; stroke-width: 0.8"/>
      </g>
     </g>
     <g id="text_10">
      <!-- 1.0 -->
      <g transform="translate(7.2 64.62491) scale(0.1 -0.1)">
       <use xlink:href="#DejaVuSans-31"/>
       <use xlink:href="#DejaVuSans-2e" x="63.623047"/>
       <use xlink:href="#DejaVuSans-30" x="95.410156"/>
      </g>
     </g>
    </g>
    <g id="ytick_4">
     <g id="line2d_10">
      <g>
       <use xlink:href="#m24cb5cf961" x="30.103125" y="21.745027" style="stroke: #000000; stroke-width: 0.8"/>
      </g>
     </g>
     <g id="text_11">
      <!-- 1.5 -->
      <g transform="translate(7.2 25.544246) scale(0.1 -0.1)">
       <use xlink:href="#DejaVuSans-31"/>
       <use xlink:href="#DejaVuSans-2e" x="63.623047"/>
       <use xlink:href="#DejaVuSans-35" x="95.410156"/>
      </g>
     </g>
    </g>
   </g>
   <g id="line2d_11">
    <path d="M 40.493725 107.927198 
L 42.462507 107.934452 
L 44.431288 107.952081 
L 46.400071 107.98008 
L 48.368852 108.018429 
L 50.337633 108.067113 
L 52.306415 108.126091 
L 54.275197 108.195332 
L 56.243979 108.274797 
L 58.21276 108.364434 
L 60.181542 108.464199 
L 62.150325 108.574016 
L 64.119105 108.693833 
L 66.087888 108.823573 
L 68.056668 108.963155 
L 70.025451 109.112503 
L 71.994231 109.271519 
L 73.963014 109.440111 
L 75.931797 109.618181 
L 77.900577 109.805618 
L 79.869358 110.002311 
L 81.838141 110.208148 
L 83.806924 110.423004 
L 85.775707 110.646739 
L 87.744484 110.879236 
L 89.713267 111.120351 
L 91.68205 111.369938 
L 93.650827 111.62785 
L 95.61961 111.893934 
L 97.588393 112.168035 
L 99.557176 112.449989 
L 101.525959 112.739625 
L 103.494742 113.036779 
L 105.463526 113.341274 
L 107.432303 113.652925 
L 109.401086 113.971555 
L 111.369869 114.296978 
L 113.338652 114.628998 
L 115.307429 114.967423 
L 117.276212 115.312054 
L 119.244989 115.662692 
L 121.213772 116.019133 
L 123.182555 116.381169 
L 125.151339 116.74859 
L 127.120122 117.121183 
L 129.088905 117.49873 
L 131.057688 117.88102 
L 133.026465 118.267827 
L 134.995248 118.658931 
L 136.964031 119.054112 
L 138.932826 119.45314 
L 140.901609 119.855787 
L 142.870392 120.261825 
L 144.839163 120.671023 
L 146.807946 121.083152 
L 148.776729 121.497979 
L 150.745512 121.915272 
L 152.714295 122.334794 
L 154.683078 122.756313 
L 156.651861 123.179594 
L 158.620644 123.604402 
L 160.589428 124.0305 
L 162.558199 124.457656 
L 164.526982 124.885635 
L 166.495765 125.314205 
L 168.464548 125.743129 
L 170.433319 126.172174 
L 172.402102 126.601113 
L 174.370886 127.029712 
L 176.339669 127.457742 
L 178.308452 127.884975 
L 180.277235 128.311183 
L 182.246018 128.736145 
L 184.214801 129.159635 
L 186.183584 129.581433 
L 188.152367 130.00132 
L 190.121138 130.419078 
L 192.089921 130.834496 
L 194.058704 131.247361 
L 196.027487 131.657462 
L 197.99627 132.064597 
L 199.965053 132.468559 
L 201.933837 132.869151 
L 203.90262 133.266175 
L 205.871403 133.659438 
L 207.840186 134.04875 
L 209.808969 134.433925 
L 211.777752 134.814775 
L 213.746535 135.191129 
L 215.715318 135.562809 
L 217.684101 135.929644 
L 219.652884 136.291466 
L 221.621667 136.648111 
L 223.590427 136.999423 
L 225.55921 137.345251 
L 227.527993 137.685442 
L 229.496776 138.019853 
L 231.465559 138.34834 
L 233.434342 138.670773 
L 235.403125 138.987019 
" style="fill: none; stroke: #4385be; stroke-width: 1.5; stroke-linecap: square"/>
   </g>
   <g id="line2d_12">
    <path d="M 40.493725 76.868604 
L 42.462507 76.926605 
L 44.431288 77.067515 
L 46.400071 77.29101 
L 48.368852 77.596528 
L 50.337633 77.983361 
L 52.306415 78.450557 
L 54.275197 78.997004 
L 56.243979 79.621392 
L 58.21276 80.32223 
L 60.181542 81.097838 
L 62.150325 81.946355 
L 64.119105 82.865765 
L 66.087888 83.853878 
L 68.056668 84.908346 
L 70.025451 86.026671 
L 71.994231 87.206204 
L 73.963014 88.444167 
L 75.931797 89.737644 
L 77.900577 91.083603 
L 79.869358 92.478888 
L 81.838141 93.920263 
L 83.806924 95.404377 
L 85.775707 96.927798 
L 87.744484 98.487021 
L 89.713267 100.078462 
L 91.68205 101.698505 
L 93.650827 103.343466 
L 95.61961 105.009641 
L 97.588393 106.693293 
L 99.557176 108.390661 
L 101.525959 110.097993 
L 103.494742 111.811539 
L 105.463526 113.527562 
L 107.432303 115.242344 
L 109.401086 116.952221 
L 111.369869 118.653553 
L 113.338652 120.34277 
L 115.307429 122.016352 
L 117.276212 123.670879 
L 119.244989 125.302979 
L 121.213772 126.909396 
L 123.182555 128.486972 
L 125.151339 130.032641 
L 127.120122 131.543471 
L 129.088905 133.016642 
L 131.057688 134.449457 
L 133.026465 135.83937 
L 134.995248 137.183971 
L 136.964031 138.481001 
L 138.932826 139.728348 
L 140.901609 140.924049 
L 142.870392 142.066312 
L 144.839163 143.153515 
L 146.807946 144.184196 
L 148.776729 145.15707 
L 150.745512 146.071017 
L 152.714295 146.925088 
L 154.683078 147.718524 
L 156.651861 148.450728 
L 158.620644 149.121276 
L 160.589428 149.729934 
L 162.558199 150.276624 
L 164.526982 150.761455 
L 166.495765 151.184696 
L 168.464548 151.546785 
L 170.433319 151.848321 
L 172.402102 152.090071 
L 174.370886 152.272951 
L 176.339669 152.398032 
L 178.308452 152.46653 
L 180.277235 152.4798 
L 182.246018 152.439341 
L 184.214801 152.346772 
L 186.183584 152.203842 
L 188.152367 152.012408 
L 190.121138 151.774448 
L 192.089921 151.492032 
L 194.058704 151.167326 
L 196.027487 150.80259 
L 197.99627 150.400151 
L 199.965053 149.962419 
L 201.933837 149.491852 
L 203.90262 148.990974 
L 205.871403 148.462347 
L 207.840186 147.908574 
L 209.808969 147.332285 
L 211.777752 146.736131 
L 213.746535 146.122767 
L 215.715318 145.494858 
L 217.684101 144.855061 
L 219.652884 144.206019 
L 221.621667 143.550356 
L 223.590427 142.890659 
L 225.55921 142.229474 
L 227.527993 141.569312 
L 229.496776 140.912627 
L 231.465559 140.261815 
L 233.434342 139.619192 
L 235.403125 138.987017 
" style="fill: none; stroke: #ce5d97; stroke-width: 1.5; stroke-linecap: square"/>
   </g>
   <g id="line2d_13">
    <path d="M 40.493725 45.812462 
L 42.462507 46.00814 
L 44.431288 46.482981 
L 46.400071 47.234405 
L 48.368852 48.258357 
L 50.337633 49.549295 
L 52.306415 51.100268 
L 54.275197 52.902954 
L 56.243979 54.947627 
L 58.21276 57.223347 
L 60.181542 59.717973 
L 62.150325 62.418224 
L 64.119105 65.309788 
L 66.087888 68.377398 
L 68.056668 71.604944 
L 70.025451 74.97556 
L 71.994231 78.471745 
L 73.963014 82.075468 
L 75.931797 85.768286 
L 77.900577 89.531428 
L 79.869358 93.345952 
L 81.838141 97.192854 
L 83.806924 101.053162 
L 85.775707 104.90808 
L 87.744484 108.739065 
L 89.713267 112.528007 
L 91.68205 116.257241 
L 93.650827 119.909735 
L 95.61961 123.469147 
L 97.588393 126.919936 
L 99.557176 130.247418 
L 101.525959 133.437891 
L 103.494742 136.478687 
L 105.463526 139.358245 
L 107.432303 142.066136 
L 109.401086 144.593191 
L 111.369869 146.931447 
L 113.338652 149.074256 
L 115.307429 151.016259 
L 117.276212 152.753449 
L 119.244989 154.283114 
L 121.213772 155.60391 
L 123.182555 156.715771 
L 125.151339 157.619942 
L 127.120122 158.318931 
L 129.088905 158.816474 
L 131.057688 159.117494 
L 133.026465 159.228021 
L 134.995248 159.155179 
L 136.964031 158.90708 
L 138.932826 158.492764 
L 140.901609 157.922126 
L 142.870392 157.205833 
L 144.839163 156.355229 
L 146.807946 155.382234 
L 148.776729 154.299291 
L 150.745512 153.11923 
L 152.714295 151.855188 
L 154.683078 150.520506 
L 156.651861 149.128638 
L 158.620644 147.693061 
L 160.589428 146.227152 
L 162.558199 144.744133 
L 164.526982 143.256923 
L 166.495765 141.778138 
L 168.464548 140.319926 
L 170.433319 138.893935 
L 172.402102 137.511199 
L 174.370886 136.182137 
L 176.339669 134.916422 
L 178.308452 133.722962 
L 180.277235 132.609836 
L 182.246018 131.584276 
L 184.214801 130.652599 
L 186.183584 129.820198 
L 188.152367 129.091515 
L 190.121138 128.470053 
L 192.089921 127.958321 
L 194.058704 127.557885 
L 196.027487 127.269348 
L 197.99627 127.092384 
L 199.965053 127.025746 
L 201.933837 127.067307 
L 203.90262 127.214094 
L 205.871403 127.462323 
L 207.840186 127.80746 
L 209.808969 128.244256 
L 211.777752 128.766825 
L 213.746535 129.36868 
L 215.715318 130.042831 
L 217.684101 130.781816 
L 219.652884 131.577787 
L 221.621667 132.422606 
L 223.590427 133.307863 
L 225.55921 134.225006 
L 227.527993 135.165391 
L 229.496776 136.12033 
L 231.465559 137.08122 
L 233.434342 138.039555 
L 235.403125 138.987019 
" style="fill: none; stroke: #da702c; stroke-width: 1.5; stroke-linecap: square"/>
   </g>
   <g id="line2d_14">
    <path d="M 40.493725 14.76 
L 42.462507 15.223595 
L 44.431288 16.346649 
L 46.400071 18.118392 
L 48.368852 20.521809 
L 50.337633 23.533868 
L 52.306415 27.125814 
L 54.275197 31.263433 
L 56.243979 35.907499 
L 58.21276 41.014181 
L 60.181542 46.535578 
L 62.150325 52.420184 
L 64.119105 58.613591 
L 66.087888 65.058978 
L 68.056668 71.697788 
L 70.025451 78.470422 
L 71.994231 85.316804 
L 73.963014 92.177153 
L 75.931797 98.992507 
L 77.900577 105.705439 
L 79.869358 112.260642 
L 81.838141 118.6055 
L 83.806924 124.690631 
L 85.775707 130.470395 
L 87.744484 135.903289 
L 89.713267 140.952443 
L 91.68205 145.585846 
L 93.650827 149.776664 
L 95.61961 153.503474 
L 97.588393 156.750326 
L 99.557176 159.506893 
L 101.525959 161.76843 
L 103.494742 163.535737 
L 105.463526 164.815005 
L 107.432303 165.617636 
L 109.401086 165.96 
L 111.369869 165.863114 
L 113.338652 165.352297 
L 115.307429 164.456754 
L 117.276212 163.209134 
L 119.244989 161.645056 
L 121.213772 159.802602 
L 123.182555 157.72178 
L 125.151339 155.444003 
L 127.120122 153.011517 
L 129.088905 150.466878 
L 131.057688 147.852412 
L 133.026465 145.209668 
L 134.995248 142.578928 
L 136.964031 139.998728 
L 138.932826 137.505428 
L 140.901609 135.132815 
L 142.870392 132.911704 
L 144.839163 130.869629 
L 146.807946 129.030598 
L 148.776729 127.414867 
L 150.745512 126.038795 
L 152.714295 124.914727 
L 154.683078 124.050934 
L 156.651861 123.451647 
L 158.620644 123.117111 
L 160.589428 123.043684 
L 162.558199 123.22402 
L 164.526982 123.647273 
L 166.495765 124.299347 
L 168.464548 125.163198 
L 170.433319 126.219138 
L 172.402102 127.445232 
L 174.370886 128.817629 
L 176.339669 130.310982 
L 178.308452 131.898852 
L 180.277235 133.554107 
L 182.246018 135.249383 
L 184.214801 136.957421 
L 186.183584 138.651507 
L 188.152367 140.305843 
L 190.121138 141.895887 
L 192.089921 143.398734 
L 194.058704 144.793345 
L 196.027487 146.060851 
L 197.99627 147.184804 
L 199.965053 148.151304 
L 201.933837 148.949213 
L 203.90262 149.570205 
L 205.871403 150.008853 
L 207.840186 150.262637 
L 209.808969 150.331924 
L 211.777752 150.219892 
L 213.746535 149.932419 
L 215.715318 149.477949 
L 217.684101 148.867288 
L 219.652884 148.113411 
L 221.621667 147.231219 
L 223.590427 146.237256 
L 225.55921 145.149428 
L 227.527993 143.986732 
L 229.496776 142.768916 
L 231.465559 141.516181 
L 233.434342 140.248831 
L 235.403125 138.987015 
" style="fill: none; stroke: #8b7ec8; stroke-width: 1.5; stroke-linecap: square"/>
   </g>
   <g id="patch_3">
    <path d="M 30.103125 173.52 
L 30.103125 7.2 
" style="fill: none; stroke: #000000; stroke-width: 0.8; stroke-linejoin: miter; stroke-linecap: square"/>
   </g>
   <g id="patch_4">
    <path d="M 40.103125 183.52 
L 235.403125 183.52 
" style="fill: none; stroke: #000000; stroke-width: 0.8; stroke-linejoin: miter; stroke-linecap: square"/>
   </g>
  </g>
 </g>
</svg>
