<?xml version="1.0" encoding="utf-8" standalone="no"?>
<!DOCTYPE svg PUBLIC "-//W3C//DTD SVG 1.1//EN"
  "http://www.w3.org/Graphics/SVG/1.1/DTD/svg11.dtd">
<svg xmlns:xlink="http://www.w3.org/1999/xlink" width="250.554688pt" height="221.07625pt" viewBox="0 0 250.554688 221.07625" xmlns="http://www.w3.org/2000/svg" version="1.1">
 <metadata>
  <rdf:RDF xmlns:dc="http://purl.org/dc/elements/1.1/" xmlns:cc="http://creativecommons.org/ns#" xmlns:rdf="http://www.w3.org/1999/02/22-rdf-syntax-ns#">
   <cc:Work>
    <dc:type rdf:resource="http://purl.org/dc/dcmitype/StillImage"/>
    <dc:date>2024-01-26T15:49:03.507563</dc:date>
    <dc:format>image/svg+xml</dc:format>
    <dc:creator>
     <cc:Agent>
      <dc:title>Matplotlib v3.7.3, https://matplotlib.org/</dc:title>
     </cc:Agent>
    </dc:creator>
   </cc:Work>
  </rdf:RDF>
 </metadata>
 <defs>
  <style type="text/css">*{stroke-linejoin: round; stroke-linecap: butt}</style>
 </defs>
 <g id="figure_1">
  <g id="patch_1">
   <path d="M 0 221.07625 
L 250.554687 221.07625 
L 250.554687 0 
L 0 0 
L 0 221.07625 
z
" style="fill: none"/>
  </g>
  <g id="axes_1">
   <g id="patch_2">
    <path d="M 40.103125 173.52 
L 235.403125 173.52 
L 235.403125 7.2 
L 40.103125 7.2 
L 40.103125 173.52 
z
" style="fill: none"/>
   </g>
   <g id="matplotlib.axis_1">
    <g id="xtick_1">
     <g id="line2d_1">
      <defs>
       <path id="m1222442ec3" d="M 0 0 
L 0 3.5 
" style="stroke: #000000; stroke-width: 0.8"/>
      </defs>
      <g>
       <use xlink:href="#m1222442ec3" x="40.103125" y="183.52" style="stroke: #000000; stroke-width: 0.8"/>
      </g>
     </g>
     <g id="text_1">
      <!-- 0.0 -->
      <g transform="translate(32.151562 198.118438) scale(0.1 -0.1)">
       <defs>
        <path id="DejaVuSans-30" d="M 2034 4250 
Q 1547 4250 1301 3770 
Q 1056 3291 1056 2328 
Q 1056 1369 1301 889 
Q 1547 409 2034 409 
Q 2525 409 2770 889 
Q 3016 1369 3016 2328 
Q 3016 3291 2770 3770 
Q 2525 4250 2034 4250 
z
M 2034 4750 
Q 2819 4750 3233 4129 
Q 3647 3509 3647 2328 
Q 3647 1150 3233 529 
Q 2819 -91 2034 -91 
Q 1250 -91 836 529 
Q 422 1150 422 2328 
Q 422 3509 836 4129 
Q 1250 4750 2034 4750 
z
" transform="scale(0.015625)"/>
        <path id="DejaVuSans-2e" d="M 684 794 
L 1344 794 
L 1344 0 
L 684 0 
L 684 794 
z
" transform="scale(0.015625)"/>
       </defs>
       <use xlink:href="#DejaVuSans-30"/>
       <use xlink:href="#DejaVuSans-2e" x="63.623047"/>
       <use xlink:href="#DejaVuSans-30" x="95.410156"/>
      </g>
     </g>
    </g>
    <g id="xtick_2">
     <g id="line2d_2">
      <g>
       <use xlink:href="#m1222442ec3" x="79.163125" y="183.52" style="stroke: #000000; stroke-width: 0.8"/>
      </g>
     </g>
     <g id="text_2">
      <!-- 0.2 -->
      <g transform="translate(71.211563 198.118438) scale(0.1 -0.1)">
       <defs>
        <path id="DejaVuSans-32" d="M 1228 531 
L 3431 531 
L 3431 0 
L 469 0 
L 469 531 
Q 828 903 1448 1529 
Q 2069 2156 2228 2338 
Q 2531 2678 2651 2914 
Q 2772 3150 2772 3378 
Q 2772 3750 2511 3984 
Q 2250 4219 1831 4219 
Q 1534 4219 1204 4116 
Q 875 4013 500 3803 
L 500 4441 
Q 881 4594 1212 4672 
Q 1544 4750 1819 4750 
Q 2544 4750 2975 4387 
Q 3406 4025 3406 3419 
Q 3406 3131 3298 2873 
Q 3191 2616 2906 2266 
Q 2828 2175 2409 1742 
Q 1991 1309 1228 531 
z
" transform="scale(0.015625)"/>
       </defs>
       <use xlink:href="#DejaVuSans-30"/>
       <use xlink:href="#DejaVuSans-2e" x="63.623047"/>
       <use xlink:href="#DejaVuSans-32" x="95.410156"/>
      </g>
     </g>
    </g>
    <g id="xtick_3">
     <g id="line2d_3">
      <g>
       <use xlink:href="#m1222442ec3" x="118.223125" y="183.52" style="stroke: #000000; stroke-width: 0.8"/>
      </g>
     </g>
     <g id="text_3">
      <!-- 0.4 -->
      <g transform="translate(110.271563 198.118438) scale(0.1 -0.1)">
       <defs>
        <path id="DejaVuSans-34" d="M 2419 4116 
L 825 1625 
L 2419 1625 
L 2419 4116 
z
M 2253 4666 
L 3047 4666 
L 3047 1625 
L 3713 1625 
L 3713 1100 
L 3047 1100 
L 3047 0 
L 2419 0 
L 2419 1100 
L 313 1100 
L 313 1709 
L 2253 4666 
z
" transform="scale(0.015625)"/>
       </defs>
       <use xlink:href="#DejaVuSans-30"/>
       <use xlink:href="#DejaVuSans-2e" x="63.623047"/>
       <use xlink:href="#DejaVuSans-34" x="95.410156"/>
      </g>
     </g>
    </g>
    <g id="xtick_4">
     <g id="line2d_4">
      <g>
       <use xlink:href="#m1222442ec3" x="157.283125" y="183.52" style="stroke: #000000; stroke-width: 0.8"/>
      </g>
     </g>
     <g id="text_4">
      <!-- 0.6 -->
      <g transform="translate(149.331563 198.118438) scale(0.1 -0.1)">
       <defs>
        <path id="DejaVuSans-36" d="M 2113 2584 
Q 1688 2584 1439 2293 
Q 1191 2003 1191 1497 
Q 1191 994 1439 701 
Q 1688 409 2113 409 
Q 2538 409 2786 701 
Q 3034 994 3034 1497 
Q 3034 2003 2786 2293 
Q 2538 2584 2113 2584 
z
M 3366 4563 
L 3366 3988 
Q 3128 4100 2886 4159 
Q 2644 4219 2406 4219 
Q 1781 4219 1451 3797 
Q 1122 3375 1075 2522 
Q 1259 2794 1537 2939 
Q 1816 3084 2150 3084 
Q 2853 3084 3261 2657 
Q 3669 2231 3669 1497 
Q 3669 778 3244 343 
Q 2819 -91 2113 -91 
Q 1303 -91 875 529 
Q 447 1150 447 2328 
Q 447 3434 972 4092 
Q 1497 4750 2381 4750 
Q 2619 4750 2861 4703 
Q 3103 4656 3366 4563 
z
" transform="scale(0.015625)"/>
       </defs>
       <use xlink:href="#DejaVuSans-30"/>
       <use xlink:href="#DejaVuSans-2e" x="63.623047"/>
       <use xlink:href="#DejaVuSans-36" x="95.410156"/>
      </g>
     </g>
    </g>
    <g id="xtick_5">
     <g id="line2d_5">
      <g>
       <use xlink:href="#m1222442ec3" x="196.343125" y="183.52" style="stroke: #000000; stroke-width: 0.8"/>
      </g>
     </g>
     <g id="text_5">
      <!-- 0.8 -->
      <g transform="translate(188.391563 198.118438) scale(0.1 -0.1)">
       <defs>
        <path id="DejaVuSans-38" d="M 2034 2216 
Q 1584 2216 1326 1975 
Q 1069 1734 1069 1313 
Q 1069 891 1326 650 
Q 1584 409 2034 409 
Q 2484 409 2743 651 
Q 3003 894 3003 1313 
Q 3003 1734 2745 1975 
Q 2488 2216 2034 2216 
z
M 1403 2484 
Q 997 2584 770 2862 
Q 544 3141 544 3541 
Q 544 4100 942 4425 
Q 1341 4750 2034 4750 
Q 2731 4750 3128 4425 
Q 3525 4100 3525 3541 
Q 3525 3141 3298 2862 
Q 3072 2584 2669 2484 
Q 3125 2378 3379 2068 
Q 3634 1759 3634 1313 
Q 3634 634 3220 271 
Q 2806 -91 2034 -91 
Q 1263 -91 848 271 
Q 434 634 434 1313 
Q 434 1759 690 2068 
Q 947 2378 1403 2484 
z
M 1172 3481 
Q 1172 3119 1398 2916 
Q 1625 2713 2034 2713 
Q 2441 2713 2670 2916 
Q 2900 3119 2900 3481 
Q 2900 3844 2670 4047 
Q 2441 4250 2034 4250 
Q 1625 4250 1398 4047 
Q 1172 3844 1172 3481 
z
" transform="scale(0.015625)"/>
       </defs>
       <use xlink:href="#DejaVuSans-30"/>
       <use xlink:href="#DejaVuSans-2e" x="63.623047"/>
       <use xlink:href="#DejaVuSans-38" x="95.410156"/>
      </g>
     </g>
    </g>
    <g id="xtick_6">
     <g id="line2d_6">
      <g>
       <use xlink:href="#m1222442ec3" x="235.403125" y="183.52" style="stroke: #000000; stroke-width: 0.8"/>
      </g>
     </g>
     <g id="text_6">
      <!-- 1.0 -->
      <g transform="translate(227.451562 198.118438) scale(0.1 -0.1)">
       <defs>
        <path id="DejaVuSans-31" d="M 794 531 
L 1825 531 
L 1825 4091 
L 703 3866 
L 703 4441 
L 1819 4666 
L 2450 4666 
L 2450 531 
L 3481 531 
L 3481 0 
L 794 0 
L 794 531 
z
" transform="scale(0.015625)"/>
       </defs>
       <use xlink:href="#DejaVuSans-31"/>
       <use xlink:href="#DejaVuSans-2e" x="63.623047"/>
       <use xlink:href="#DejaVuSans-30" x="95.410156"/>
      </g>
     </g>
    </g>
    <g id="text_7">
     <!-- $r \; / \; r_c$ -->
     <g transform="translate(127.153125 211.796563) scale(0.1 -0.1)">
      <defs>
       <path id="DejaVuSans-Oblique-72" d="M 2853 2969 
Q 2766 3016 2653 3041 
Q 2541 3066 2413 3066 
Q 1953 3066 1609 2717 
Q 1266 2369 1153 1784 
L 800 0 
L 225 0 
L 909 3500 
L 1484 3500 
L 1375 2956 
Q 1603 3259 1920 3421 
Q 2238 3584 2597 3584 
Q 2691 3584 2781 3573 
Q 2872 3563 2963 3538 
L 2853 2969 
z
" transform="scale(0.015625)"/>
       <path id="DejaVuSans-2f" d="M 1625 4666 
L 2156 4666 
L 531 -594 
L 0 -594 
L 1625 4666 
z
" transform="scale(0.015625)"/>
       <path id="DejaVuSans-Oblique-63" d="M 3431 3366 
L 3316 2797 
Q 3109 2947 2876 3022 
Q 2644 3097 2394 3097 
Q 2119 3097 1870 3000 
Q 1622 2903 1453 2725 
Q 1184 2453 1037 2087 
Q 891 1722 891 1331 
Q 891 859 1127 628 
Q 1363 397 1844 397 
Q 2081 397 2348 469 
Q 2616 541 2906 684 
L 2797 116 
Q 2547 13 2283 -39 
Q 2019 -91 1741 -91 
Q 1044 -91 669 257 
Q 294 606 294 1253 
Q 294 1797 489 2255 
Q 684 2713 1069 3078 
Q 1331 3328 1684 3456 
Q 2038 3584 2456 3584 
Q 2700 3584 2940 3529 
Q 3181 3475 3431 3366 
z
" transform="scale(0.015625)"/>
      </defs>
      <use xlink:href="#DejaVuSans-Oblique-72" transform="translate(0 0.09375)"/>
      <use xlink:href="#DejaVuSans-2f" transform="translate(68.172417 0.09375)"/>
      <use xlink:href="#DejaVuSans-Oblique-72" transform="translate(128.922959 0.09375)"/>
      <use xlink:href="#DejaVuSans-Oblique-63" transform="translate(170.03624 -16.3125) scale(0.7)"/>
     </g>
    </g>
   </g>
   <g id="matplotlib.axis_2">
    <g id="ytick_1">
     <g id="line2d_7">
      <defs>
       <path id="mec497b0ec5" d="M 0 0 
L -3.5 0 
" style="stroke: #000000; stroke-width: 0.8"/>
      </defs>
      <g>
       <use xlink:href="#mec497b0ec5" x="30.103125" y="166.010739" style="stroke: #000000; stroke-width: 0.8"/>
      </g>
     </g>
     <g id="text_8">
      <!-- 0.0 -->
      <g transform="translate(7.2 169.809958) scale(0.1 -0.1)">
       <use xlink:href="#DejaVuSans-30"/>
       <use xlink:href="#DejaVuSans-2e" x="63.623047"/>
       <use xlink:href="#DejaVuSans-30" x="95.410156"/>
      </g>
     </g>
    </g>
    <g id="ytick_2">
     <g id="line2d_8">
      <g>
       <use xlink:href="#mec497b0ec5" x="30.103125" y="135.760591" style="stroke: #000000; stroke-width: 0.8"/>
      </g>
     </g>
     <g id="text_9">
      <!-- 0.2 -->
      <g transform="translate(7.2 139.55981) scale(0.1 -0.1)">
       <use xlink:href="#DejaVuSans-30"/>
       <use xlink:href="#DejaVuSans-2e" x="63.623047"/>
       <use xlink:href="#DejaVuSans-32" x="95.410156"/>
      </g>
     </g>
    </g>
    <g id="ytick_3">
     <g id="line2d_9">
      <g>
       <use xlink:href="#mec497b0ec5" x="30.103125" y="105.510443" style="stroke: #000000; stroke-width: 0.8"/>
      </g>
     </g>
     <g id="text_10">
      <!-- 0.4 -->
      <g transform="translate(7.2 109.309662) scale(0.1 -0.1)">
       <use xlink:href="#DejaVuSans-30"/>
       <use xlink:href="#DejaVuSans-2e" x="63.623047"/>
       <use xlink:href="#DejaVuSans-34" x="95.410156"/>
      </g>
     </g>
    </g>
    <g id="ytick_4">
     <g id="line2d_10">
      <g>
       <use xlink:href="#mec497b0ec5" x="30.103125" y="75.260296" style="stroke: #000000; stroke-width: 0.8"/>
      </g>
     </g>
     <g id="text_11">
      <!-- 0.6 -->
      <g transform="translate(7.2 79.059514) scale(0.1 -0.1)">
       <use xlink:href="#DejaVuSans-30"/>
       <use xlink:href="#DejaVuSans-2e" x="63.623047"/>
       <use xlink:href="#DejaVuSans-36" x="95.410156"/>
      </g>
     </g>
    </g>
    <g id="ytick_5">
     <g id="line2d_11">
      <g>
       <use xlink:href="#mec497b0ec5" x="30.103125" y="45.010148" style="stroke: #000000; stroke-width: 0.8"/>
      </g>
     </g>
     <g id="text_12">
      <!-- 0.8 -->
      <g transform="translate(7.2 48.809367) scale(0.1 -0.1)">
       <use xlink:href="#DejaVuSans-30"/>
       <use xlink:href="#DejaVuSans-2e" x="63.623047"/>
       <use xlink:href="#DejaVuSans-38" x="95.410156"/>
      </g>
     </g>
    </g>
    <g id="ytick_6">
     <g id="line2d_12">
      <g>
       <use xlink:href="#mec497b0ec5" x="30.103125" y="14.76" style="stroke: #000000; stroke-width: 0.8"/>
      </g>
     </g>
     <g id="text_13">
      <!-- 1.0 -->
      <g transform="translate(7.2 18.559219) scale(0.1 -0.1)">
       <use xlink:href="#DejaVuSans-31"/>
       <use xlink:href="#DejaVuSans-2e" x="63.623047"/>
       <use xlink:href="#DejaVuSans-30" x="95.410156"/>
      </g>
     </g>
    </g>
   </g>
   <g id="line2d_13">
    <path d="M 40.103125 14.76 
L 42.056125 14.880949 
L 44.009125 15.243226 
L 45.962125 15.845093 
L 47.915125 16.683673 
L 49.868125 17.754964 
L 51.821125 19.05389 
L 53.774125 20.57432 
L 55.727125 22.309133 
L 57.680126 24.250242 
L 59.633125 26.388712 
L 61.586125 28.714763 
L 63.539126 31.21791 
L 65.492127 33.886991 
L 67.445125 36.710259 
L 69.398126 39.6755 
L 71.351124 42.770083 
L 73.304125 45.98107 
L 75.257126 49.295282 
L 77.210125 52.69943 
L 79.163126 56.180163 
L 81.116127 59.724164 
L 83.069125 63.318246 
L 85.022123 66.949425 
L 86.975127 70.604981 
L 88.928125 74.272527 
L 90.881129 77.940119 
L 92.834127 81.596261 
L 94.787125 85.229965 
L 96.740129 88.830852 
L 98.693127 92.389098 
L 100.646125 95.895583 
L 102.599124 99.341814 
L 104.552122 102.719994 
L 106.505126 106.023076 
L 108.458124 109.244657 
L 110.411128 112.379114 
L 112.364126 115.421498 
L 114.317124 118.367577 
L 116.270128 121.213844 
L 118.223126 123.95739 
L 120.176124 126.596027 
L 122.129128 129.12818 
L 124.082126 131.552819 
L 126.035125 133.86953 
L 127.988123 136.078414 
L 129.941121 138.180058 
L 131.894131 140.175515 
L 133.847129 142.066233 
L 135.800127 143.85406 
L 137.753125 145.541178 
L 139.706123 147.13006 
L 141.659121 148.623452 
L 143.612119 150.024326 
L 145.565129 151.335834 
L 147.518127 152.561277 
L 149.471125 153.704096 
L 151.424124 154.767813 
L 153.377122 155.756005 
L 155.330132 156.672301 
L 157.28313 157.520313 
L 159.236128 158.303662 
L 161.189126 159.02592 
L 163.142124 159.690616 
L 165.095122 160.301193 
L 167.04812 160.861036 
L 169.001118 161.373406 
L 170.954117 161.841476 
L 172.907126 162.268295 
L 174.860113 162.656786 
L 176.813123 163.009758 
L 178.766121 163.329875 
L 180.719119 163.619673 
L 182.672129 163.881554 
L 184.625115 164.117783 
L 186.578125 164.330495 
L 188.531123 164.521687 
L 190.484121 164.693235 
L 192.437131 164.846883 
L 194.390118 164.984255 
L 196.343127 165.106861 
L 198.296137 165.216096 
L 200.249124 165.313244 
L 202.202133 165.399496 
L 204.15512 165.475938 
L 206.10813 165.543568 
L 208.061128 165.603299 
L 210.014126 165.65596 
L 211.967124 165.702309 
L 213.920122 165.743031 
L 215.87312 165.778749 
L 217.82613 165.810022 
L 219.779117 165.837357 
L 221.732126 165.861209 
L 223.685113 165.881986 
L 225.638123 165.900053 
L 227.591132 165.915737 
L 229.544119 165.929329 
L 231.497129 165.941088 
L 233.450115 165.951244 
L 235.403125 165.96 
" style="fill: none; stroke: #4385be; stroke-width: 1.5; stroke-linecap: square"/>
   </g>
   <g id="line2d_14">
    <path d="M 40.103125 103.829699 
L 42.056125 100.475801 
L 44.009125 97.051414 
L 45.962125 93.564114 
L 47.915125 90.022127 
L 49.868125 86.434402 
L 51.821125 82.810507 
L 53.774125 79.160657 
L 55.727125 75.495626 
L 57.680126 71.826754 
L 59.633125 68.165852 
L 61.586125 64.525144 
L 63.539126 60.917269 
L 65.492127 57.35512 
L 67.445125 53.851822 
L 69.398126 50.420664 
L 71.351124 47.074989 
L 73.304125 43.828121 
L 75.257126 40.693285 
L 77.210125 37.683518 
L 79.163126 34.81154 
L 81.116127 32.089729 
L 83.069125 29.530003 
L 85.022123 27.143721 
L 86.975127 24.941603 
L 88.928125 22.933664 
L 90.881129 21.129145 
L 92.834127 19.536422 
L 94.787125 18.162931 
L 96.740129 17.015137 
L 98.693127 16.098494 
L 100.646125 15.417347 
L 102.599124 14.97496 
L 104.552122 14.773442 
L 106.505126 14.813767 
L 108.458124 15.095737 
L 110.411128 15.618008 
L 112.364126 16.378065 
L 114.317124 17.372303 
L 116.270128 18.595987 
L 118.223126 20.043322 
L 120.176124 21.707519 
L 122.129128 23.580824 
L 124.082126 25.654547 
L 126.035125 27.919213 
L 127.988123 30.364535 
L 129.941121 32.97957 
L 131.894131 35.752795 
L 133.847129 38.672094 
L 135.800127 41.724981 
L 137.753125 44.898618 
L 139.706123 48.179889 
L 141.659121 51.55554 
L 143.612119 55.012219 
L 145.565129 58.536622 
L 147.518127 62.115467 
L 149.471125 65.735702 
L 151.424124 69.384515 
L 153.377122 73.04942 
L 155.330132 76.71831 
L 157.28313 80.37951 
L 159.236128 84.021877 
L 161.189126 87.634818 
L 163.142124 91.20834 
L 165.095122 94.733035 
L 167.04812 98.200259 
L 169.001118 101.60195 
L 170.954117 104.930798 
L 172.907126 108.180218 
L 174.860113 111.344285 
L 176.813123 114.417871 
L 178.766121 117.396482 
L 180.719119 120.276366 
L 182.672129 123.054441 
L 184.625115 125.728251 
L 186.578125 128.296041 
L 188.531123 130.756579 
L 190.484121 133.109292 
L 192.437131 135.354084 
L 194.390118 137.491369 
L 196.343127 139.522083 
L 198.296137 141.447532 
L 200.249124 143.269426 
L 202.202133 144.989857 
L 204.15512 146.611181 
L 206.10813 148.136094 
L 208.061128 149.56747 
L 210.014126 150.908396 
L 211.967124 152.162157 
L 213.920122 153.332124 
L 215.87312 154.421814 
L 217.82613 155.434785 
L 219.779117 156.374636 
L 221.732126 157.245009 
L 223.685113 158.049509 
L 225.638123 158.791739 
L 227.591132 159.475233 
L 229.544119 160.103472 
L 231.497129 160.679858 
L 233.450115 161.207693 
L 235.403125 161.690188 
" style="fill: none; stroke: #ce5d97; stroke-width: 1.5; stroke-linecap: square"/>
   </g>
   <g id="line2d_15">
    <path d="M 40.103125 161.690188 
L 42.056125 161.207695 
L 44.009125 160.679858 
L 45.962125 160.103472 
L 47.915125 159.475232 
L 49.868125 158.791739 
L 51.821125 158.049513 
L 53.774125 157.245009 
L 55.727125 156.374636 
L 57.680126 155.434782 
L 59.633125 154.421814 
L 61.586125 153.332127 
L 63.539126 152.162157 
L 65.492127 150.908396 
L 67.445125 149.567462 
L 69.398126 148.136094 
L 71.351124 146.61119 
L 73.304125 144.989857 
L 75.257126 143.269426 
L 77.210125 141.447525 
L 79.163126 139.522083 
L 81.116127 137.491369 
L 83.069125 135.354084 
L 85.022123 133.109292 
L 86.975127 130.756588 
L 88.928125 128.296041 
L 90.881129 125.728251 
L 92.834127 123.054441 
L 94.787125 120.276375 
L 96.740129 117.396491 
L 98.693127 114.41788 
L 100.646125 111.344299 
L 102.599124 108.180218 
L 104.552122 104.930816 
L 106.505126 101.601959 
L 108.458124 98.200268 
L 110.411128 94.733049 
L 112.364126 91.20834 
L 114.317124 87.634836 
L 116.270128 84.021886 
L 118.223126 80.379519 
L 120.176124 76.718319 
L 122.129128 73.04942 
L 124.082126 69.384524 
L 126.035125 65.735711 
L 127.988123 62.115467 
L 129.941121 58.536631 
L 131.894131 55.012228 
L 133.847129 51.555549 
L 135.800127 48.179898 
L 137.753125 44.898627 
L 139.706123 41.72499 
L 141.659121 38.672103 
L 143.612119 35.752795 
L 145.565129 32.979579 
L 147.518127 30.364535 
L 149.471125 27.919213 
L 151.424124 25.654556 
L 153.377122 23.580833 
L 155.330132 21.707528 
L 157.28313 20.043331 
L 159.236128 18.595987 
L 161.189126 17.372303 
L 163.142124 16.378065 
L 165.095122 15.618008 
L 167.04812 15.095737 
L 169.001118 14.813767 
L 170.954117 14.773442 
L 172.907126 14.97496 
L 174.860113 15.417347 
L 176.813123 16.098494 
L 178.766121 17.015137 
L 180.719119 18.162922 
L 182.672129 19.536422 
L 184.625115 21.129145 
L 186.578125 22.933664 
L 188.531123 24.941594 
L 190.484121 27.143712 
L 192.437131 29.530003 
L 194.390118 32.08972 
L 196.343127 34.811531 
L 198.296137 37.683518 
L 200.249124 40.693276 
L 202.202133 43.828121 
L 204.15512 47.074962 
L 206.10813 50.420655 
L 208.061128 53.851822 
L 210.014126 57.355102 
L 211.967124 60.917269 
L 213.920122 64.525135 
L 215.87312 68.165834 
L 217.82613 71.826763 
L 219.779117 75.495617 
L 221.732126 79.160657 
L 223.685113 82.81048 
L 225.638123 86.434393 
L 227.591132 90.022136 
L 229.544119 93.564096 
L 231.497129 97.051414 
L 233.450115 100.475779 
L 235.403125 103.829685 
" style="fill: none; stroke: #da702c; stroke-width: 1.5; stroke-linecap: square"/>
   </g>
   <g id="line2d_16">
    <path d="M 40.103125 165.96 
L 42.056125 165.951244 
L 44.009125 165.941088 
L 45.962125 165.929329 
L 47.915125 165.915737 
L 49.868125 165.900053 
L 51.821125 165.881986 
L 53.774125 165.861209 
L 55.727125 165.837357 
L 57.680126 165.810022 
L 59.633125 165.778749 
L 61.586125 165.743031 
L 63.539126 165.702309 
L 65.492127 165.65596 
L 67.445125 165.603299 
L 69.398126 165.543568 
L 71.351124 165.475938 
L 73.304125 165.399496 
L 75.257126 165.313244 
L 77.210125 165.216096 
L 79.163126 165.106861 
L 81.116127 164.984255 
L 83.069125 164.846883 
L 85.022123 164.693235 
L 86.975127 164.521687 
L 88.928125 164.330495 
L 90.881129 164.117783 
L 92.834127 163.881554 
L 94.787125 163.619673 
L 96.740129 163.329875 
L 98.693127 163.009758 
L 100.646125 162.656786 
L 102.599124 162.268295 
L 104.552122 161.841476 
L 106.505126 161.373406 
L 108.458124 160.861036 
L 110.411128 160.301193 
L 112.364126 159.690616 
L 114.317124 159.02592 
L 116.270128 158.303662 
L 118.223126 157.520313 
L 120.176124 156.672301 
L 122.129128 155.756005 
L 124.082126 154.767813 
L 126.035125 153.704096 
L 127.988123 152.561277 
L 129.941121 151.335834 
L 131.894131 150.024326 
L 133.847129 148.623452 
L 135.800127 147.13006 
L 137.753125 145.541178 
L 139.706123 143.85406 
L 141.659121 142.066233 
L 143.612119 140.175515 
L 145.565129 138.180058 
L 147.518127 136.078414 
L 149.471125 133.86953 
L 151.424124 131.552819 
L 153.377122 129.12818 
L 155.330132 126.596027 
L 157.28313 123.95739 
L 159.236128 121.213844 
L 161.189126 118.36759 
L 163.142124 115.421485 
L 165.095122 112.379123 
L 167.04812 109.244657 
L 169.001118 106.023076 
L 170.954117 102.720007 
L 172.907126 99.341801 
L 174.860113 95.895596 
L 176.813123 92.389098 
L 178.766121 88.830852 
L 180.719119 85.229974 
L 182.672129 81.596252 
L 184.625115 77.940137 
L 186.578125 74.272527 
L 188.531123 70.604981 
L 190.484121 66.949434 
L 192.437131 63.318246 
L 194.390118 59.724182 
L 196.343127 56.180163 
L 198.296137 52.699412 
L 200.249124 49.295291 
L 202.202133 45.981061 
L 204.15512 42.770092 
L 206.10813 39.6755 
L 208.061128 36.71025 
L 210.014126 33.886991 
L 211.967124 31.21791 
L 213.920122 28.714772 
L 215.87312 26.388712 
L 217.82613 24.250233 
L 219.779117 22.309133 
L 221.732126 20.57432 
L 223.685113 19.053899 
L 225.638123 17.754964 
L 227.591132 16.683664 
L 229.544119 15.845093 
L 231.497129 15.243226 
L 233.450115 14.880958 
L 235.403125 14.76 
" style="fill: none; stroke: #8b7ec8; stroke-width: 1.5; stroke-linecap: square"/>
   </g>
   <g id="patch_3">
    <path d="M 30.103125 173.52 
L 30.103125 7.2 
" style="fill: none; stroke: #000000; stroke-width: 0.8; stroke-linejoin: miter; stroke-linecap: square"/>
   </g>
   <g id="patch_4">
    <path d="M 40.103125 183.52 
L 235.403125 183.52 
" style="fill: none; stroke: #000000; stroke-width: 0.8; stroke-linejoin: miter; stroke-linecap: square"/>
   </g>
  </g>
 </g>
</svg>
