<?xml version="1.0" encoding="UTF-8" standalone="no"?>
<!-- Created with Inkscape (http://www.inkscape.org/) -->

<svg
   width="615.00421mm"
   height="163.49725mm"
   viewBox="0 0 615.00421 163.49725"
   version="1.1"
   id="svg5"
   xml:space="preserve"
   inkscape:version="1.2.1 (9c6d41e, 2022-07-14)"
   sodipodi:docname="logo.svg"
   xmlns:inkscape="http://www.inkscape.org/namespaces/inkscape"
   xmlns:sodipodi="http://sodipodi.sourceforge.net/DTD/sodipodi-0.dtd"
   xmlns:xlink="http://www.w3.org/1999/xlink"
   xmlns="http://www.w3.org/2000/svg"
   xmlns:svg="http://www.w3.org/2000/svg"><sodipodi:namedview
     id="namedview7"
     pagecolor="#ffffff"
     bordercolor="#000000"
     borderopacity="0.25"
     inkscape:showpageshadow="2"
     inkscape:pageopacity="0.0"
     inkscape:pagecheckerboard="0"
     inkscape:deskcolor="#d1d1d1"
     inkscape:document-units="mm"
     showgrid="false"
     inkscape:zoom="0.37535598"
     inkscape:cx="1402.6685"
     inkscape:cy="423.59789"
     inkscape:window-width="1512"
     inkscape:window-height="916"
     inkscape:window-x="0"
     inkscape:window-y="38"
     inkscape:window-maximized="0"
     inkscape:current-layer="layer1" /><defs
     id="defs2"><linearGradient
       inkscape:collect="always"
       id="linearGradient1832"><stop
         style="stop-color:#717171;stop-opacity:1;"
         offset="0"
         id="stop1828" /><stop
         style="stop-color:#eeeeee;stop-opacity:1;"
         offset="1"
         id="stop1830" /></linearGradient><linearGradient
       inkscape:collect="always"
       id="linearGradient1341"><stop
         style="stop-color:#d1d1d1;stop-opacity:1;"
         offset="0"
         id="stop1337" /><stop
         style="stop-color:#b8b8b8;stop-opacity:1;"
         offset="1"
         id="stop1339" /></linearGradient><linearGradient
       inkscape:collect="always"
       xlink:href="#linearGradient1341"
       id="linearGradient1343"
       x1="55.645367"
       y1="88.510933"
       x2="77.972557"
       y2="88.510933"
       gradientUnits="userSpaceOnUse" /><linearGradient
       inkscape:collect="always"
       xlink:href="#linearGradient1832"
       id="linearGradient1834"
       x1="31.370493"
       y1="94.83049"
       x2="58.745358"
       y2="94.83049"
       gradientUnits="userSpaceOnUse" /></defs><g
     inkscape:label="Layer 1"
     inkscape:groupmode="layer"
     id="layer1"
     transform="translate(-3.6036637,-22.940577)"><g
       id="g1115"
       style="opacity:1;stroke:#cccccc;stroke-width:2.5;stroke-dasharray:none;stroke-opacity:1"><path
         style="opacity:1;fill:none;stroke:#cccccc;stroke-width:2.5;stroke-linecap:round;stroke-dasharray:none;stroke-opacity:1;paint-order:fill markers stroke"
         d="M 76.422562,75.246811 113.16417,62.607708 90.030966,100.52505"
         id="path1109"
         sodipodi:nodetypes="ccc" /></g><path
       style="opacity:1;fill:none;fill-opacity:0.388235;stroke:#cccccc;stroke-width:2.3;stroke-linecap:round;stroke-dasharray:none;stroke-opacity:1;paint-order:fill markers stroke"
       d="M 90.030966,100.52505 76.422561,75.246811 46.735327,58.492643 57.195362,101.77505 49.380729,131.68194"
       id="path3898"
       sodipodi:nodetypes="ccccc" /><path
       style="opacity:1;fill:none;fill-opacity:0.388235;stroke:#cccccc;stroke-width:1.8;stroke-linecap:round;stroke-dasharray:none;stroke-opacity:1;paint-order:fill markers stroke"
       d="m 90.030966,100.52505 -16.460243,25.27823 -24.189994,5.87866"
       id="path4435" /><path
       style="opacity:1;fill:none;fill-opacity:0.388235;stroke:#cccccc;stroke-width:1.8;stroke-linecap:round;stroke-dasharray:none;stroke-opacity:1;paint-order:fill markers stroke"
       d="m 85.50502,146.31908 -11.934297,-20.5158 44.884237,8.23012"
       id="path4437"
       sodipodi:nodetypes="ccc" /><path
       style="opacity:1;fill:none;stroke:#000000;stroke-width:6.2;stroke-linecap:round;stroke-dasharray:none;paint-order:fill markers stroke"
       d="M 113.16417,62.607708 94.352461,46.735327 46.735327,58.492643 l -13.81484,29.39329 16.460242,43.796007 36.124291,14.63714 32.94994,-12.28568 7.73992,-29.71332 -36.163914,-3.79503"
       id="path1107"
       sodipodi:nodetypes="ccccccccc" /><g
       aria-label="raph PES"
       id="text6784"
       style="font-size:114.537px;font-family:'CMU Sans Serif';-inkscape-font-specification:'CMU Sans Serif, Normal';text-align:center;text-anchor:middle;opacity:1;stroke-width:1.79999;stroke-linecap:round;paint-order:fill markers stroke"><path
         d="M 147.67074,145.7962 V 94.232182 h 7.99746 v 10.346358 q 1.39816,-2.18112 3.29965,-4.19447 1.95742,-2.013344 6.5993,-4.306321 4.64188,-2.292977 10.17858,-2.40483 v 7.661901 q -2.96409,0.11185 -5.98411,1.11852 -2.96409,0.95075 -6.26374,3.07595 -3.24373,2.1252 -5.25707,6.48745 -2.01335,4.36225 -2.01335,10.17858 v 23.60088 z"
         id="path466" /><path
         d="m 182.56873,132.87724 q 0,-4.2504 3.1878,-7.38227 3.24373,-3.1878 8.44487,-4.69781 5.20114,-1.56594 10.17858,-2.29298 4.97744,-0.78296 10.0108,-0.78296 v -3.85892 q -0.2237,-7.32634 -2.96409,-10.57006 -2.85224,-3.411505 -7.21449,-3.411505 -8.83635,0 -17.16936,5.816335 l -0.67112,-7.661902 q 8.61265,-5.033364 17.95233,-5.033364 7.88561,0 13.1986,5.201143 5.36893,5.201143 5.81634,12.639333 v 34.95392 h -8.66858 v -4.02669 q -0.44741,0.44741 -2.12519,1.51001 -1.67779,1.00667 -6.48745,2.40483 -4.80966,1.39816 -10.40229,1.39816 -6.54337,0 -9.84302,-4.64188 -3.24373,-4.64188 -3.24373,-9.56339 z m 8.38894,-0.11186 q 0,3.07595 3.02002,5.14522 3.02002,2.06927 7.60598,2.06927 4.92151,0 8.83635,-2.06927 3.97076,-2.06927 3.97076,-6.99078 v -7.21449 q -3.52335,0 -7.21449,0.44741 -3.6352,0.44741 -7.55004,1.39815 -3.85892,0.89482 -6.26375,2.79632 -2.40483,1.90149 -2.40483,4.41817 z"
         id="path468" /><path
         d="M 241.79466,168.11079 V 94.847371 h 8.55672 V 100.44 q 8.38894,-6.767081 19.01493,-6.767081 7.8856,0 12.9749,7.941531 5.14521,7.8856 5.14521,18.5116 0,11.80044 -6.37559,19.40641 -6.31967,7.55005 -14.93232,7.55005 -8.50079,0 -15.43565,-6.54338 v 27.57166 z m 8.9482,-36.74356 q 0,2.51668 3.24373,5.64855 3.24372,3.07594 7.82967,3.07594 6.43153,0 11.52082,-5.48077 5.08929,-5.5367 5.08929,-14.2612 0,-7.77375 -4.36225,-13.53416 -4.30633,-5.81633 -11.18526,-5.81633 -1.2863,0 -2.46075,0.16778 -1.11853,0.16778 -2.1252,0.61519 -0.95075,0.39148 -1.78964,0.78297 -0.8389,0.39148 -1.62186,0.89482 -0.72704,0.50333 -1.28631,1.00667 -0.55926,0.44741 -1.11852,1.00667 -0.50334,0.55927 -0.78297,0.95075 -0.27963,0.33556 -0.61519,0.67111 l -0.33556,0.44741 z"
         id="path470" /><path
         d="M 300.8528,145.7962 V 63.081249 h 8.55672 v 38.756901 q 6.87894,-8.109304 16.49825,-8.165231 4.36225,0 7.4382,1.398157 3.13187,1.342231 4.64188,3.243724 1.56593,1.90149 2.40483,4.80966 0.89482,2.90817 1.0626,4.92151 0.16778,2.01335 0.16778,4.75373 v 32.9965 h -8.94821 v -32.1576 q 0,-1.95742 -0.0559,-3.07595 -0.0559,-1.17445 -0.67112,-3.29965 -0.61519,-2.1252 -1.73371,-3.35557 -1.0626,-1.28631 -3.29965,-2.23705 -2.23705,-1.00668 -5.48078,-1.00668 -6.09596,0 -8.89227,5.14522 -2.74039,5.14522 -2.74039,12.47156 v 27.51572 z"
         id="path472" /><path
         d="M 399.84229,145.7962 V 66.324973 h 27.01239 q 10.51413,0 17.61677,4.474101 5.25707,3.29965 8.16524,8.10931 2.96409,4.809659 2.96409,10.402286 0,8.948203 -7.38227,16.21862 -7.38227,7.27041 -20.91642,7.27041 -0.55927,0 -1.84557,-0.0559 -1.23038,-0.0559 -1.95742,-0.0559 h -13.36638 v 33.10835 z m 9.95487,-39.76357 h 15.21195 q 5.92818,0 10.40229,-1.56594 4.4741,-1.62186 6.65522,-4.30632 2.18113,-2.684464 3.1878,-5.368925 1.0626,-2.740388 1.0626,-5.480775 0,-2.516682 -0.95075,-5.089291 -0.89482,-2.572608 -3.02002,-5.312995 -2.06927,-2.740388 -6.54337,-4.474102 -4.4741,-1.733714 -10.79377,-1.733714 h -15.21195 z"
         id="path474" /><path
         d="M 472.88202,145.7962 V 66.66053 h 51.17253 v 7.550047 h -6.54337 l -2.85224,-0.111853 h -27.4598 l -4.02669,-0.111852 v 27.124238 h 37.80616 v 6.99079 h -37.80616 v 29.69685 h 9.73117 l 2.74039,-0.11186 h 22.20273 l 2.51668,-0.11185 h 5.313 v 8.22116 z"
         id="path476" /><path
         d="m 535.4635,140.42728 1.73371,-9.50746 q 12.02415,9.50746 24.49571,9.50746 7.43819,0 12.08007,-4.58595 4.64188,-4.58596 4.64188,-10.57007 0,-4.4741 -2.68446,-8.16523 -2.68446,-3.74706 -7.15856,-5.5367 -0.2237,-0.11186 -14.20527,-3.80299 -6.99079,-1.84557 -12.30378,-7.49412 -5.313,-5.648554 -5.313,-13.925642 0,-8.836351 7.15856,-15.659356 7.15857,-6.878931 18.67938,-6.878931 10.79377,0 20.97235,5.480774 l -1.56593,9.507466 q -4.80966,-3.691134 -8.94821,-5.480774 -4.13854,-1.845567 -10.57006,-1.845567 -7.4382,0 -12.02415,4.082618 -4.58596,4.026691 -4.58596,9.451539 0,4.026692 2.57261,7.326342 2.62854,3.29965 6.5993,4.921512 1.62186,0.671115 8.33302,2.292977 6.71115,1.565932 8.89227,2.516682 6.31967,2.62853 10.79377,8.44487 4.53003,5.7604 4.53003,13.64601 0,9.73117 -7.27041,16.94566 -7.27042,7.21449 -18.62345,7.21449 -13.75786,0 -26.22942,-7.88561 z"
         id="path478" /></g><path
       style="fill:#999999;stroke:url(#linearGradient1343);stroke-width:3.09999;stroke-linecap:round;paint-order:fill markers stroke"
       d="M 57.195362,101.77505 76.422561,75.24681"
       id="path649" /><path
       style="fill:#999999;stroke:#b3b3b3;stroke-width:3.09999;stroke-linecap:round;paint-order:fill markers stroke"
       d="m 57.195362,101.77505 16.375361,24.02823"
       id="path651" /><path
       style="fill:#000000;fill-opacity:1;stroke:url(#linearGradient1834);stroke-width:3.09999;stroke-linecap:round;paint-order:fill markers stroke"
       d="M 32.920487,87.885931 57.195362,101.77505"
       id="path653" /><g
       id="g4379"
       style="opacity:1"><circle
         style="fill:#000000;stroke:none;stroke-width:0.3;stroke-linecap:round;paint-order:fill markers stroke"
         id="path349"
         cx="46.735329"
         cy="58.492645"
         r="8.2301216" /><circle
         style="fill:#000000;stroke:none;stroke-width:0.3;stroke-linecap:round;paint-order:fill markers stroke"
         id="path349-9"
         cx="94.352463"
         cy="46.735329"
         r="6.1725912" /><circle
         style="fill:#000000;stroke:none;stroke-width:0.3;stroke-linecap:round;paint-order:fill markers stroke"
         id="path349-8"
         cx="113.16417"
         cy="62.607708"
         r="8.2301216" /><circle
         style="fill:#000000;stroke:none;stroke-width:0.3;stroke-linecap:round;paint-order:fill markers stroke"
         id="path349-6"
         cx="126.19488"
         cy="104.32008"
         r="12.05125" /><circle
         style="fill:#000000;stroke:none;stroke-width:0.3;stroke-linecap:round;paint-order:fill markers stroke"
         id="path349-5"
         cx="118.45496"
         cy="134.0334"
         r="6.7604561" /><circle
         style="fill:#000000;stroke:none;stroke-width:0.3;stroke-linecap:round;paint-order:fill markers stroke"
         id="path349-7"
         cx="85.50502"
         cy="146.31908"
         r="7.3483229" /><circle
         style="fill:#000000;stroke:none;stroke-width:0.3;stroke-linecap:round;paint-order:fill markers stroke"
         id="path349-62"
         cx="49.380726"
         cy="131.68195"
         r="11.169451" /><circle
         style="fill:#000000;stroke:none;stroke-width:0.3;stroke-linecap:round;paint-order:fill markers stroke"
         id="path349-70"
         cx="32.920486"
         cy="87.885933"
         r="6.760457" /><circle
         style="fill:#999999;fill-opacity:1;stroke:none;stroke-width:0.3;stroke-linecap:round;paint-order:fill markers stroke"
         id="path349-3"
         cx="76.422562"
         cy="75.246811"
         r="6.4665241" /><circle
         style="fill:#b3b3b3;fill-opacity:1;stroke:none;stroke-width:0.300001;stroke-linecap:round;paint-order:fill markers stroke"
         id="path349-3-5"
         cx="57.195362"
         cy="101.77505"
         r="4.8769741" /><circle
         style="fill:#999999;fill-opacity:1;stroke:none;stroke-width:0.3;stroke-linecap:round;paint-order:fill markers stroke"
         id="path349-99"
         cx="73.570724"
         cy="125.80328"
         r="7.05439" /><circle
         style="fill:#000000;stroke:none;stroke-width:0.3;stroke-linecap:round;paint-order:fill markers stroke"
         id="path349-91"
         cx="90.030968"
         cy="100.52505"
         r="7.1584797" /></g></g></svg>
