<?xml version="1.0" encoding="UTF-8" standalone="no"?>
<!-- Created with Inkscape (http://www.inkscape.org/) -->

<svg
   width="615.00421mm"
   height="163.49725mm"
   viewBox="0 0 615.00421 163.49725"
   version="1.1"
   id="svg5"
   xml:space="preserve"
   inkscape:version="1.2.1 (9c6d41e, 2022-07-14)"
   sodipodi:docname="logo-text.svg"
   xmlns:inkscape="http://www.inkscape.org/namespaces/inkscape"
   xmlns:sodipodi="http://sodipodi.sourceforge.net/DTD/sodipodi-0.dtd"
   xmlns="http://www.w3.org/2000/svg"
   xmlns:svg="http://www.w3.org/2000/svg"><sodipodi:namedview
     id="namedview7"
     pagecolor="#ffffff"
     bordercolor="#000000"
     borderopacity="0.25"
     inkscape:showpageshadow="2"
     inkscape:pageopacity="0.0"
     inkscape:pagecheckerboard="0"
     inkscape:deskcolor="#d1d1d1"
     inkscape:document-units="mm"
     showgrid="false"
     inkscape:zoom="0.30392823"
     inkscape:cx="1298.0038"
     inkscape:cy="-6.580501"
     inkscape:window-width="1512"
     inkscape:window-height="916"
     inkscape:window-x="244"
     inkscape:window-y="25"
     inkscape:window-maximized="0"
     inkscape:current-layer="layer1" /><defs
     id="defs2" /><g
     inkscape:label="Layer 1"
     inkscape:groupmode="layer"
     id="layer1"
     transform="translate(-3.6036637,-22.940577)"><g
       id="g3740"
       style="stroke:#ffaaaa"><path
         style="fill:none;stroke:#ffaaaa;stroke-width:2.5;stroke-linecap:round;stroke-dasharray:none;stroke-opacity:1;paint-order:fill markers stroke"
         d="M 76.422562,75.246811 113.16417,62.607708 90.030966,100.52505"
         id="path1109"
         sodipodi:nodetypes="ccc" /><path
         style="fill:none;fill-opacity:0.388235;stroke:#ffaaaa;stroke-width:2.3;stroke-linecap:round;stroke-dasharray:none;stroke-opacity:1;paint-order:fill markers stroke"
         d="M 90.030966,100.52505 76.422561,75.246811 46.735327,58.492643 57.195362,101.77505 49.380729,131.68194"
         id="path3898"
         sodipodi:nodetypes="ccccc" /><path
         style="fill:none;fill-opacity:0.388235;stroke:#ffaaaa;stroke-width:1.8;stroke-linecap:round;stroke-dasharray:none;stroke-opacity:1;paint-order:fill markers stroke"
         d="m 90.030966,100.52505 -16.460243,25.27823 -24.189994,5.87866"
         id="path4435" /><path
         style="fill:none;fill-opacity:0.388235;stroke:#ffaaaa;stroke-width:1.8;stroke-linecap:round;stroke-dasharray:none;stroke-opacity:1;paint-order:fill markers stroke"
         d="m 85.50502,146.31908 -11.934297,-20.5158 44.884237,8.23012"
         id="path4437"
         sodipodi:nodetypes="ccc" /><path
         style="fill:#999999;stroke:#ffaaaa;stroke-width:3.09999;stroke-linecap:round;paint-order:fill markers stroke"
         d="M 57.195362,101.77505 76.422561,75.24681"
         id="path649" /><path
         style="fill:#999999;stroke:#ffaaaa;stroke-width:3.09999;stroke-linecap:round;paint-order:fill markers stroke"
         d="m 57.195362,101.77505 16.375361,24.02823"
         id="path651" /><path
         style="fill:#000000;fill-opacity:1;stroke:#ffaaaa;stroke-width:3.09999;stroke-linecap:round;paint-order:fill markers stroke"
         d="M 32.920487,87.885931 57.195362,101.77505"
         id="path653" /></g><path
       id="path3596"
       style="color:#000000;fill:#000000;stroke:#ffffff;stroke-width:4.5;stroke-linecap:round;stroke-dasharray:none;paint-order:fill markers stroke"
       d="m 94.3524,40.562776 a 6.1725912,6.1725912 0 0 0 -5.922114,4.44262 l -35.036105,8.65116 a 8.2301216,8.2301216 0 0 0 -6.659025,-3.39411 8.2301216,8.2301216 0 0 0 -8.229988,8.22999 8.2301216,8.2301216 0 0 0 2.182812,5.58157 l -8.019149,17.06097 a 6.760457,6.760457 0 0 0 -6.508646,6.75101 6.760457,6.760457 0 0 0 5.970695,6.70967 l 10.576098,28.139374 a 11.169451,11.169451 0 0 0 -4.495849,8.94674 11.169451,11.169451 0 0 0 11.169344,11.16986 11.169451,11.169451 0 0 0 8.779309,-4.26796 l 20.010665,8.10803 a 7.3483229,7.3483229 0 0 0 7.334436,6.97581 7.3483229,7.3483229 0 0 0 7.324617,-6.77168 l 21.0814,-7.85999 a 6.7604561,6.7604561 0 0 0 4.54391,1.75803 6.7604561,6.7604561 0 0 0 6.76083,-6.76031 6.7604561,6.7604561 0 0 0 -2.24689,-5.02863 l 3.29127,-12.63592 A 12.05125,12.05125 0 0 0 138.24637,104.32013 12.05125,12.05125 0 0 0 126.19491,92.268666 12.05125,12.05125 0 0 0 114.9403,100.02117 L 96.77086,98.114306 a 7.1584797,7.1584797 0 0 0 -6.740155,-4.74752 7.1584797,7.1584797 0 0 0 -7.15822,7.158224 7.1584797,7.1584797 0 0 0 7.15822,7.15874 7.1584797,7.1584797 0 0 0 6.093685,-3.40289 l 18.16737,1.90686 a 12.05125,12.05125 0 0 0 5.96914,8.61756 l -3.29127,12.63334 a 6.7604561,6.7604561 0 0 0 -5.2219,5.78672 l -21.083472,7.86154 a 7.3483229,7.3483229 0 0 0 -5.159375,-2.11615 7.3483229,7.3483229 0 0 0 -5.010547,1.97404 l -20.011698,-8.10855 a 11.169451,11.169451 0 0 0 0.0677,-1.15445 11.169451,11.169451 0 0 0 -11.169861,-11.16935 11.169451,11.169451 0 0 0 -0.871781,0.0357 L 37.935693,92.415426 a 6.760457,6.760457 0 0 0 1.745114,-4.52944 6.760457,6.760457 0 0 0 -1.399398,-4.11758 l 8.018632,-17.06201 a 8.2301216,8.2301216 0 0 0 0.435115,0.01654 8.2301216,8.2301216 0 0 0 8.143689,-7.04763 l 35.039205,-8.65115 a 6.1725912,6.1725912 0 0 0 4.43435,1.8836 6.1725912,6.1725912 0 0 0 2.07585,-0.3638 l 8.91263,7.51944 a 8.2301216,8.2301216 0 0 0 -0.40669,2.54455 8.2301216,8.2301216 0 0 0 8.22999,8.22999 8.2301216,8.2301216 0 0 0 8.22999,-8.22999 8.2301216,8.2301216 0 0 0 -8.22999,-8.23051 8.2301216,8.2301216 0 0 0 -3.82354,0.94878 l -8.91315,-7.51995 a 6.1725912,6.1725912 0 0 0 0.0977,-1.07074 6.1725912,6.1725912 0 0 0 -6.17275,-6.17275 z m 206.50058,22.51852 v 82.714854 h 8.94829 v -27.51563 c 0,-4.88422 0.91348,-9.04145 2.7404,-12.47159 1.86421,-3.43015 4.828,-5.14542 8.89196,-5.14542 2.16249,0 3.98944,0.33553 5.48081,1.00665 1.49136,0.63383 2.59114,1.37954 3.29954,2.23707 0.74568,0.82025 1.32362,1.93907 1.73374,3.35587 0.41015,1.4168 0.63401,2.51658 0.67128,3.29954 0.0373,0.74569 0.0558,1.77084 0.0558,3.07578 v 32.15773 h 8.94829 v -32.99643 c 0,-1.82692 -0.0561,-3.41149 -0.16795,-4.75372 -0.11185,-1.34222 -0.46592,-2.98288 -1.06247,-4.92166 -0.55926,-1.93878 -1.36106,-3.541873 -2.40502,-4.809534 -1.00667,-1.26766 -2.55366,-2.34891 -4.64157,-3.243729 -2.05064,-0.932101 -4.53015,-1.398361 -7.43831,-1.398361 -6.41287,0.03728 -11.91226,2.7592 -16.49822,8.165394 V 63.081296 Z m 261.73493,0.72709 c -7.68054,0 -13.90711,2.2927 -18.67948,6.87865 -4.77237,4.54867 -7.15874,9.76862 -7.15874,15.65951 0,5.518051 1.77086,10.160071 5.31285,13.925764 3.54199,3.7657 7.64364,6.26374 12.30416,7.49412 9.32104,2.46075 14.0562,3.7283 14.20534,3.80287 2.98273,1.19309 5.36858,3.03858 7.15822,5.53661 1.78964,2.46075 2.68459,5.18267 2.68459,8.1654 0,3.9894 -1.54751,7.51259 -4.6421,10.56989 -3.09458,3.0573 -7.12109,4.58629 -12.07988,4.58629 -8.31436,0 -16.47957,-3.16913 -24.49566,-9.50743 l -1.73375,9.50743 c 8.31437,5.25706 17.05751,7.8853 26.22941,7.8853 7.56868,0 13.77673,-2.40489 18.62367,-7.21454 4.84694,-4.80966 7.27036,-10.4583 7.27036,-16.94574 0,-5.25707 -1.50994,-9.80542 -4.52996,-13.64568 -2.98273,-3.87755 -6.58106,-6.69261 -10.79417,-8.44496 -1.45408,-0.63383 -4.41787,-1.47269 -8.89197,-2.516644 -4.4741,-1.08124 -7.2521,-1.84547 -8.33334,-2.29289 -2.64717,-1.081229 -4.84672,-2.72189 -6.59908,-4.92166 -1.71507,-2.19976 -2.57245,-4.64171 -2.57245,-7.32617 0,-3.61656 1.52846,-6.76716 4.58577,-9.45162 3.05729,-2.72174 7.06527,-4.08243 12.02407,-4.08243 4.28767,0 7.81139,0.61498 10.57041,1.84536 2.75903,1.19309 5.74134,3.02005 8.94778,5.4808 l 1.56631,-9.50743 c -6.78571,-3.65385 -13.77652,-5.4808 -20.97236,-5.4808 z m -162.74562,2.51664 v 79.471124 h 10.29032 v -33.10806 h 13.36663 c 0.48469,0 1.13725,0.0185 1.9575,0.0558 0.85753,0.0373 1.47252,0.0558 1.84537,0.0558 9.02276,0 15.99504,-2.42343 20.91655,-7.27036 4.92151,-4.84694 7.38198,-10.253194 7.38198,-16.218654 0,-3.72842 -0.9881,-7.19603 -2.96416,-10.40247 -1.93878,-3.20643 -4.66017,-5.9093 -8.16488,-8.10906 -4.73509,-2.98273 -10.6076,-4.47415 -17.61701,-4.47415 z m 73.03998,0.33538 v 79.135744 h 52.79419 v -8.2212 h -5.31285 l -2.51664,0.11214 h -22.20278 l -2.7404,0.11162 h -9.73119 v -29.6969 h 37.80596 v -6.99079 H 483.1726 V 73.987096 l 4.02663,0.11162 h 27.45982 l 2.85202,0.11162 h 6.54327 v -7.54993 z m -63.08504,6.03994 h 15.21199 c 4.21311,0 7.81093,0.57794 10.79366,1.73375 2.98273,1.15581 5.16376,2.64723 6.54327,4.47414 1.4168,1.82693 2.42343,3.5983 3.01997,5.31337 0.63383,1.71508 0.95085,3.41131 0.95085,5.0891 0,1.82692 -0.35407,3.65388 -1.06247,5.4808 -0.67111,1.78965 -1.73383,3.57903 -3.18792,5.368674 -1.45408,1.78964 -3.67268,3.22547 -6.65541,4.30671 -2.98273,1.04396 -6.44983,1.5658 -10.40195,1.5658 H 409.79723 Z M 204.32399,93.001957 c -6.22645,0 -12.21063,1.677709 -17.9524,5.033279 l 0.67128,7.662074 c 5.55534,-3.87755 11.2786,-5.816704 17.1695,-5.816704 2.90816,0 5.31305,1.137344 7.21454,3.411684 1.82693,2.16247 2.81451,5.68567 2.96365,10.56989 v 3.8592 c -3.35557,0 -6.69247,0.26092 -10.01076,0.7829 -3.31829,0.48469 -6.71077,1.24892 -10.17819,2.29288 -3.46743,1.00667 -6.28248,2.57271 -8.44497,4.6979 -2.12519,2.08792 -3.18791,4.54839 -3.18791,7.38198 0,3.28101 1.08124,6.46918 3.24373,9.56376 2.19976,3.09458 5.48056,4.64158 9.84281,4.64158 3.72841,0 7.19602,-0.46574 10.40246,-1.39785 3.20644,-0.93211 5.36893,-1.73391 6.48746,-2.40502 1.11852,-0.7084 1.82718,-1.21171 2.12545,-1.50999 v 4.02663 h 8.66821 v -34.95394 c -0.29828,-4.95879 -2.2369,-9.1716 -5.81619,-12.639024 -3.54199,-3.46743 -7.94161,-5.201229 -13.19867,-5.201229 z m -28.5781,0.670759 c -3.69113,0.07456 -7.08413,0.87637 -10.17871,2.40502 -3.09458,1.52865 -5.29414,2.96397 -6.59908,4.306204 -1.26766,1.34223 -2.36795,2.74049 -3.30006,4.19457 V 94.232366 h -7.99744 v 51.563784 h 8.5571 v -23.60063 c 0,-3.87755 0.67108,-7.27054 2.01331,-10.1787 1.34223,-2.90817 3.09456,-5.07066 5.25705,-6.48746 2.19976,-1.4168 4.28764,-2.44195 6.2637,-3.07578 2.01334,-0.67112 4.00807,-1.04423 5.98413,-1.1188 z m 93.62064,0 c -7.08399,0 -13.42276,2.25616 -19.01538,6.767544 v -5.592944 h -8.55658 v 73.263234 h 8.94829 v -27.57144 c 4.62323,4.36225 9.76856,6.54327 15.43575,6.54327 5.74176,0 10.71931,-2.51657 14.93242,-7.54993 4.25039,-5.07064 6.37532,-11.53961 6.37532,-19.40657 0,-7.08399 -1.71477,-13.25447 -5.1449,-18.51153 -3.39287,-5.294353 -7.71786,-7.941634 -12.97492,-7.941634 z m -6.48746,7.326684 c 4.58595,0 8.31396,1.93864 11.18485,5.81618 2.90816,3.84027 4.36252,8.35157 4.36252,13.53406 0,5.81633 -1.69675,10.57002 -5.08961,14.26115 -3.39286,3.65384 -7.23306,5.4808 -11.52075,5.4808 -3.05729,0 -5.66701,-1.02516 -7.82949,-3.07578 -2.16249,-2.08791 -3.24373,-3.97097 -3.24373,-5.64875 v -23.82439 l 0.33538,-0.44752 c 0.22371,-0.2237 0.42905,-0.44757 0.61547,-0.67127 0.18642,-0.26099 0.44733,-0.57749 0.78289,-0.95033 0.37284,-0.37284 0.74544,-0.70839 1.11828,-1.00666 0.37285,-0.33556 0.80205,-0.6711 1.28674,-1.00666 0.52198,-0.33556 1.06234,-0.63405 1.62161,-0.89503 0.55926,-0.261 1.15572,-0.52191 1.78956,-0.7829 0.67111,-0.29827 1.37976,-0.50361 2.12545,-0.61547 0.78296,-0.11185 1.6033,-0.16743 2.46083,-0.16743 z m -48.48851,22.70611 v 7.21455 c 0,3.281 -1.32313,5.61127 -3.9703,6.99078 -2.6099,1.37952 -5.55567,2.06913 -8.83667,2.06913 -3.05731,0 -5.5924,-0.68961 -7.60574,-2.06913 -2.01335,-1.37951 -3.01997,-3.09479 -3.01997,-5.14542 0,-1.67778 0.80128,-3.15067 2.4045,-4.41833 1.60322,-1.26767 3.69109,-2.19967 6.2637,-2.79621 2.60989,-0.63383 5.12698,-1.1001 7.55045,-1.39837 2.46075,-0.29827 4.86513,-0.447 7.21403,-0.447 z"
       inkscape:label="outline" /><path
       style="fill:none;stroke:#000000;stroke-width:6.2;stroke-linecap:round;stroke-dasharray:none;paint-order:fill markers stroke"
       d="M 113.16417,62.607708 94.352461,46.735327 46.735327,58.492643 l -13.81484,29.39329 16.460242,43.796007 36.124291,14.63714 32.94994,-12.28568 7.73992,-29.71332 -36.163914,-3.79503"
       id="path1107"
       sodipodi:nodetypes="ccccccccc" /><g
       aria-label="raph PES"
       id="text6784"
       style="font-size:114.537px;font-family:'CMU Sans Serif';-inkscape-font-specification:'CMU Sans Serif, Normal';text-align:center;text-anchor:middle;stroke-width:1.79999;stroke-linecap:round;paint-order:fill markers stroke"><path
         d="M 147.67074,145.7962 V 94.232182 h 7.99746 v 10.346358 q 1.39816,-2.18112 3.29965,-4.19447 1.95742,-2.013344 6.5993,-4.306321 4.64188,-2.292977 10.17858,-2.40483 v 7.661901 q -2.96409,0.11185 -5.98411,1.11852 -2.96409,0.95075 -6.26374,3.07595 -3.24373,2.1252 -5.25707,6.48745 -2.01335,4.36225 -2.01335,10.17858 v 23.60088 z"
         id="path466" /><path
         d="m 182.56873,132.87724 q 0,-4.2504 3.1878,-7.38227 3.24373,-3.1878 8.44487,-4.69781 5.20114,-1.56594 10.17858,-2.29298 4.97744,-0.78296 10.0108,-0.78296 v -3.85892 q -0.2237,-7.32634 -2.96409,-10.57006 -2.85224,-3.411505 -7.21449,-3.411505 -8.83635,0 -17.16936,5.816335 l -0.67112,-7.661902 q 8.61265,-5.033364 17.95233,-5.033364 7.88561,0 13.1986,5.201143 5.36893,5.201143 5.81634,12.639333 v 34.95392 h -8.66858 v -4.02669 q -0.44741,0.44741 -2.12519,1.51001 -1.67779,1.00667 -6.48745,2.40483 -4.80966,1.39816 -10.40229,1.39816 -6.54337,0 -9.84302,-4.64188 -3.24373,-4.64188 -3.24373,-9.56339 z m 8.38894,-0.11186 q 0,3.07595 3.02002,5.14522 3.02002,2.06927 7.60598,2.06927 4.92151,0 8.83635,-2.06927 3.97076,-2.06927 3.97076,-6.99078 v -7.21449 q -3.52335,0 -7.21449,0.44741 -3.6352,0.44741 -7.55004,1.39815 -3.85892,0.89482 -6.26375,2.79632 -2.40483,1.90149 -2.40483,4.41817 z"
         id="path468" /><path
         d="M 241.79466,168.11079 V 94.847371 h 8.55672 V 100.44 q 8.38894,-6.767081 19.01493,-6.767081 7.8856,0 12.9749,7.941531 5.14521,7.8856 5.14521,18.5116 0,11.80044 -6.37559,19.40641 -6.31967,7.55005 -14.93232,7.55005 -8.50079,0 -15.43565,-6.54338 v 27.57166 z m 8.9482,-36.74356 q 0,2.51668 3.24373,5.64855 3.24372,3.07594 7.82967,3.07594 6.43153,0 11.52082,-5.48077 5.08929,-5.5367 5.08929,-14.2612 0,-7.77375 -4.36225,-13.53416 -4.30633,-5.81633 -11.18526,-5.81633 -1.2863,0 -2.46075,0.16778 -1.11853,0.16778 -2.1252,0.61519 -0.95075,0.39148 -1.78964,0.78297 -0.8389,0.39148 -1.62186,0.89482 -0.72704,0.50333 -1.28631,1.00667 -0.55926,0.44741 -1.11852,1.00667 -0.50334,0.55927 -0.78297,0.95075 -0.27963,0.33556 -0.61519,0.67111 l -0.33556,0.44741 z"
         id="path470" /><path
         d="M 300.8528,145.7962 V 63.081249 h 8.55672 v 38.756901 q 6.87894,-8.109304 16.49825,-8.165231 4.36225,0 7.4382,1.398157 3.13187,1.342231 4.64188,3.243724 1.56593,1.90149 2.40483,4.80966 0.89482,2.90817 1.0626,4.92151 0.16778,2.01335 0.16778,4.75373 v 32.9965 h -8.94821 v -32.1576 q 0,-1.95742 -0.0559,-3.07595 -0.0559,-1.17445 -0.67112,-3.29965 -0.61519,-2.1252 -1.73371,-3.35557 -1.0626,-1.28631 -3.29965,-2.23705 -2.23705,-1.00668 -5.48078,-1.00668 -6.09596,0 -8.89227,5.14522 -2.74039,5.14522 -2.74039,12.47156 v 27.51572 z"
         id="path472" /><path
         d="M 399.84229,145.7962 V 66.324973 h 27.01239 q 10.51413,0 17.61677,4.474101 5.25707,3.29965 8.16524,8.10931 2.96409,4.809659 2.96409,10.402286 0,8.948203 -7.38227,16.21862 -7.38227,7.27041 -20.91642,7.27041 -0.55927,0 -1.84557,-0.0559 -1.23038,-0.0559 -1.95742,-0.0559 h -13.36638 v 33.10835 z m 9.95487,-39.76357 h 15.21195 q 5.92818,0 10.40229,-1.56594 4.4741,-1.62186 6.65522,-4.30632 2.18113,-2.684464 3.1878,-5.368925 1.0626,-2.740388 1.0626,-5.480775 0,-2.516682 -0.95075,-5.089291 -0.89482,-2.572608 -3.02002,-5.312995 -2.06927,-2.740388 -6.54337,-4.474102 -4.4741,-1.733714 -10.79377,-1.733714 h -15.21195 z"
         id="path474" /><path
         d="M 472.88202,145.7962 V 66.66053 h 51.17253 v 7.550047 h -6.54337 l -2.85224,-0.111853 h -27.4598 l -4.02669,-0.111852 v 27.124238 h 37.80616 v 6.99079 h -37.80616 v 29.69685 h 9.73117 l 2.74039,-0.11186 h 22.20273 l 2.51668,-0.11185 h 5.313 v 8.22116 z"
         id="path476" /><path
         d="m 535.4635,140.42728 1.73371,-9.50746 q 12.02415,9.50746 24.49571,9.50746 7.43819,0 12.08007,-4.58595 4.64188,-4.58596 4.64188,-10.57007 0,-4.4741 -2.68446,-8.16523 -2.68446,-3.74706 -7.15856,-5.5367 -0.2237,-0.11186 -14.20527,-3.80299 -6.99079,-1.84557 -12.30378,-7.49412 -5.313,-5.648554 -5.313,-13.925642 0,-8.836351 7.15856,-15.659356 7.15857,-6.878931 18.67938,-6.878931 10.79377,0 20.97235,5.480774 l -1.56593,9.507466 q -4.80966,-3.691134 -8.94821,-5.480774 -4.13854,-1.845567 -10.57006,-1.845567 -7.4382,0 -12.02415,4.082618 -4.58596,4.026691 -4.58596,9.451539 0,4.026692 2.57261,7.326342 2.62854,3.29965 6.5993,4.921512 1.62186,0.671115 8.33302,2.292977 6.71115,1.565932 8.89227,2.516682 6.31967,2.62853 10.79377,8.44487 4.53003,5.7604 4.53003,13.64601 0,9.73117 -7.27041,16.94566 -7.27042,7.21449 -18.62345,7.21449 -13.75786,0 -26.22942,-7.88561 z"
         id="path478" /></g><g
       id="g4379"><circle
         style="fill:#000000;stroke:none;stroke-width:0.3;stroke-linecap:round;paint-order:fill markers stroke"
         id="path349"
         cx="46.735329"
         cy="58.492645"
         r="8.2301216" /><circle
         style="fill:#000000;stroke:none;stroke-width:0.3;stroke-linecap:round;paint-order:fill markers stroke"
         id="path349-9"
         cx="94.352463"
         cy="46.735329"
         r="6.1725912" /><circle
         style="fill:#000000;stroke:none;stroke-width:0.3;stroke-linecap:round;paint-order:fill markers stroke"
         id="path349-8"
         cx="113.16417"
         cy="62.607708"
         r="8.2301216" /><circle
         style="fill:#000000;stroke:none;stroke-width:0.3;stroke-linecap:round;paint-order:fill markers stroke"
         id="path349-6"
         cx="126.19488"
         cy="104.32008"
         r="12.05125" /><circle
         style="fill:#000000;stroke:none;stroke-width:0.3;stroke-linecap:round;paint-order:fill markers stroke"
         id="path349-5"
         cx="118.45496"
         cy="134.0334"
         r="6.7604561" /><circle
         style="fill:#000000;stroke:none;stroke-width:0.3;stroke-linecap:round;paint-order:fill markers stroke"
         id="path349-7"
         cx="85.50502"
         cy="146.31908"
         r="7.3483229" /><circle
         style="fill:#000000;stroke:none;stroke-width:0.3;stroke-linecap:round;paint-order:fill markers stroke"
         id="path349-62"
         cx="49.380726"
         cy="131.68195"
         r="11.169451" /><circle
         style="fill:#000000;stroke:none;stroke-width:0.3;stroke-linecap:round;paint-order:fill markers stroke"
         id="path349-70"
         cx="32.920486"
         cy="87.885933"
         r="6.760457" /><circle
         style="fill:#ff5555;fill-opacity:1;stroke:none;stroke-width:0.3;stroke-linecap:round;paint-order:fill markers stroke"
         id="path349-3"
         cx="76.422562"
         cy="75.246811"
         r="6.4665241" /><circle
         style="fill:#ff8080;fill-opacity:1;stroke:none;stroke-width:0.300001;stroke-linecap:round;paint-order:fill markers stroke"
         id="path349-3-5"
         cx="57.195362"
         cy="101.77505"
         r="4.8769741" /><circle
         style="fill:#ff5555;fill-opacity:1;stroke:none;stroke-width:0.3;stroke-linecap:round;paint-order:fill markers stroke"
         id="path349-99"
         cx="73.570724"
         cy="125.80328"
         r="7.05439" /><circle
         style="fill:#000000;stroke:none;stroke-width:0.3;stroke-linecap:round;paint-order:fill markers stroke"
         id="path349-91"
         cx="90.030968"
         cy="100.52505"
         r="7.1584797" /></g></g></svg>
