<?xml version="1.0" encoding="utf-8" standalone="no"?>
<!DOCTYPE svg PUBLIC "-//W3C//DTD SVG 1.1//EN"
  "http://www.w3.org/Graphics/SVG/1.1/DTD/svg11.dtd">
<svg xmlns:xlink="http://www.w3.org/1999/xlink" width="250.554688pt" height="224.875469pt" viewBox="0 0 250.554688 224.875469" xmlns="http://www.w3.org/2000/svg" version="1.1">
 <metadata>
  <rdf:RDF xmlns:dc="http://purl.org/dc/elements/1.1/" xmlns:cc="http://creativecommons.org/ns#" xmlns:rdf="http://www.w3.org/1999/02/22-rdf-syntax-ns#">
   <cc:Work>
    <dc:type rdf:resource="http://purl.org/dc/dcmitype/StillImage"/>
    <dc:date>2024-01-29T11:49:52.939646</dc:date>
    <dc:format>image/svg+xml</dc:format>
    <dc:creator>
     <cc:Agent>
      <dc:title>Matplotlib v3.7.3, https://matplotlib.org/</dc:title>
     </cc:Agent>
    </dc:creator>
   </cc:Work>
  </rdf:RDF>
 </metadata>
 <defs>
  <style type="text/css">*{stroke-linejoin: round; stroke-linecap: butt}</style>
 </defs>
 <g id="figure_1">
  <g id="patch_1">
   <path d="M 0 224.875469 
L 250.554687 224.875469 
L 250.554687 0 
L 0 0 
L 0 224.875469 
z
" style="fill: none"/>
  </g>
  <g id="axes_1">
   <g id="patch_2">
    <path d="M 40.103125 177.319219 
L 235.403125 177.319219 
L 235.403125 10.999219 
L 40.103125 10.999219 
L 40.103125 177.319219 
z
" style="fill: none"/>
   </g>
   <g id="matplotlib.axis_1">
    <g id="xtick_1">
     <g id="line2d_1">
      <defs>
       <path id="m8839c59678" d="M 0 0 
L 0 3.5 
" style="stroke: #000000; stroke-width: 0.8"/>
      </defs>
      <g>
       <use xlink:href="#m8839c59678" x="40.103125" y="187.319219" style="stroke: #000000; stroke-width: 0.8"/>
      </g>
     </g>
     <g id="text_1">
      <!-- 0.0 -->
      <g transform="translate(32.151562 201.917656) scale(0.1 -0.1)">
       <defs>
        <path id="DejaVuSans-30" d="M 2034 4250 
Q 1547 4250 1301 3770 
Q 1056 3291 1056 2328 
Q 1056 1369 1301 889 
Q 1547 409 2034 409 
Q 2525 409 2770 889 
Q 3016 1369 3016 2328 
Q 3016 3291 2770 3770 
Q 2525 4250 2034 4250 
z
M 2034 4750 
Q 2819 4750 3233 4129 
Q 3647 3509 3647 2328 
Q 3647 1150 3233 529 
Q 2819 -91 2034 -91 
Q 1250 -91 836 529 
Q 422 1150 422 2328 
Q 422 3509 836 4129 
Q 1250 4750 2034 4750 
z
" transform="scale(0.015625)"/>
        <path id="DejaVuSans-2e" d="M 684 794 
L 1344 794 
L 1344 0 
L 684 0 
L 684 794 
z
" transform="scale(0.015625)"/>
       </defs>
       <use xlink:href="#DejaVuSans-30"/>
       <use xlink:href="#DejaVuSans-2e" x="63.623047"/>
       <use xlink:href="#DejaVuSans-30" x="95.410156"/>
      </g>
     </g>
    </g>
    <g id="xtick_2">
     <g id="line2d_2">
      <g>
       <use xlink:href="#m8839c59678" x="79.163125" y="187.319219" style="stroke: #000000; stroke-width: 0.8"/>
      </g>
     </g>
     <g id="text_2">
      <!-- 0.2 -->
      <g transform="translate(71.211563 201.917656) scale(0.1 -0.1)">
       <defs>
        <path id="DejaVuSans-32" d="M 1228 531 
L 3431 531 
L 3431 0 
L 469 0 
L 469 531 
Q 828 903 1448 1529 
Q 2069 2156 2228 2338 
Q 2531 2678 2651 2914 
Q 2772 3150 2772 3378 
Q 2772 3750 2511 3984 
Q 2250 4219 1831 4219 
Q 1534 4219 1204 4116 
Q 875 4013 500 3803 
L 500 4441 
Q 881 4594 1212 4672 
Q 1544 4750 1819 4750 
Q 2544 4750 2975 4387 
Q 3406 4025 3406 3419 
Q 3406 3131 3298 2873 
Q 3191 2616 2906 2266 
Q 2828 2175 2409 1742 
Q 1991 1309 1228 531 
z
" transform="scale(0.015625)"/>
       </defs>
       <use xlink:href="#DejaVuSans-30"/>
       <use xlink:href="#DejaVuSans-2e" x="63.623047"/>
       <use xlink:href="#DejaVuSans-32" x="95.410156"/>
      </g>
     </g>
    </g>
    <g id="xtick_3">
     <g id="line2d_3">
      <g>
       <use xlink:href="#m8839c59678" x="118.223125" y="187.319219" style="stroke: #000000; stroke-width: 0.8"/>
      </g>
     </g>
     <g id="text_3">
      <!-- 0.4 -->
      <g transform="translate(110.271563 201.917656) scale(0.1 -0.1)">
       <defs>
        <path id="DejaVuSans-34" d="M 2419 4116 
L 825 1625 
L 2419 1625 
L 2419 4116 
z
M 2253 4666 
L 3047 4666 
L 3047 1625 
L 3713 1625 
L 3713 1100 
L 3047 1100 
L 3047 0 
L 2419 0 
L 2419 1100 
L 313 1100 
L 313 1709 
L 2253 4666 
z
" transform="scale(0.015625)"/>
       </defs>
       <use xlink:href="#DejaVuSans-30"/>
       <use xlink:href="#DejaVuSans-2e" x="63.623047"/>
       <use xlink:href="#DejaVuSans-34" x="95.410156"/>
      </g>
     </g>
    </g>
    <g id="xtick_4">
     <g id="line2d_4">
      <g>
       <use xlink:href="#m8839c59678" x="157.283125" y="187.319219" style="stroke: #000000; stroke-width: 0.8"/>
      </g>
     </g>
     <g id="text_4">
      <!-- 0.6 -->
      <g transform="translate(149.331563 201.917656) scale(0.1 -0.1)">
       <defs>
        <path id="DejaVuSans-36" d="M 2113 2584 
Q 1688 2584 1439 2293 
Q 1191 2003 1191 1497 
Q 1191 994 1439 701 
Q 1688 409 2113 409 
Q 2538 409 2786 701 
Q 3034 994 3034 1497 
Q 3034 2003 2786 2293 
Q 2538 2584 2113 2584 
z
M 3366 4563 
L 3366 3988 
Q 3128 4100 2886 4159 
Q 2644 4219 2406 4219 
Q 1781 4219 1451 3797 
Q 1122 3375 1075 2522 
Q 1259 2794 1537 2939 
Q 1816 3084 2150 3084 
Q 2853 3084 3261 2657 
Q 3669 2231 3669 1497 
Q 3669 778 3244 343 
Q 2819 -91 2113 -91 
Q 1303 -91 875 529 
Q 447 1150 447 2328 
Q 447 3434 972 4092 
Q 1497 4750 2381 4750 
Q 2619 4750 2861 4703 
Q 3103 4656 3366 4563 
z
" transform="scale(0.015625)"/>
       </defs>
       <use xlink:href="#DejaVuSans-30"/>
       <use xlink:href="#DejaVuSans-2e" x="63.623047"/>
       <use xlink:href="#DejaVuSans-36" x="95.410156"/>
      </g>
     </g>
    </g>
    <g id="xtick_5">
     <g id="line2d_5">
      <g>
       <use xlink:href="#m8839c59678" x="196.343125" y="187.319219" style="stroke: #000000; stroke-width: 0.8"/>
      </g>
     </g>
     <g id="text_5">
      <!-- 0.8 -->
      <g transform="translate(188.391563 201.917656) scale(0.1 -0.1)">
       <defs>
        <path id="DejaVuSans-38" d="M 2034 2216 
Q 1584 2216 1326 1975 
Q 1069 1734 1069 1313 
Q 1069 891 1326 650 
Q 1584 409 2034 409 
Q 2484 409 2743 651 
Q 3003 894 3003 1313 
Q 3003 1734 2745 1975 
Q 2488 2216 2034 2216 
z
M 1403 2484 
Q 997 2584 770 2862 
Q 544 3141 544 3541 
Q 544 4100 942 4425 
Q 1341 4750 2034 4750 
Q 2731 4750 3128 4425 
Q 3525 4100 3525 3541 
Q 3525 3141 3298 2862 
Q 3072 2584 2669 2484 
Q 3125 2378 3379 2068 
Q 3634 1759 3634 1313 
Q 3634 634 3220 271 
Q 2806 -91 2034 -91 
Q 1263 -91 848 271 
Q 434 634 434 1313 
Q 434 1759 690 2068 
Q 947 2378 1403 2484 
z
M 1172 3481 
Q 1172 3119 1398 2916 
Q 1625 2713 2034 2713 
Q 2441 2713 2670 2916 
Q 2900 3119 2900 3481 
Q 2900 3844 2670 4047 
Q 2441 4250 2034 4250 
Q 1625 4250 1398 4047 
Q 1172 3844 1172 3481 
z
" transform="scale(0.015625)"/>
       </defs>
       <use xlink:href="#DejaVuSans-30"/>
       <use xlink:href="#DejaVuSans-2e" x="63.623047"/>
       <use xlink:href="#DejaVuSans-38" x="95.410156"/>
      </g>
     </g>
    </g>
    <g id="xtick_6">
     <g id="line2d_6">
      <g>
       <use xlink:href="#m8839c59678" x="235.403125" y="187.319219" style="stroke: #000000; stroke-width: 0.8"/>
      </g>
     </g>
     <g id="text_6">
      <!-- 1.0 -->
      <g transform="translate(227.451562 201.917656) scale(0.1 -0.1)">
       <defs>
        <path id="DejaVuSans-31" d="M 794 531 
L 1825 531 
L 1825 4091 
L 703 3866 
L 703 4441 
L 1819 4666 
L 2450 4666 
L 2450 531 
L 3481 531 
L 3481 0 
L 794 0 
L 794 531 
z
" transform="scale(0.015625)"/>
       </defs>
       <use xlink:href="#DejaVuSans-31"/>
       <use xlink:href="#DejaVuSans-2e" x="63.623047"/>
       <use xlink:href="#DejaVuSans-30" x="95.410156"/>
      </g>
     </g>
    </g>
    <g id="text_7">
     <!-- $r \; / \; r_c$ -->
     <g transform="translate(127.153125 215.595781) scale(0.1 -0.1)">
      <defs>
       <path id="DejaVuSans-Oblique-72" d="M 2853 2969 
Q 2766 3016 2653 3041 
Q 2541 3066 2413 3066 
Q 1953 3066 1609 2717 
Q 1266 2369 1153 1784 
L 800 0 
L 225 0 
L 909 3500 
L 1484 3500 
L 1375 2956 
Q 1603 3259 1920 3421 
Q 2238 3584 2597 3584 
Q 2691 3584 2781 3573 
Q 2872 3563 2963 3538 
L 2853 2969 
z
" transform="scale(0.015625)"/>
       <path id="DejaVuSans-2f" d="M 1625 4666 
L 2156 4666 
L 531 -594 
L 0 -594 
L 1625 4666 
z
" transform="scale(0.015625)"/>
       <path id="DejaVuSans-Oblique-63" d="M 3431 3366 
L 3316 2797 
Q 3109 2947 2876 3022 
Q 2644 3097 2394 3097 
Q 2119 3097 1870 3000 
Q 1622 2903 1453 2725 
Q 1184 2453 1037 2087 
Q 891 1722 891 1331 
Q 891 859 1127 628 
Q 1363 397 1844 397 
Q 2081 397 2348 469 
Q 2616 541 2906 684 
L 2797 116 
Q 2547 13 2283 -39 
Q 2019 -91 1741 -91 
Q 1044 -91 669 257 
Q 294 606 294 1253 
Q 294 1797 489 2255 
Q 684 2713 1069 3078 
Q 1331 3328 1684 3456 
Q 2038 3584 2456 3584 
Q 2700 3584 2940 3529 
Q 3181 3475 3431 3366 
z
" transform="scale(0.015625)"/>
      </defs>
      <use xlink:href="#DejaVuSans-Oblique-72" transform="translate(0 0.09375)"/>
      <use xlink:href="#DejaVuSans-2f" transform="translate(68.172417 0.09375)"/>
      <use xlink:href="#DejaVuSans-Oblique-72" transform="translate(128.922959 0.09375)"/>
      <use xlink:href="#DejaVuSans-Oblique-63" transform="translate(170.03624 -16.3125) scale(0.7)"/>
     </g>
    </g>
   </g>
   <g id="matplotlib.axis_2">
    <g id="ytick_1">
     <g id="line2d_7">
      <defs>
       <path id="mdd3f570738" d="M 0 0 
L -3.5 0 
" style="stroke: #000000; stroke-width: 0.8"/>
      </defs>
      <g>
       <use xlink:href="#mdd3f570738" x="30.103125" y="177.319219" style="stroke: #000000; stroke-width: 0.8"/>
      </g>
     </g>
     <g id="text_8">
      <!-- 0.0 -->
      <g transform="translate(7.2 181.118438) scale(0.1 -0.1)">
       <use xlink:href="#DejaVuSans-30"/>
       <use xlink:href="#DejaVuSans-2e" x="63.623047"/>
       <use xlink:href="#DejaVuSans-30" x="95.410156"/>
      </g>
     </g>
    </g>
    <g id="ytick_2">
     <g id="line2d_8">
      <g>
       <use xlink:href="#mdd3f570738" x="30.103125" y="144.055219" style="stroke: #000000; stroke-width: 0.8"/>
      </g>
     </g>
     <g id="text_9">
      <!-- 0.2 -->
      <g transform="translate(7.2 147.854438) scale(0.1 -0.1)">
       <use xlink:href="#DejaVuSans-30"/>
       <use xlink:href="#DejaVuSans-2e" x="63.623047"/>
       <use xlink:href="#DejaVuSans-32" x="95.410156"/>
      </g>
     </g>
    </g>
    <g id="ytick_3">
     <g id="line2d_9">
      <g>
       <use xlink:href="#mdd3f570738" x="30.103125" y="110.791219" style="stroke: #000000; stroke-width: 0.8"/>
      </g>
     </g>
     <g id="text_10">
      <!-- 0.4 -->
      <g transform="translate(7.2 114.590438) scale(0.1 -0.1)">
       <use xlink:href="#DejaVuSans-30"/>
       <use xlink:href="#DejaVuSans-2e" x="63.623047"/>
       <use xlink:href="#DejaVuSans-34" x="95.410156"/>
      </g>
     </g>
    </g>
    <g id="ytick_4">
     <g id="line2d_10">
      <g>
       <use xlink:href="#mdd3f570738" x="30.103125" y="77.527219" style="stroke: #000000; stroke-width: 0.8"/>
      </g>
     </g>
     <g id="text_11">
      <!-- 0.6 -->
      <g transform="translate(7.2 81.326437) scale(0.1 -0.1)">
       <use xlink:href="#DejaVuSans-30"/>
       <use xlink:href="#DejaVuSans-2e" x="63.623047"/>
       <use xlink:href="#DejaVuSans-36" x="95.410156"/>
      </g>
     </g>
    </g>
    <g id="ytick_5">
     <g id="line2d_11">
      <g>
       <use xlink:href="#mdd3f570738" x="30.103125" y="44.263219" style="stroke: #000000; stroke-width: 0.8"/>
      </g>
     </g>
     <g id="text_12">
      <!-- 0.8 -->
      <g transform="translate(7.2 48.062438) scale(0.1 -0.1)">
       <use xlink:href="#DejaVuSans-30"/>
       <use xlink:href="#DejaVuSans-2e" x="63.623047"/>
       <use xlink:href="#DejaVuSans-38" x="95.410156"/>
      </g>
     </g>
    </g>
    <g id="ytick_6">
     <g id="line2d_12">
      <g>
       <use xlink:href="#mdd3f570738" x="30.103125" y="10.999219" style="stroke: #000000; stroke-width: 0.8"/>
      </g>
     </g>
     <g id="text_13">
      <!-- 1.0 -->
      <g transform="translate(7.2 14.798438) scale(0.1 -0.1)">
       <use xlink:href="#DejaVuSans-31"/>
       <use xlink:href="#DejaVuSans-2e" x="63.623047"/>
       <use xlink:href="#DejaVuSans-30" x="95.410156"/>
      </g>
     </g>
    </g>
   </g>
   <g id="line2d_13">
    <path d="M 40.493725 177.319219 
L 63.539123 177.222136 
L 67.054524 176.983352 
L 69.398126 176.635442 
L 71.351124 176.157296 
L 73.304122 175.442628 
L 74.866526 174.6557 
L 76.428923 173.639999 
L 77.991323 172.362678 
L 79.553723 170.794457 
L 81.116124 168.911297 
L 82.678521 166.69575 
L 84.240924 164.137935 
L 86.193922 160.457367 
L 88.146926 156.253935 
L 90.099922 151.560315 
L 92.44352 145.350244 
L 95.177726 137.446212 
L 98.693127 126.547592 
L 111.192324 87.045252 
L 114.707725 77.068678 
L 117.83252 68.90687 
L 120.566725 62.35222 
L 123.300919 56.356757 
L 126.035125 50.914494 
L 128.769324 46.007378 
L 131.503524 41.608684 
L 134.237718 37.686083 
L 136.971923 34.203975 
L 139.706123 31.125405 
L 142.440334 28.413413 
L 145.174523 26.032065 
L 147.908722 23.947149 
L 150.642934 22.126604 
L 153.767728 20.331795 
L 156.892523 18.803429 
L 160.017329 17.505512 
L 163.532731 16.28132 
L 167.438727 15.16807 
L 171.735318 14.190753 
L 176.422528 13.362158 
L 181.890927 12.639735 
L 188.140528 12.055675 
L 195.561926 11.599755 
L 204.936333 11.266099 
L 217.435524 11.064479 
L 235.403125 10.999219 
L 235.403125 10.999219 
" style="fill: none; stroke: #4385be; stroke-width: 1.5; stroke-linecap: square"/>
   </g>
   <g id="line2d_14">
    <path d="M 40.493725 177.319218 
L 56.508325 177.216305 
L 59.242524 176.989101 
L 61.195524 176.635753 
L 62.757924 176.162678 
L 64.320325 175.449301 
L 65.492124 174.711212 
L 66.663924 173.761223 
L 67.835723 172.564706 
L 69.007522 171.088077 
L 70.179325 169.30032 
L 71.351124 167.174502 
L 72.913525 163.77799 
L 74.475925 159.710696 
L 76.038322 154.96425 
L 77.600725 149.555527 
L 79.553723 141.928829 
L 81.897322 131.683867 
L 84.631525 118.612365 
L 95.177726 66.829409 
L 97.521319 56.856087 
L 99.864924 47.860211 
L 101.817922 41.169171 
L 103.770926 35.231038 
L 105.723924 30.043025 
L 107.676922 25.585375 
L 109.239325 22.523469 
L 110.801723 19.887038 
L 112.36412 17.652072 
L 113.926523 15.792686 
L 115.488921 14.281937 
L 117.051324 13.092443 
L 118.613727 12.196951 
L 120.176124 11.568736 
L 121.738522 11.181973 
L 123.300919 11.011938 
L 124.863316 11.035214 
L 126.816326 11.302818 
L 128.769324 11.79855 
L 131.112923 12.644097 
L 133.847117 13.907001 
L 136.971923 15.623315 
L 140.877931 18.043683 
L 147.127521 22.231736 
L 157.28313 29.040389 
L 163.142124 32.683639 
L 168.610524 35.811103 
L 173.688328 38.460521 
L 178.766132 40.863698 
L 183.843925 43.028874 
L 189.312336 45.110033 
L 194.780724 46.951396 
L 200.63973 48.683067 
L 206.88932 50.284742 
L 213.529527 51.742861 
L 220.560318 53.050296 
L 227.981727 54.205648 
L 235.403125 55.166539 
L 235.403125 55.166539 
" style="fill: none; stroke: #ce5d97; stroke-width: 1.5; stroke-linecap: square"/>
   </g>
   <g id="line2d_15">
    <path d="M 40.493725 177.319153 
L 50.258724 177.226099 
L 52.602324 177.014364 
L 54.164724 176.705889 
L 55.727125 176.164214 
L 56.898924 175.535321 
L 58.070724 174.650405 
L 59.242524 173.443814 
L 60.414324 171.846499 
L 61.586123 169.789815 
L 62.757924 167.209802 
L 63.929724 164.051658 
L 65.101523 160.273932 
L 66.273323 155.852054 
L 67.835723 148.948254 
L 69.398126 140.937889 
L 71.351124 129.542126 
L 73.694723 114.300959 
L 82.287923 56.379676 
L 84.240924 45.363996 
L 85.803324 37.584301 
L 87.365722 30.804378 
L 88.928125 25.060914 
L 90.099922 21.437312 
L 91.271724 18.391466 
L 92.44352 15.907752 
L 93.615323 13.964459 
L 94.787125 12.535109 
L 95.568321 11.852994 
L 96.349523 11.376356 
L 97.130724 11.095221 
L 97.91192 10.999348 
L 98.693127 11.078318 
L 99.474323 11.321654 
L 100.646125 11.972005 
L 101.817922 12.933857 
L 102.989719 14.173296 
L 104.552122 16.201547 
L 106.114525 18.592679 
L 108.067523 21.990284 
L 110.411122 26.513928 
L 113.926523 33.861852 
L 124.863316 57.173238 
L 128.769324 64.776453 
L 132.28472 71.113147 
L 135.40952 76.321472 
L 138.534327 81.130673 
L 141.659133 85.552168 
L 144.783928 89.604229 
L 147.908722 93.309081 
L 151.033529 96.690909 
L 154.158323 99.774392 
L 157.673725 102.916999 
L 161.189126 105.746013 
L 164.704527 108.292445 
L 168.219929 110.584874 
L 172.125925 112.86571 
L 176.031921 114.897213 
L 180.328536 116.877889 
L 185.015722 118.773087 
L 189.70292 120.427705 
L 194.780724 121.986094 
L 200.249124 123.431058 
L 206.10813 124.751444 
L 212.748326 126.009411 
L 219.779117 127.11303 
L 227.591132 128.115101 
L 235.403125 128.92667 
L 235.403125 128.92667 
" style="fill: none; stroke: #da702c; stroke-width: 1.5; stroke-linecap: square"/>
   </g>
   <g id="line2d_16">
    <path d="M 40.493725 177.315756 
L 45.571525 177.189893 
L 47.524525 176.932017 
L 49.086925 176.476933 
L 50.258724 175.888877 
L 51.430525 174.991028 
L 52.602324 173.676573 
L 53.383524 172.510404 
L 54.164724 171.069581 
L 55.336524 168.314068 
L 56.508325 164.744695 
L 57.680124 160.266998 
L 58.851925 154.817043 
L 60.023725 148.370085 
L 61.586123 138.265435 
L 63.148524 126.608713 
L 65.101523 110.348761 
L 71.741722 52.905272 
L 73.304122 41.608664 
L 74.866526 31.91734 
L 76.038322 25.822098 
L 77.210125 20.784076 
L 78.381924 16.81732 
L 79.163123 14.762828 
L 79.944324 13.170015 
L 80.725523 12.025577 
L 81.506722 11.31285 
L 82.287923 11.012423 
L 83.069125 11.102636 
L 83.850326 11.560072 
L 84.631525 12.360107 
L 85.412724 13.477273 
L 86.584523 15.691034 
L 87.756323 18.472836 
L 89.318726 22.918421 
L 91.271724 29.391771 
L 93.615323 38.063854 
L 98.302527 56.599676 
L 102.599124 73.181974 
L 105.723924 84.31269 
L 108.458124 93.225392 
L 111.192324 101.317296 
L 113.535922 107.602905 
L 115.879521 113.311002 
L 118.223126 118.474385 
L 120.566725 123.131751 
L 122.910318 127.324449 
L 125.253917 131.094066 
L 127.597528 134.481004 
L 129.941121 137.523443 
L 132.675321 140.684821 
L 135.40952 143.476851 
L 138.14372 145.945378 
L 140.877931 148.130846 
L 144.002726 150.327264 
L 147.127521 152.246137 
L 150.642934 154.121647 
L 154.158323 155.742317 
L 158.06432 157.291626 
L 162.360934 158.740913 
L 167.04812 160.071359 
L 172.125925 161.272843 
L 177.594324 162.342433 
L 183.843925 163.338893 
L 190.874728 164.23526 
L 199.077327 165.05213 
L 208.842329 165.786912 
L 220.169735 166.407882 
L 233.840722 166.93021 
L 235.403125 166.978018 
L 235.403125 166.978018 
" style="fill: none; stroke: #8b7ec8; stroke-width: 1.5; stroke-linecap: square"/>
   </g>
   <g id="line2d_17">
    <path d="M 40.493725 177.22157 
L 42.446725 176.972572 
L 43.618525 176.637293 
L 44.790325 176.052734 
L 45.571525 175.46228 
L 46.352725 174.657782 
L 47.133925 173.586639 
L 47.915125 172.191649 
L 48.696325 170.412998 
L 49.477525 168.190839 
L 50.258724 165.468242 
L 51.430525 160.337621 
L 52.602324 153.841382 
L 53.774125 145.922232 
L 54.945925 136.609832 
L 56.508325 122.254213 
L 58.461324 102.00347 
L 63.148524 52.303516 
L 64.710925 38.470097 
L 65.882725 29.728689 
L 67.054524 22.588581 
L 68.226324 17.15063 
L 69.007522 14.488563 
L 69.788724 12.590654 
L 70.569923 11.438702 
L 70.960524 11.134042 
L 71.351124 11.004711 
L 71.741722 11.045941 
L 72.132326 11.252567 
L 72.522924 11.619047 
L 73.304122 12.807947 
L 74.085324 14.562934 
L 74.866526 16.831407 
L 76.038322 21.078228 
L 77.210125 26.17473 
L 78.772522 33.984174 
L 81.116124 47.089232 
L 88.146926 87.476566 
L 90.490522 99.356491 
L 92.834121 110.014182 
L 94.787125 117.930038 
L 96.740123 124.98904 
L 98.693127 131.238128 
L 100.646125 136.739069 
L 102.599124 141.56081 
L 104.552122 145.774029 
L 106.50512 149.44754 
L 108.458124 152.646147 
L 110.411122 155.429302 
L 112.36412 157.850704 
L 114.317124 159.958142 
L 116.660723 162.131509 
L 119.004322 163.975915 
L 121.347921 165.544378 
L 124.082121 167.084495 
L 126.816326 168.36766 
L 129.941121 169.579601 
L 133.456522 170.684572 
L 137.362524 171.662705 
L 141.659133 172.507588 
L 146.736926 173.274638 
L 152.595932 173.935538 
L 160.017329 174.536109 
L 169.00113 175.032649 
L 180.719119 175.450097 
L 196.733734 175.786103 
L 220.169735 176.038675 
L 235.403125 176.127207 
L 235.403125 176.127207 
" style="fill: none; stroke: #879a39; stroke-width: 1.5; stroke-linecap: square"/>
   </g>
   <g id="line2d_18">
    <path d="M 40.493725 175.833722 
L 41.274925 175.060651 
L 42.056125 173.977413 
L 42.837325 172.501151 
L 43.618525 170.542179 
L 44.399725 168.008312 
L 45.180925 164.810399 
L 45.962125 160.868669 
L 47.133925 153.428162 
L 48.305725 144.062168 
L 49.477525 132.80875 
L 51.039924 115.256342 
L 53.383524 85.574146 
L 55.727125 56.130393 
L 57.289523 39.115423 
L 58.461324 28.606854 
L 59.633124 20.424168 
L 60.414324 16.363919 
L 61.195524 13.448841 
L 61.976726 11.673224 
L 62.367325 11.204149 
L 62.757924 11.006882 
L 63.148524 11.074363 
L 63.539123 11.398453 
L 63.929724 11.970032 
L 64.710925 13.815073 
L 65.492124 16.521731 
L 66.273323 19.994262 
L 67.445125 26.419492 
L 69.007522 36.727542 
L 70.960524 51.341902 
L 76.428923 93.187047 
L 78.381924 106.291371 
L 80.334925 117.901219 
L 82.287923 127.962746 
L 83.850326 134.933399 
L 85.412724 141.010247 
L 86.975121 146.270125 
L 88.537524 150.796601 
L 90.099922 154.674059 
L 91.662325 157.983669 
L 93.224728 160.80098 
L 94.787125 163.194539 
L 96.349523 165.225524 
L 97.91192 166.947647 
L 99.864924 168.736465 
L 101.817922 170.192315 
L 103.770926 171.378568 
L 106.114525 172.518204 
L 108.458124 173.414419 
L 111.192324 174.224766 
L 114.317124 174.919531 
L 118.223126 175.541762 
L 122.910318 176.046692 
L 128.769324 176.447823 
L 136.971923 176.769778 
L 149.080519 177.002147 
L 170.172927 177.155723 
L 218.997927 177.237469 
L 235.403125 177.245104 
L 235.403125 177.245104 
" style="fill: none; stroke: #d14d41; stroke-width: 1.5; stroke-linecap: square"/>
   </g>
   <g id="line2d_19">
    <path d="M 40.493725 165.129559 
L 41.274925 160.710658 
L 42.056125 155.249227 
L 43.227925 144.97505 
L 44.399725 132.21144 
L 45.962125 111.838355 
L 48.696325 71.516783 
L 50.258724 49.635778 
L 51.430525 35.527896 
L 52.602324 24.248706 
L 53.383524 18.563137 
L 54.164724 14.449881 
L 54.945925 11.938379 
L 55.336524 11.27853 
L 55.727125 11.007566 
L 56.117724 11.11589 
L 56.508325 11.591567 
L 56.898924 12.420559 
L 57.680124 15.073407 
L 58.461324 18.930163 
L 59.242524 23.829744 
L 60.414324 32.761966 
L 61.976726 46.735422 
L 68.226324 105.578357 
L 69.788724 117.7208 
L 71.351124 128.306529 
L 72.913525 137.348627 
L 74.475925 144.944229 
L 76.038322 151.238042 
L 77.600725 156.39537 
L 79.163123 160.583461 
L 80.725523 163.960046 
L 82.287923 166.667078 
L 83.850326 168.828041 
L 85.412724 170.547728 
L 86.975121 171.913411 
L 88.537524 172.996668 
L 90.490522 174.040902 
L 92.44352 174.822615 
L 94.787125 175.50718 
L 97.521319 176.059881 
L 101.03672 176.516392 
L 105.723924 176.863746 
L 112.36412 177.100613 
L 123.69152 177.243946 
L 151.424135 177.30629 
L 235.403125 177.316733 
L 235.403125 177.316733 
" style="fill: none; stroke: #d14d41; stroke-width: 1.5; stroke-linecap: square"/>
   </g>
   <g id="line2d_20">
    <path d="M 40.493725 123.364534 
L 42.056125 98.697866 
L 45.180925 47.459638 
L 46.352725 31.937831 
L 47.133925 23.702564 
L 47.915125 17.432568 
L 48.696325 13.260713 
L 49.086925 11.977577 
L 49.477525 11.226921 
L 49.868125 11.00017 
L 50.258724 11.283992 
L 50.649325 12.060721 
L 51.039924 13.308843 
L 51.821124 17.116974 
L 52.602324 22.479027 
L 53.774125 32.868327 
L 55.336524 49.688181 
L 60.414324 107.288039 
L 61.976726 121.790898 
L 63.539123 134.025724 
L 64.710925 141.735534 
L 65.882725 148.274965 
L 67.054524 153.754532 
L 68.226324 158.298073 
L 69.398126 162.031728 
L 70.569923 165.076276 
L 71.741722 167.542694 
L 72.913525 169.529748 
L 74.085324 171.123238 
L 75.257123 172.396286 
L 76.428923 173.410236 
L 77.991323 174.445619 
L 79.553723 175.205404 
L 81.506722 175.876044 
L 83.850326 176.401664 
L 86.584523 176.773033 
L 90.490522 177.052896 
L 96.349523 177.222863 
L 108.458124 177.303869 
L 170.563533 177.319083 
L 235.403125 177.319174 
L 235.403125 177.319174 
" style="fill: none; stroke: #d0a215; stroke-width: 1.5; stroke-linecap: square"/>
   </g>
   <g id="line2d_21">
    <path d="M 40.493725 48.499172 
L 41.665525 31.024119 
L 42.446725 22.065874 
L 43.227925 15.656614 
L 43.618525 13.468093 
L 44.009125 11.970102 
L 44.399725 11.160976 
L 44.790325 11.030327 
L 45.180925 11.559745 
L 45.571525 12.723474 
L 45.962125 14.489356 
L 46.743325 19.672412 
L 47.524525 26.759157 
L 48.696325 40.098767 
L 50.649325 66.271371 
L 53.383524 102.712658 
L 54.945925 120.441277 
L 56.117724 131.725191 
L 57.289523 141.251902 
L 58.461324 149.12029 
L 59.633124 155.497648 
L 60.804923 160.583292 
L 61.976726 164.582513 
L 63.148524 167.689775 
L 64.320325 170.079244 
L 65.492124 171.900634 
L 66.663924 173.278723 
L 67.835723 174.314938 
L 69.007522 175.090104 
L 70.569923 175.82499 
L 72.132326 176.318627 
L 74.085324 176.712759 
L 76.819524 177.016847 
L 80.725523 177.205181 
L 88.146926 177.299537 
L 118.613727 177.319132 
L 235.403125 177.319218 
L 235.403125 177.319218 
" style="fill: none; stroke: #3aa99f; stroke-width: 1.5; stroke-linecap: square"/>
   </g>
   <g id="line2d_22">
    <path d="M 40.493725 11.41597 
L 40.884325 12.643552 
L 41.274925 14.6401 
L 42.056125 20.727797 
L 42.837325 29.188764 
L 44.009125 45.103639 
L 49.086925 120.257407 
L 50.258724 133.255356 
L 51.430525 143.93558 
L 52.602324 152.452466 
L 53.774125 159.072137 
L 54.945925 164.104782 
L 56.117724 167.858644 
L 57.289523 170.612979 
L 58.461324 172.605521 
L 59.633124 174.029601 
L 60.804923 175.036956 
L 61.976726 175.743363 
L 63.539123 176.362877 
L 65.101523 176.741371 
L 67.445125 177.048857 
L 70.960524 177.23247 
L 77.991323 177.309712 
L 122.129122 177.319218 
L 235.403125 177.319219 
L 235.403125 177.319219 
" style="fill: none; stroke: #4385be; stroke-width: 1.5; stroke-linecap: square"/>
   </g>
   <g id="patch_3">
    <path d="M 30.103125 177.319219 
L 30.103125 10.999219 
" style="fill: none; stroke: #000000; stroke-width: 0.8; stroke-linejoin: miter; stroke-linecap: square"/>
   </g>
   <g id="patch_4">
    <path d="M 40.103125 187.319219 
L 235.403125 187.319219 
" style="fill: none; stroke: #000000; stroke-width: 0.8; stroke-linejoin: miter; stroke-linecap: square"/>
   </g>
  </g>
 </g>
</svg>
