<?xml version="1.0" encoding="utf-8" standalone="no"?>
<!DOCTYPE svg PUBLIC "-//W3C//DTD SVG 1.1//EN"
  "http://www.w3.org/Graphics/SVG/1.1/DTD/svg11.dtd">
<svg xmlns:xlink="http://www.w3.org/1999/xlink" width="258.934375pt" height="221.07625pt" viewBox="0 0 258.934375 221.07625" xmlns="http://www.w3.org/2000/svg" version="1.1">
 <metadata>
  <rdf:RDF xmlns:dc="http://purl.org/dc/elements/1.1/" xmlns:cc="http://creativecommons.org/ns#" xmlns:rdf="http://www.w3.org/1999/02/22-rdf-syntax-ns#">
   <cc:Work>
    <dc:type rdf:resource="http://purl.org/dc/dcmitype/StillImage"/>
    <dc:date>2024-01-29T11:14:56.380971</dc:date>
    <dc:format>image/svg+xml</dc:format>
    <dc:creator>
     <cc:Agent>
      <dc:title>Matplotlib v3.7.3, https://matplotlib.org/</dc:title>
     </cc:Agent>
    </dc:creator>
   </cc:Work>
  </rdf:RDF>
 </metadata>
 <defs>
  <style type="text/css">*{stroke-linejoin: round; stroke-linecap: butt}</style>
 </defs>
 <g id="figure_1">
  <g id="patch_1">
   <path d="M 0 221.07625 
L 258.934375 221.07625 
L 258.934375 0 
L 0 0 
L 0 221.07625 
z
" style="fill: none"/>
  </g>
  <g id="axes_1">
   <g id="patch_2">
    <path d="M 48.482813 173.52 
L 243.782813 173.52 
L 243.782813 7.2 
L 48.482813 7.2 
L 48.482813 173.52 
z
" style="fill: none"/>
   </g>
   <g id="matplotlib.axis_1">
    <g id="xtick_1">
     <g id="line2d_1">
      <defs>
       <path id="me62e1afd6d" d="M 0 0 
L 0 3.5 
" style="stroke: #000000; stroke-width: 0.8"/>
      </defs>
      <g>
       <use xlink:href="#me62e1afd6d" x="48.482813" y="183.52" style="stroke: #000000; stroke-width: 0.8"/>
      </g>
     </g>
     <g id="text_1">
      <!-- 0.0 -->
      <g transform="translate(40.53125 198.118438) scale(0.1 -0.1)">
       <defs>
        <path id="DejaVuSans-30" d="M 2034 4250 
Q 1547 4250 1301 3770 
Q 1056 3291 1056 2328 
Q 1056 1369 1301 889 
Q 1547 409 2034 409 
Q 2525 409 2770 889 
Q 3016 1369 3016 2328 
Q 3016 3291 2770 3770 
Q 2525 4250 2034 4250 
z
M 2034 4750 
Q 2819 4750 3233 4129 
Q 3647 3509 3647 2328 
Q 3647 1150 3233 529 
Q 2819 -91 2034 -91 
Q 1250 -91 836 529 
Q 422 1150 422 2328 
Q 422 3509 836 4129 
Q 1250 4750 2034 4750 
z
" transform="scale(0.015625)"/>
        <path id="DejaVuSans-2e" d="M 684 794 
L 1344 794 
L 1344 0 
L 684 0 
L 684 794 
z
" transform="scale(0.015625)"/>
       </defs>
       <use xlink:href="#DejaVuSans-30"/>
       <use xlink:href="#DejaVuSans-2e" x="63.623047"/>
       <use xlink:href="#DejaVuSans-30" x="95.410156"/>
      </g>
     </g>
    </g>
    <g id="xtick_2">
     <g id="line2d_2">
      <g>
       <use xlink:href="#me62e1afd6d" x="87.542813" y="183.52" style="stroke: #000000; stroke-width: 0.8"/>
      </g>
     </g>
     <g id="text_2">
      <!-- 0.2 -->
      <g transform="translate(79.59125 198.118438) scale(0.1 -0.1)">
       <defs>
        <path id="DejaVuSans-32" d="M 1228 531 
L 3431 531 
L 3431 0 
L 469 0 
L 469 531 
Q 828 903 1448 1529 
Q 2069 2156 2228 2338 
Q 2531 2678 2651 2914 
Q 2772 3150 2772 3378 
Q 2772 3750 2511 3984 
Q 2250 4219 1831 4219 
Q 1534 4219 1204 4116 
Q 875 4013 500 3803 
L 500 4441 
Q 881 4594 1212 4672 
Q 1544 4750 1819 4750 
Q 2544 4750 2975 4387 
Q 3406 4025 3406 3419 
Q 3406 3131 3298 2873 
Q 3191 2616 2906 2266 
Q 2828 2175 2409 1742 
Q 1991 1309 1228 531 
z
" transform="scale(0.015625)"/>
       </defs>
       <use xlink:href="#DejaVuSans-30"/>
       <use xlink:href="#DejaVuSans-2e" x="63.623047"/>
       <use xlink:href="#DejaVuSans-32" x="95.410156"/>
      </g>
     </g>
    </g>
    <g id="xtick_3">
     <g id="line2d_3">
      <g>
       <use xlink:href="#me62e1afd6d" x="126.602813" y="183.52" style="stroke: #000000; stroke-width: 0.8"/>
      </g>
     </g>
     <g id="text_3">
      <!-- 0.4 -->
      <g transform="translate(118.65125 198.118438) scale(0.1 -0.1)">
       <defs>
        <path id="DejaVuSans-34" d="M 2419 4116 
L 825 1625 
L 2419 1625 
L 2419 4116 
z
M 2253 4666 
L 3047 4666 
L 3047 1625 
L 3713 1625 
L 3713 1100 
L 3047 1100 
L 3047 0 
L 2419 0 
L 2419 1100 
L 313 1100 
L 313 1709 
L 2253 4666 
z
" transform="scale(0.015625)"/>
       </defs>
       <use xlink:href="#DejaVuSans-30"/>
       <use xlink:href="#DejaVuSans-2e" x="63.623047"/>
       <use xlink:href="#DejaVuSans-34" x="95.410156"/>
      </g>
     </g>
    </g>
    <g id="xtick_4">
     <g id="line2d_4">
      <g>
       <use xlink:href="#me62e1afd6d" x="165.662813" y="183.52" style="stroke: #000000; stroke-width: 0.8"/>
      </g>
     </g>
     <g id="text_4">
      <!-- 0.6 -->
      <g transform="translate(157.71125 198.118438) scale(0.1 -0.1)">
       <defs>
        <path id="DejaVuSans-36" d="M 2113 2584 
Q 1688 2584 1439 2293 
Q 1191 2003 1191 1497 
Q 1191 994 1439 701 
Q 1688 409 2113 409 
Q 2538 409 2786 701 
Q 3034 994 3034 1497 
Q 3034 2003 2786 2293 
Q 2538 2584 2113 2584 
z
M 3366 4563 
L 3366 3988 
Q 3128 4100 2886 4159 
Q 2644 4219 2406 4219 
Q 1781 4219 1451 3797 
Q 1122 3375 1075 2522 
Q 1259 2794 1537 2939 
Q 1816 3084 2150 3084 
Q 2853 3084 3261 2657 
Q 3669 2231 3669 1497 
Q 3669 778 3244 343 
Q 2819 -91 2113 -91 
Q 1303 -91 875 529 
Q 447 1150 447 2328 
Q 447 3434 972 4092 
Q 1497 4750 2381 4750 
Q 2619 4750 2861 4703 
Q 3103 4656 3366 4563 
z
" transform="scale(0.015625)"/>
       </defs>
       <use xlink:href="#DejaVuSans-30"/>
       <use xlink:href="#DejaVuSans-2e" x="63.623047"/>
       <use xlink:href="#DejaVuSans-36" x="95.410156"/>
      </g>
     </g>
    </g>
    <g id="xtick_5">
     <g id="line2d_5">
      <g>
       <use xlink:href="#me62e1afd6d" x="204.722813" y="183.52" style="stroke: #000000; stroke-width: 0.8"/>
      </g>
     </g>
     <g id="text_5">
      <!-- 0.8 -->
      <g transform="translate(196.77125 198.118438) scale(0.1 -0.1)">
       <defs>
        <path id="DejaVuSans-38" d="M 2034 2216 
Q 1584 2216 1326 1975 
Q 1069 1734 1069 1313 
Q 1069 891 1326 650 
Q 1584 409 2034 409 
Q 2484 409 2743 651 
Q 3003 894 3003 1313 
Q 3003 1734 2745 1975 
Q 2488 2216 2034 2216 
z
M 1403 2484 
Q 997 2584 770 2862 
Q 544 3141 544 3541 
Q 544 4100 942 4425 
Q 1341 4750 2034 4750 
Q 2731 4750 3128 4425 
Q 3525 4100 3525 3541 
Q 3525 3141 3298 2862 
Q 3072 2584 2669 2484 
Q 3125 2378 3379 2068 
Q 3634 1759 3634 1313 
Q 3634 634 3220 271 
Q 2806 -91 2034 -91 
Q 1263 -91 848 271 
Q 434 634 434 1313 
Q 434 1759 690 2068 
Q 947 2378 1403 2484 
z
M 1172 3481 
Q 1172 3119 1398 2916 
Q 1625 2713 2034 2713 
Q 2441 2713 2670 2916 
Q 2900 3119 2900 3481 
Q 2900 3844 2670 4047 
Q 2441 4250 2034 4250 
Q 1625 4250 1398 4047 
Q 1172 3844 1172 3481 
z
" transform="scale(0.015625)"/>
       </defs>
       <use xlink:href="#DejaVuSans-30"/>
       <use xlink:href="#DejaVuSans-2e" x="63.623047"/>
       <use xlink:href="#DejaVuSans-38" x="95.410156"/>
      </g>
     </g>
    </g>
    <g id="xtick_6">
     <g id="line2d_6">
      <g>
       <use xlink:href="#me62e1afd6d" x="243.782813" y="183.52" style="stroke: #000000; stroke-width: 0.8"/>
      </g>
     </g>
     <g id="text_6">
      <!-- 1.0 -->
      <g transform="translate(235.83125 198.118438) scale(0.1 -0.1)">
       <defs>
        <path id="DejaVuSans-31" d="M 794 531 
L 1825 531 
L 1825 4091 
L 703 3866 
L 703 4441 
L 1819 4666 
L 2450 4666 
L 2450 531 
L 3481 531 
L 3481 0 
L 794 0 
L 794 531 
z
" transform="scale(0.015625)"/>
       </defs>
       <use xlink:href="#DejaVuSans-31"/>
       <use xlink:href="#DejaVuSans-2e" x="63.623047"/>
       <use xlink:href="#DejaVuSans-30" x="95.410156"/>
      </g>
     </g>
    </g>
    <g id="text_7">
     <!-- $r \; / \; r_c$ -->
     <g transform="translate(135.532813 211.796563) scale(0.1 -0.1)">
      <defs>
       <path id="DejaVuSans-Oblique-72" d="M 2853 2969 
Q 2766 3016 2653 3041 
Q 2541 3066 2413 3066 
Q 1953 3066 1609 2717 
Q 1266 2369 1153 1784 
L 800 0 
L 225 0 
L 909 3500 
L 1484 3500 
L 1375 2956 
Q 1603 3259 1920 3421 
Q 2238 3584 2597 3584 
Q 2691 3584 2781 3573 
Q 2872 3563 2963 3538 
L 2853 2969 
z
" transform="scale(0.015625)"/>
       <path id="DejaVuSans-2f" d="M 1625 4666 
L 2156 4666 
L 531 -594 
L 0 -594 
L 1625 4666 
z
" transform="scale(0.015625)"/>
       <path id="DejaVuSans-Oblique-63" d="M 3431 3366 
L 3316 2797 
Q 3109 2947 2876 3022 
Q 2644 3097 2394 3097 
Q 2119 3097 1870 3000 
Q 1622 2903 1453 2725 
Q 1184 2453 1037 2087 
Q 891 1722 891 1331 
Q 891 859 1127 628 
Q 1363 397 1844 397 
Q 2081 397 2348 469 
Q 2616 541 2906 684 
L 2797 116 
Q 2547 13 2283 -39 
Q 2019 -91 1741 -91 
Q 1044 -91 669 257 
Q 294 606 294 1253 
Q 294 1797 489 2255 
Q 684 2713 1069 3078 
Q 1331 3328 1684 3456 
Q 2038 3584 2456 3584 
Q 2700 3584 2940 3529 
Q 3181 3475 3431 3366 
z
" transform="scale(0.015625)"/>
      </defs>
      <use xlink:href="#DejaVuSans-Oblique-72" transform="translate(0 0.09375)"/>
      <use xlink:href="#DejaVuSans-2f" transform="translate(68.172417 0.09375)"/>
      <use xlink:href="#DejaVuSans-Oblique-72" transform="translate(128.922959 0.09375)"/>
      <use xlink:href="#DejaVuSans-Oblique-63" transform="translate(170.03624 -16.3125) scale(0.7)"/>
     </g>
    </g>
   </g>
   <g id="matplotlib.axis_2">
    <g id="ytick_1">
     <g id="line2d_7">
      <defs>
       <path id="m443f47f3c9" d="M 0 0 
L -3.5 0 
" style="stroke: #000000; stroke-width: 0.8"/>
      </defs>
      <g>
       <use xlink:href="#m443f47f3c9" x="38.482813" y="165.96" style="stroke: #000000; stroke-width: 0.8"/>
      </g>
     </g>
     <g id="text_8">
      <!-- −1.0 -->
      <g transform="translate(7.2 169.759219) scale(0.1 -0.1)">
       <defs>
        <path id="DejaVuSans-2212" d="M 678 2272 
L 4684 2272 
L 4684 1741 
L 678 1741 
L 678 2272 
z
" transform="scale(0.015625)"/>
       </defs>
       <use xlink:href="#DejaVuSans-2212"/>
       <use xlink:href="#DejaVuSans-31" x="83.789062"/>
       <use xlink:href="#DejaVuSans-2e" x="147.412109"/>
       <use xlink:href="#DejaVuSans-30" x="179.199219"/>
      </g>
     </g>
    </g>
    <g id="ytick_2">
     <g id="line2d_8">
      <g>
       <use xlink:href="#m443f47f3c9" x="38.482813" y="128.158477" style="stroke: #000000; stroke-width: 0.8"/>
      </g>
     </g>
     <g id="text_9">
      <!-- −0.5 -->
      <g transform="translate(7.2 131.957696) scale(0.1 -0.1)">
       <defs>
        <path id="DejaVuSans-35" d="M 691 4666 
L 3169 4666 
L 3169 4134 
L 1269 4134 
L 1269 2991 
Q 1406 3038 1543 3061 
Q 1681 3084 1819 3084 
Q 2600 3084 3056 2656 
Q 3513 2228 3513 1497 
Q 3513 744 3044 326 
Q 2575 -91 1722 -91 
Q 1428 -91 1123 -41 
Q 819 9 494 109 
L 494 744 
Q 775 591 1075 516 
Q 1375 441 1709 441 
Q 2250 441 2565 725 
Q 2881 1009 2881 1497 
Q 2881 1984 2565 2268 
Q 2250 2553 1709 2553 
Q 1456 2553 1204 2497 
Q 953 2441 691 2322 
L 691 4666 
z
" transform="scale(0.015625)"/>
       </defs>
       <use xlink:href="#DejaVuSans-2212"/>
       <use xlink:href="#DejaVuSans-30" x="83.789062"/>
       <use xlink:href="#DejaVuSans-2e" x="147.412109"/>
       <use xlink:href="#DejaVuSans-35" x="179.199219"/>
      </g>
     </g>
    </g>
    <g id="ytick_3">
     <g id="line2d_9">
      <g>
       <use xlink:href="#m443f47f3c9" x="38.482813" y="90.356954" style="stroke: #000000; stroke-width: 0.8"/>
      </g>
     </g>
     <g id="text_10">
      <!-- 0.0 -->
      <g transform="translate(15.579688 94.156172) scale(0.1 -0.1)">
       <use xlink:href="#DejaVuSans-30"/>
       <use xlink:href="#DejaVuSans-2e" x="63.623047"/>
       <use xlink:href="#DejaVuSans-30" x="95.410156"/>
      </g>
     </g>
    </g>
    <g id="ytick_4">
     <g id="line2d_10">
      <g>
       <use xlink:href="#m443f47f3c9" x="38.482813" y="52.555431" style="stroke: #000000; stroke-width: 0.8"/>
      </g>
     </g>
     <g id="text_11">
      <!-- 0.5 -->
      <g transform="translate(15.579688 56.354649) scale(0.1 -0.1)">
       <use xlink:href="#DejaVuSans-30"/>
       <use xlink:href="#DejaVuSans-2e" x="63.623047"/>
       <use xlink:href="#DejaVuSans-35" x="95.410156"/>
      </g>
     </g>
    </g>
    <g id="ytick_5">
     <g id="line2d_11">
      <g>
       <use xlink:href="#m443f47f3c9" x="38.482813" y="14.753907" style="stroke: #000000; stroke-width: 0.8"/>
      </g>
     </g>
     <g id="text_12">
      <!-- 1.0 -->
      <g transform="translate(15.579688 18.553126) scale(0.1 -0.1)">
       <use xlink:href="#DejaVuSans-31"/>
       <use xlink:href="#DejaVuSans-2e" x="63.623047"/>
       <use xlink:href="#DejaVuSans-30" x="95.410156"/>
      </g>
     </g>
    </g>
   </g>
   <g id="line2d_12">
    <path d="M 48.873412 89.881929 
L 50.842194 87.488282 
L 52.810976 85.097512 
L 54.779758 82.712016 
L 56.74854 80.334187 
L 58.717321 77.966413 
L 60.686102 75.611062 
L 62.654884 73.2705 
L 64.623666 70.947073 
L 66.592448 68.643112 
L 68.561229 66.360932 
L 70.530012 64.10281 
L 72.498792 61.871026 
L 74.467575 59.667805 
L 76.436356 57.495364 
L 78.405139 55.35588 
L 80.373919 53.251497 
L 82.342702 51.184328 
L 84.311485 49.156442 
L 86.280265 47.169879 
L 88.249045 45.226626 
L 90.217828 43.328634 
L 92.186611 41.47781 
L 94.155394 39.675995 
L 96.124171 37.925021 
L 98.092954 36.226627 
L 100.061738 34.582515 
L 102.030515 32.994344 
L 103.999298 31.463696 
L 105.968081 29.992117 
L 107.936864 28.581075 
L 109.905647 27.23199 
L 111.87443 25.946209 
L 113.843213 24.725026 
L 115.81199 23.569667 
L 117.780773 22.481285 
L 119.749556 21.460979 
L 121.718339 20.509764 
L 123.687117 19.628603 
L 125.6559 18.818367 
L 127.624677 18.079885 
L 129.59346 17.413886 
L 131.562243 16.821039 
L 133.531026 16.301945 
L 135.499809 15.857116 
L 137.468592 15.487 
L 139.437375 15.191978 
L 141.406152 14.972332 
L 143.374935 14.828293 
L 145.343718 14.76 
L 147.312513 14.767521 
L 149.281296 14.850851 
L 151.250079 15.009905 
L 153.218851 15.244526 
L 155.187634 15.554473 
L 157.156417 15.939441 
L 159.1252 16.399042 
L 161.093983 16.932813 
L 163.062766 17.540225 
L 165.031549 18.220662 
L 167.000332 18.973442 
L 168.969115 19.797814 
L 170.937886 20.692944 
L 172.906669 21.65794 
L 174.875452 22.691841 
L 176.844236 23.793598 
L 178.813007 24.962107 
L 180.78179 26.196209 
L 182.750573 27.494657 
L 184.719356 28.856148 
L 186.688139 30.279316 
L 188.656922 31.762725 
L 190.625705 33.304913 
L 192.594488 34.904314 
L 194.563271 36.559331 
L 196.532054 38.268297 
L 198.500826 40.029492 
L 200.469609 41.841174 
L 202.438392 43.701512 
L 204.407175 45.608624 
L 206.375958 47.560629 
L 208.344741 49.555542 
L 210.313524 51.591386 
L 212.282307 53.666108 
L 214.25109 55.777628 
L 216.219873 57.923829 
L 218.188656 60.102554 
L 220.157439 62.311606 
L 222.126222 64.5488 
L 224.095005 66.811878 
L 226.063788 69.09857 
L 228.032571 71.40658 
L 230.001354 73.73358 
L 231.970114 76.07725 
L 233.938897 78.435259 
L 235.90768 80.805223 
L 237.876463 83.184768 
L 239.845246 85.571487 
L 241.814029 87.963023 
L 243.782813 90.35696 
" style="fill: none; stroke: #4385be; stroke-width: 1.5; stroke-linecap: square"/>
   </g>
   <g id="line2d_13">
    <path d="M 48.873412 89.406923 
L 50.842194 84.623742 
L 52.810976 79.863553 
L 54.779758 75.14545 
L 56.74854 70.488353 
L 58.717321 65.910944 
L 60.686102 61.431572 
L 62.654884 57.068208 
L 64.623666 52.838349 
L 66.592448 48.758965 
L 68.561229 44.846412 
L 70.530012 41.116378 
L 72.498792 37.583827 
L 74.467575 34.262928 
L 76.436356 31.166997 
L 78.405139 28.308453 
L 80.373919 25.698755 
L 82.342702 23.348377 
L 84.311485 21.266735 
L 86.280265 19.46219 
L 88.249045 17.941965 
L 90.217828 16.712171 
L 92.186611 15.777733 
L 94.155394 15.142395 
L 96.124171 14.808718 
L 98.092954 14.778025 
L 100.061738 15.050449 
L 102.030515 15.624893 
L 103.999298 16.499055 
L 105.968081 17.669429 
L 107.936864 19.13132 
L 109.905647 20.878865 
L 111.87443 22.905056 
L 113.843213 25.201774 
L 115.81199 27.759794 
L 117.780773 30.568868 
L 119.749556 33.617722 
L 121.718339 36.894139 
L 123.687117 40.384957 
L 125.6559 44.07621 
L 127.624677 47.953059 
L 129.59346 51.999967 
L 131.562243 56.200729 
L 133.531026 60.538457 
L 135.499809 64.995791 
L 137.468592 69.554839 
L 139.437375 74.197298 
L 141.406152 78.904565 
L 143.374935 83.657763 
L 145.343718 88.437846 
L 147.312513 93.225644 
L 149.281296 98.001919 
L 151.250079 102.747516 
L 153.218851 107.44342 
L 155.187634 112.070798 
L 157.156417 116.611106 
L 159.1252 121.046123 
L 161.093983 125.358041 
L 163.062766 129.529602 
L 165.031549 133.544055 
L 167.000332 137.385291 
L 168.969115 141.03793 
L 170.937886 144.487285 
L 172.906669 147.719564 
L 174.875452 150.721795 
L 176.844236 153.481927 
L 178.813007 155.988877 
L 180.78179 158.232618 
L 182.750573 160.204144 
L 184.719356 161.895545 
L 186.688139 163.30003 
L 188.656922 164.411967 
L 190.625705 165.226907 
L 192.594488 165.741575 
L 194.563271 165.953912 
L 196.532054 165.863056 
L 198.500826 165.469382 
L 200.469609 164.774466 
L 202.438392 163.78109 
L 204.407175 162.49325 
L 206.375958 160.916093 
L 208.344741 159.055972 
L 210.313524 156.920314 
L 212.282307 154.517698 
L 214.25109 151.85776 
L 216.219873 148.951169 
L 218.188656 145.80958 
L 220.157439 142.445619 
L 222.126222 138.872729 
L 224.095005 135.105265 
L 226.063788 131.158329 
L 228.032571 127.047761 
L 230.001354 122.790074 
L 231.970114 118.402313 
L 233.938897 113.90204 
L 235.90768 109.307336 
L 237.876463 104.636634 
L 239.845246 99.908696 
L 241.814029 95.142414 
L 243.782813 90.356941 
" style="fill: none; stroke: #ce5d97; stroke-width: 1.5; stroke-linecap: square"/>
   </g>
   <g id="line2d_14">
    <path d="M 48.873412 88.931954 
L 50.842194 81.767458 
L 52.810976 74.68044 
L 54.779758 67.734824 
L 56.74854 60.993259 
L 58.717321 54.516556 
L 60.686102 48.363127 
L 62.654884 42.588494 
L 64.623666 37.24472 
L 66.592448 32.380024 
L 68.561229 28.038278 
L 70.530012 24.258643 
L 72.498792 21.075222 
L 74.467575 18.516716 
L 76.436356 16.60621 
L 78.405139 15.360932 
L 80.373919 14.792121 
L 82.342702 14.904904 
L 84.311485 15.698264 
L 86.280265 17.165044 
L 88.249045 19.292015 
L 90.217828 22.059991 
L 92.186611 25.444005 
L 94.155394 29.413545 
L 96.124171 33.93277 
L 98.092954 38.960964 
L 100.061738 44.452733 
L 102.030515 50.358563 
L 103.999298 56.625174 
L 105.968081 63.196065 
L 107.936864 70.01193 
L 109.905647 77.011305 
L 111.87443 84.131059 
L 113.843213 91.306988 
L 115.81199 98.474312 
L 117.780773 105.568453 
L 119.749556 112.52537 
L 121.718339 119.282342 
L 123.687117 125.778377 
L 125.6559 131.954943 
L 127.624677 137.756263 
L 129.59346 143.130076 
L 131.562243 148.027866 
L 133.531026 152.405455 
L 135.499809 156.22337 
L 137.468592 159.447168 
L 139.437375 162.04779 
L 141.406152 164.001732 
L 143.374935 165.291415 
L 145.343718 165.90519 
L 147.312513 165.837519 
L 149.281296 165.089006 
L 151.250079 163.666414 
L 153.218851 161.582587 
L 155.187634 158.85628 
L 157.156417 155.51212 
L 159.1252 151.580262 
L 161.093983 147.096172 
L 163.062766 142.100293 
L 165.031549 136.637666 
L 167.000332 130.757612 
L 168.969115 124.513143 
L 170.937886 117.960619 
L 172.906669 111.159044 
L 174.875452 104.16987 
L 176.844236 97.056102 
L 178.813007 89.881944 
L 180.78179 82.711999 
L 182.750573 75.611048 
L 184.719356 68.643105 
L 186.688139 61.871019 
L 188.656922 55.355846 
L 190.625705 49.156415 
L 192.594488 43.328612 
L 194.563271 37.925003 
L 196.532054 32.994303 
L 198.500826 28.581066 
L 200.469609 24.725017 
L 202.438392 21.460974 
L 204.407175 18.818358 
L 206.375958 16.821039 
L 208.344741 15.487005 
L 210.313524 14.828293 
L 212.282307 14.850851 
L 214.25109 15.554473 
L 216.219873 16.932826 
L 218.188656 18.973442 
L 220.157439 21.657963 
L 222.126222 24.962116 
L 224.095005 28.856166 
L 226.063788 33.304954 
L 228.032571 38.268306 
L 230.001354 43.701548 
L 231.970114 49.555565 
L 233.938897 55.777608 
L 235.90768 62.311617 
L 237.876463 69.098531 
L 239.845246 76.077262 
L 241.814029 83.184799 
L 243.782813 90.356956 
" style="fill: none; stroke: #da702c; stroke-width: 1.5; stroke-linecap: square"/>
   </g>
   <g id="line2d_15">
    <path d="M 48.873412 88.457042 
L 50.842194 78.923546 
L 52.810976 69.573285 
L 54.779758 60.556105 
L 56.74854 52.016519 
L 58.717321 44.091387 
L 60.686102 36.907712 
L 62.654884 30.58062 
L 64.623666 25.211512 
L 66.592448 20.88644 
L 68.561229 17.674715 
L 70.530012 15.627799 
L 72.498792 14.778512 
L 74.467575 15.140457 
L 76.436356 16.707832 
L 78.405139 19.455521 
L 80.373919 23.339481 
L 82.342702 28.297485 
L 84.311485 34.250058 
L 86.280265 41.101809 
L 88.249045 48.742936 
L 90.217828 57.050971 
L 92.186611 65.892775 
L 94.155394 75.126663 
L 96.124171 84.604601 
L 98.092954 94.174744 
L 100.061738 103.683702 
L 102.030515 112.979066 
L 103.999298 121.911919 
L 105.968081 130.339049 
L 107.936864 138.125423 
L 109.905647 145.146232 
L 111.87443 151.288998 
L 113.843213 156.455264 
L 115.81199 160.562214 
L 117.780773 163.54405 
L 119.749556 165.352971 
L 121.718339 165.96 
L 123.687117 165.3554 
L 125.6559 163.548859 
L 127.624677 160.569338 
L 129.59346 156.464588 
L 131.562243 151.300372 
L 133.531026 145.159485 
L 135.499809 138.140298 
L 137.468592 130.355326 
L 139.437375 121.929361 
L 141.406152 112.997416 
L 143.374935 103.702631 
L 145.343718 94.193932 
L 147.312513 84.623704 
L 149.281296 75.145395 
L 151.250079 65.910904 
L 153.218851 57.068188 
L 155.187634 48.75896 
L 157.156417 41.11636 
L 159.1252 34.262897 
L 161.093983 28.308435 
L 163.062766 23.348354 
L 165.031549 19.462163 
L 167.000332 16.712158 
L 168.969115 15.14239 
L 170.937886 14.778025 
L 172.906669 15.624893 
L 174.875452 17.669434 
L 176.844236 20.878883 
L 178.813007 25.201765 
L 180.78179 30.568868 
L 182.750573 36.894148 
L 184.719356 44.076233 
L 186.688139 52.000026 
L 188.656922 60.538468 
L 190.625705 69.554852 
L 192.594488 78.904614 
L 194.563271 88.437914 
L 196.532054 98.001968 
L 198.500826 107.443432 
L 200.469609 116.611136 
L 202.438392 125.358084 
L 204.407175 133.544037 
L 206.375958 141.03793 
L 208.344741 147.719546 
L 210.313524 153.481913 
L 212.282307 158.232627 
L 214.25109 161.895549 
L 216.219873 164.411976 
L 218.188656 165.74158 
L 220.157439 165.863061 
L 222.126222 164.774462 
L 224.095005 162.493237 
L 226.063788 159.055936 
L 228.032571 154.517649 
L 230.001354 148.951156 
L 231.970114 142.445637 
L 233.938897 135.105283 
L 235.90768 127.047782 
L 237.876463 118.402268 
L 239.845246 109.307359 
L 241.814029 99.908682 
L 243.782813 90.356927 
" style="fill: none; stroke: #8b7ec8; stroke-width: 1.5; stroke-linecap: square"/>
   </g>
   <g id="patch_3">
    <path d="M 38.482813 173.52 
L 38.482813 7.2 
" style="fill: none; stroke: #000000; stroke-width: 0.8; stroke-linejoin: miter; stroke-linecap: square"/>
   </g>
   <g id="patch_4">
    <path d="M 48.482813 183.52 
L 243.782813 183.52 
" style="fill: none; stroke: #000000; stroke-width: 0.8; stroke-linejoin: miter; stroke-linecap: square"/>
   </g>
  </g>
 </g>
</svg>
