<?xml version="1.0" encoding="utf-8" standalone="no"?>
<!DOCTYPE svg PUBLIC "-//W3C//DTD SVG 1.1//EN"
  "http://www.w3.org/Graphics/SVG/1.1/DTD/svg11.dtd">
<svg xmlns:xlink="http://www.w3.org/1999/xlink" width="237.630304pt" height="221.07625pt" viewBox="0 0 237.630304 221.07625" xmlns="http://www.w3.org/2000/svg" version="1.1">
 <metadata>
  <rdf:RDF xmlns:dc="http://purl.org/dc/elements/1.1/" xmlns:cc="http://creativecommons.org/ns#" xmlns:rdf="http://www.w3.org/1999/02/22-rdf-syntax-ns#">
   <cc:Work>
    <dc:type rdf:resource="http://purl.org/dc/dcmitype/StillImage"/>
    <dc:date>2024-01-16T12:44:13.404997</dc:date>
    <dc:format>image/svg+xml</dc:format>
    <dc:creator>
     <cc:Agent>
      <dc:title>Matplotlib v3.7.3, https://matplotlib.org/</dc:title>
     </cc:Agent>
    </dc:creator>
   </cc:Work>
  </rdf:RDF>
 </metadata>
 <defs>
  <style type="text/css">*{stroke-linejoin: round; stroke-linecap: butt}</style>
 </defs>
 <g id="figure_1">
  <g id="patch_1">
   <path d="M 0 221.07625 
L 237.630304 221.07625 
L 237.630304 -0 
L 0 -0 
z
" style="fill: #ffffff"/>
  </g>
  <g id="axes_1">
   <g id="patch_2">
    <path d="M 62.160938 173.52 
L 229.560938 173.52 
L 229.560938 7.2 
L 62.160938 7.2 
z
" style="fill: #ffffff"/>
   </g>
   <g id="PathCollection_1">
    <defs>
     <path id="mfe5750841f" d="M 0 3 
C 0.795609 3 1.55874 2.683901 2.12132 2.12132 
C 2.683901 1.55874 3 0.795609 3 0 
C 3 -0.795609 2.683901 -1.55874 2.12132 -2.12132 
C 1.55874 -2.683901 0.795609 -3 0 -3 
C -0.795609 -3 -1.55874 -2.683901 -2.12132 -2.12132 
C -2.683901 -1.55874 -3 -0.795609 -3 0 
C -3 0.795609 -2.683901 1.55874 -2.12132 2.12132 
C -1.55874 2.683901 -0.795609 3 0 3 
z
"/>
    </defs>
    <g>
     <use xlink:href="#mfe5750841f" x="144.072595" y="96.082234" style="fill: #4169e1"/>
     <use xlink:href="#mfe5750841f" x="155.802276" y="82.716734" style="fill: #4169e1"/>
     <use xlink:href="#mfe5750841f" x="166.788761" y="73.728051" style="fill: #4169e1"/>
     <use xlink:href="#mfe5750841f" x="189.536868" y="41.050893" style="fill: #4169e1"/>
     <use xlink:href="#mfe5750841f" x="83.186489" y="147.216894" style="fill: #4169e1"/>
     <use xlink:href="#mfe5750841f" x="193.239807" y="41.334525" style="fill: #4169e1"/>
     <use xlink:href="#mfe5750841f" x="151.875659" y="88.724687" style="fill: #4169e1"/>
     <use xlink:href="#mfe5750841f" x="174.459792" y="59.971386" style="fill: #4169e1"/>
     <use xlink:href="#mfe5750841f" x="72.088375" y="155.522418" style="fill: #4169e1"/>
     <use xlink:href="#mfe5750841f" x="156.900766" y="80.957161" style="fill: #4169e1"/>
     <use xlink:href="#mfe5750841f" x="161.056747" y="72.818204" style="fill: #4169e1"/>
     <use xlink:href="#mfe5750841f" x="85.537576" y="145.939127" style="fill: #4169e1"/>
     <use xlink:href="#mfe5750841f" x="162.837058" y="71.963126" style="fill: #4169e1"/>
     <use xlink:href="#mfe5750841f" x="69.76346" y="157.476403" style="fill: #4169e1"/>
     <use xlink:href="#mfe5750841f" x="169.939068" y="64.096513" style="fill: #4169e1"/>
     <use xlink:href="#mfe5750841f" x="186.538243" y="51.051019" style="fill: #4169e1"/>
     <use xlink:href="#mfe5750841f" x="158.416258" y="82.847011" style="fill: #4169e1"/>
     <use xlink:href="#mfe5750841f" x="76.924087" y="151.796484" style="fill: #4169e1"/>
     <use xlink:href="#mfe5750841f" x="162.136925" y="75.081492" style="fill: #4169e1"/>
     <use xlink:href="#mfe5750841f" x="159.084199" y="78.127695" style="fill: #4169e1"/>
     <use xlink:href="#mfe5750841f" x="87.367222" y="143.811467" style="fill: #4169e1"/>
     <use xlink:href="#mfe5750841f" x="155.191865" y="78.765283" style="fill: #4169e1"/>
     <use xlink:href="#mfe5750841f" x="114.092953" y="132.49394" style="fill: #4169e1"/>
     <use xlink:href="#mfe5750841f" x="116.885878" y="131.460588" style="fill: #4169e1"/>
     <use xlink:href="#mfe5750841f" x="189.52583" y="47.854805" style="fill: #4169e1"/>
     <use xlink:href="#mfe5750841f" x="158.352207" y="73.473351" style="fill: #4169e1"/>
     <use xlink:href="#mfe5750841f" x="77.404305" y="151.60249" style="fill: #4169e1"/>
     <use xlink:href="#mfe5750841f" x="183.888138" y="47.461382" style="fill: #4169e1"/>
     <use xlink:href="#mfe5750841f" x="159.622615" y="80.440402" style="fill: #4169e1"/>
     <use xlink:href="#mfe5750841f" x="171.476134" y="67.585306" style="fill: #4169e1"/>
     <use xlink:href="#mfe5750841f" x="157.321866" y="75.812731" style="fill: #4169e1"/>
     <use xlink:href="#mfe5750841f" x="85.781072" y="145.233642" style="fill: #4169e1"/>
     <use xlink:href="#mfe5750841f" x="187.194477" y="51.647383" style="fill: #4169e1"/>
     <use xlink:href="#mfe5750841f" x="73.846527" y="154.220737" style="fill: #4169e1"/>
     <use xlink:href="#mfe5750841f" x="115.129733" y="131.589109" style="fill: #4169e1"/>
     <use xlink:href="#mfe5750841f" x="71.874146" y="155.40159" style="fill: #4169e1"/>
     <use xlink:href="#mfe5750841f" x="180.089456" y="55.045451" style="fill: #4169e1"/>
     <use xlink:href="#mfe5750841f" x="182.181913" y="56.359173" style="fill: #4169e1"/>
     <use xlink:href="#mfe5750841f" x="71.29275" y="156.20265" style="fill: #4169e1"/>
     <use xlink:href="#mfe5750841f" x="152.444763" y="86.842948" style="fill: #4169e1"/>
     <use xlink:href="#mfe5750841f" x="171.402551" y="64.061477" style="fill: #4169e1"/>
     <use xlink:href="#mfe5750841f" x="148.784469" y="94.041453" style="fill: #4169e1"/>
     <use xlink:href="#mfe5750841f" x="160.087866" y="79.296173" style="fill: #4169e1"/>
     <use xlink:href="#mfe5750841f" x="74.560792" y="153.916033" style="fill: #4169e1"/>
     <use xlink:href="#mfe5750841f" x="164.447457" y="71.643287" style="fill: #4169e1"/>
     <use xlink:href="#mfe5750841f" x="189.149466" y="44.676652" style="fill: #4169e1"/>
     <use xlink:href="#mfe5750841f" x="80.195306" y="149.102898" style="fill: #4169e1"/>
     <use xlink:href="#mfe5750841f" x="154.367224" y="79.195832" style="fill: #4169e1"/>
     <use xlink:href="#mfe5750841f" x="144.467272" y="94.443991" style="fill: #4169e1"/>
     <use xlink:href="#mfe5750841f" x="74.487459" y="153.526791" style="fill: #4169e1"/>
     <use xlink:href="#mfe5750841f" x="71.270591" y="156.138348" style="fill: #4169e1"/>
     <use xlink:href="#mfe5750841f" x="123.947835" y="126.124172" style="fill: #4169e1"/>
     <use xlink:href="#mfe5750841f" x="81.990752" y="147.969623" style="fill: #4169e1"/>
     <use xlink:href="#mfe5750841f" x="71.434399" y="155.831888" style="fill: #4169e1"/>
     <use xlink:href="#mfe5750841f" x="121.344891" y="128.957986" style="fill: #4169e1"/>
     <use xlink:href="#mfe5750841f" x="188.331515" y="45.203529" style="fill: #4169e1"/>
     <use xlink:href="#mfe5750841f" x="71.028099" y="156.582861" style="fill: #4169e1"/>
     <use xlink:href="#mfe5750841f" x="156.593804" y="83.703678" style="fill: #4169e1"/>
     <use xlink:href="#mfe5750841f" x="195.27716" y="41.236943" style="fill: #4169e1"/>
     <use xlink:href="#mfe5750841f" x="185.865704" y="49.111416" style="fill: #4169e1"/>
     <use xlink:href="#mfe5750841f" x="113.779386" y="132.883265" style="fill: #4169e1"/>
     <use xlink:href="#mfe5750841f" x="150.876508" y="89.467884" style="fill: #4169e1"/>
     <use xlink:href="#mfe5750841f" x="182.365287" y="53.601033" style="fill: #4169e1"/>
     <use xlink:href="#mfe5750841f" x="147.425844" y="89.585116" style="fill: #4169e1"/>
     <use xlink:href="#mfe5750841f" x="81.094116" y="149.136596" style="fill: #4169e1"/>
     <use xlink:href="#mfe5750841f" x="88.615471" y="143.084325" style="fill: #4169e1"/>
     <use xlink:href="#mfe5750841f" x="117.912707" y="130.059987" style="fill: #4169e1"/>
     <use xlink:href="#mfe5750841f" x="80.063608" y="149.532945" style="fill: #4169e1"/>
     <use xlink:href="#mfe5750841f" x="71.613425" y="155.659635" style="fill: #4169e1"/>
     <use xlink:href="#mfe5750841f" x="113.354523" y="133.665595" style="fill: #4169e1"/>
     <use xlink:href="#mfe5750841f" x="139.778226" y="98.728242" style="fill: #4169e1"/>
     <use xlink:href="#mfe5750841f" x="158.815618" y="80.900217" style="fill: #4169e1"/>
     <use xlink:href="#mfe5750841f" x="85.633486" y="145.431817" style="fill: #4169e1"/>
     <use xlink:href="#mfe5750841f" x="194.245564" y="41.396737" style="fill: #4169e1"/>
     <use xlink:href="#mfe5750841f" x="150.348376" y="92.052516" style="fill: #4169e1"/>
     <use xlink:href="#mfe5750841f" x="206.484061" y="13.855897" style="fill: #4169e1"/>
     <use xlink:href="#mfe5750841f" x="180.71124" y="52.884427" style="fill: #4169e1"/>
     <use xlink:href="#mfe5750841f" x="161.39448" y="70.876343" style="fill: #4169e1"/>
     <use xlink:href="#mfe5750841f" x="179.912186" y="56.713128" style="fill: #4169e1"/>
     <use xlink:href="#mfe5750841f" x="169.637291" y="65.236811" style="fill: #4169e1"/>
     <use xlink:href="#mfe5750841f" x="150.804513" y="92.884766" style="fill: #4169e1"/>
     <use xlink:href="#mfe5750841f" x="79.293821" y="149.995185" style="fill: #4169e1"/>
     <use xlink:href="#mfe5750841f" x="77.047256" y="152.064229" style="fill: #4169e1"/>
     <use xlink:href="#mfe5750841f" x="190.510349" y="44.940551" style="fill: #4169e1"/>
     <use xlink:href="#mfe5750841f" x="69.356659" y="157.197036" style="fill: #4169e1"/>
     <use xlink:href="#mfe5750841f" x="71.445352" y="155.676442" style="fill: #4169e1"/>
     <use xlink:href="#mfe5750841f" x="153.786581" y="87.324671" style="fill: #4169e1"/>
     <use xlink:href="#mfe5750841f" x="152.087882" y="84.06867" style="fill: #4169e1"/>
     <use xlink:href="#mfe5750841f" x="188.170801" y="49.755442" style="fill: #4169e1"/>
     <use xlink:href="#mfe5750841f" x="154.641993" y="84.932862" style="fill: #4169e1"/>
     <use xlink:href="#mfe5750841f" x="175.435614" y="60.06161" style="fill: #4169e1"/>
     <use xlink:href="#mfe5750841f" x="69.173703" y="157.472557" style="fill: #4169e1"/>
     <use xlink:href="#mfe5750841f" x="173.299174" y="61.884315" style="fill: #4169e1"/>
     <use xlink:href="#mfe5750841f" x="77.178955" y="151.710357" style="fill: #4169e1"/>
     <use xlink:href="#mfe5750841f" x="158.464004" y="79.97189" style="fill: #4169e1"/>
     <use xlink:href="#mfe5750841f" x="154.668416" y="83.869241" style="fill: #4169e1"/>
     <use xlink:href="#mfe5750841f" x="179.496605" y="54.056333" style="fill: #4169e1"/>
     <use xlink:href="#mfe5750841f" x="166.611909" y="71.209895" style="fill: #4169e1"/>
     <use xlink:href="#mfe5750841f" x="75.111667" y="152.709091" style="fill: #4169e1"/>
     <use xlink:href="#mfe5750841f" x="70.767629" y="156.447568" style="fill: #4169e1"/>
     <use xlink:href="#mfe5750841f" x="169.906792" y="71.786859" style="fill: #4169e1"/>
     <use xlink:href="#mfe5750841f" x="124.464845" y="125.688355" style="fill: #4169e1"/>
     <use xlink:href="#mfe5750841f" x="160.298583" y="76.193026" style="fill: #4169e1"/>
     <use xlink:href="#mfe5750841f" x="158.620872" y="77.419618" style="fill: #4169e1"/>
     <use xlink:href="#mfe5750841f" x="137.935453" y="105.4722" style="fill: #4169e1"/>
     <use xlink:href="#mfe5750841f" x="180.785242" y="56.855362" style="fill: #4169e1"/>
     <use xlink:href="#mfe5750841f" x="187.594255" y="47.731552" style="fill: #4169e1"/>
     <use xlink:href="#mfe5750841f" x="69.216264" y="157.569805" style="fill: #4169e1"/>
     <use xlink:href="#mfe5750841f" x="70.026104" y="157.319452" style="fill: #4169e1"/>
     <use xlink:href="#mfe5750841f" x="188.898696" y="46.952316" style="fill: #4169e1"/>
     <use xlink:href="#mfe5750841f" x="206.647534" y="26.166305" style="fill: #4169e1"/>
     <use xlink:href="#mfe5750841f" x="122.187927" y="127.78817" style="fill: #4169e1"/>
     <use xlink:href="#mfe5750841f" x="183.234998" y="55.200813" style="fill: #4169e1"/>
     <use xlink:href="#mfe5750841f" x="69.922836" y="157.208157" style="fill: #4169e1"/>
     <use xlink:href="#mfe5750841f" x="158.456813" y="77.31058" style="fill: #4169e1"/>
     <use xlink:href="#mfe5750841f" x="78.545691" y="150.872338" style="fill: #4169e1"/>
     <use xlink:href="#mfe5750841f" x="74.860395" y="153.526373" style="fill: #4169e1"/>
     <use xlink:href="#mfe5750841f" x="69.041252" y="157.773832" style="fill: #4169e1"/>
     <use xlink:href="#mfe5750841f" x="156.919747" y="83.569136" style="fill: #4169e1"/>
     <use xlink:href="#mfe5750841f" x="151.338832" y="88.670001" style="fill: #4169e1"/>
    </g>
   </g>
   <g id="PathCollection_2">
    <defs>
     <path id="me1a343c191" d="M 0 3 
C 0.795609 3 1.55874 2.683901 2.12132 2.12132 
C 2.683901 1.55874 3 0.795609 3 0 
C 3 -0.795609 2.683901 -1.55874 2.12132 -2.12132 
C 1.55874 -2.683901 0.795609 -3 0 -3 
C -0.795609 -3 -1.55874 -2.683901 -2.12132 -2.12132 
C -2.683901 -1.55874 -3 -0.795609 -3 0 
C -3 0.795609 -2.683901 1.55874 -2.12132 2.12132 
C -1.55874 2.683901 -0.795609 3 0 3 
z
"/>
    </defs>
    <g>
     <use xlink:href="#me1a343c191" x="78.493931" y="150.543217" style="fill: #dc143c"/>
     <use xlink:href="#me1a343c191" x="152.542763" y="82.150306" style="fill: #dc143c"/>
     <use xlink:href="#me1a343c191" x="187.070388" y="48.620997" style="fill: #dc143c"/>
     <use xlink:href="#me1a343c191" x="146.515244" y="96.11635" style="fill: #dc143c"/>
     <use xlink:href="#me1a343c191" x="156.335257" y="83.884292" style="fill: #dc143c"/>
     <use xlink:href="#me1a343c191" x="187.916435" y="46.728387" style="fill: #dc143c"/>
     <use xlink:href="#me1a343c191" x="149.817402" y="94.287792" style="fill: #dc143c"/>
     <use xlink:href="#me1a343c191" x="124.052859" y="126.53599" style="fill: #dc143c"/>
     <use xlink:href="#me1a343c191" x="174.703454" y="59.880828" style="fill: #dc143c"/>
     <use xlink:href="#me1a343c191" x="162.115351" y="74.230846" style="fill: #dc143c"/>
     <use xlink:href="#me1a343c191" x="78.408641" y="151.254138" style="fill: #dc143c"/>
     <use xlink:href="#me1a343c191" x="83.422041" y="147.649868" style="fill: #dc143c"/>
     <use xlink:href="#me1a343c191" x="151.607831" y="87.393154" style="fill: #dc143c"/>
     <use xlink:href="#me1a343c191" x="69.117762" y="157.674996" style="fill: #dc143c"/>
     <use xlink:href="#me1a343c191" x="78.017476" y="151.161656" style="fill: #dc143c"/>
     <use xlink:href="#me1a343c191" x="155.303161" y="81.842508" style="fill: #dc143c"/>
     <use xlink:href="#me1a343c191" x="152.940283" y="82.811223" style="fill: #dc143c"/>
     <use xlink:href="#me1a343c191" x="165.814695" y="67.601277" style="fill: #dc143c"/>
     <use xlink:href="#me1a343c191" x="86.519084" y="144.739293" style="fill: #dc143c"/>
     <use xlink:href="#me1a343c191" x="85.138468" y="145.586008" style="fill: #dc143c"/>
     <use xlink:href="#me1a343c191" x="174.205593" y="57.398377" style="fill: #dc143c"/>
     <use xlink:href="#me1a343c191" x="83.19644" y="147.054759" style="fill: #dc143c"/>
     <use xlink:href="#me1a343c191" x="83.967314" y="146.246674" style="fill: #dc143c"/>
    </g>
   </g>
   <g id="matplotlib.axis_1">
    <g id="xtick_1">
     <g id="line2d_1">
      <defs>
       <path id="m67b576da98" d="M 0 0 
L 0 3.5 
" style="stroke: #000000; stroke-width: 0.8"/>
      </defs>
      <g>
       <use xlink:href="#m67b576da98" x="78.001187" y="183.52" style="stroke: #000000; stroke-width: 0.8"/>
      </g>
     </g>
     <g id="text_1">
      <!-- −3.7 -->
      <g transform="translate(65.859781 198.118438) scale(0.1 -0.1)">
       <defs>
        <path id="DejaVuSans-2212" d="M 678 2272 
L 4684 2272 
L 4684 1741 
L 678 1741 
L 678 2272 
z
" transform="scale(0.015625)"/>
        <path id="DejaVuSans-33" d="M 2597 2516 
Q 3050 2419 3304 2112 
Q 3559 1806 3559 1356 
Q 3559 666 3084 287 
Q 2609 -91 1734 -91 
Q 1441 -91 1130 -33 
Q 819 25 488 141 
L 488 750 
Q 750 597 1062 519 
Q 1375 441 1716 441 
Q 2309 441 2620 675 
Q 2931 909 2931 1356 
Q 2931 1769 2642 2001 
Q 2353 2234 1838 2234 
L 1294 2234 
L 1294 2753 
L 1863 2753 
Q 2328 2753 2575 2939 
Q 2822 3125 2822 3475 
Q 2822 3834 2567 4026 
Q 2313 4219 1838 4219 
Q 1578 4219 1281 4162 
Q 984 4106 628 3988 
L 628 4550 
Q 988 4650 1302 4700 
Q 1616 4750 1894 4750 
Q 2613 4750 3031 4423 
Q 3450 4097 3450 3541 
Q 3450 3153 3228 2886 
Q 3006 2619 2597 2516 
z
" transform="scale(0.015625)"/>
        <path id="DejaVuSans-2e" d="M 684 794 
L 1344 794 
L 1344 0 
L 684 0 
L 684 794 
z
" transform="scale(0.015625)"/>
        <path id="DejaVuSans-37" d="M 525 4666 
L 3525 4666 
L 3525 4397 
L 1831 0 
L 1172 0 
L 2766 4134 
L 525 4134 
L 525 4666 
z
" transform="scale(0.015625)"/>
       </defs>
       <use xlink:href="#DejaVuSans-2212"/>
       <use xlink:href="#DejaVuSans-33" x="83.789062"/>
       <use xlink:href="#DejaVuSans-2e" x="147.412109"/>
       <use xlink:href="#DejaVuSans-37" x="179.199219"/>
      </g>
     </g>
    </g>
    <g id="xtick_2">
     <g id="line2d_2">
      <g>
       <use xlink:href="#m67b576da98" x="113.073115" y="183.52" style="stroke: #000000; stroke-width: 0.8"/>
      </g>
     </g>
     <g id="text_2">
      <!-- −3.6 -->
      <g transform="translate(100.931708 198.118438) scale(0.1 -0.1)">
       <defs>
        <path id="DejaVuSans-36" d="M 2113 2584 
Q 1688 2584 1439 2293 
Q 1191 2003 1191 1497 
Q 1191 994 1439 701 
Q 1688 409 2113 409 
Q 2538 409 2786 701 
Q 3034 994 3034 1497 
Q 3034 2003 2786 2293 
Q 2538 2584 2113 2584 
z
M 3366 4563 
L 3366 3988 
Q 3128 4100 2886 4159 
Q 2644 4219 2406 4219 
Q 1781 4219 1451 3797 
Q 1122 3375 1075 2522 
Q 1259 2794 1537 2939 
Q 1816 3084 2150 3084 
Q 2853 3084 3261 2657 
Q 3669 2231 3669 1497 
Q 3669 778 3244 343 
Q 2819 -91 2113 -91 
Q 1303 -91 875 529 
Q 447 1150 447 2328 
Q 447 3434 972 4092 
Q 1497 4750 2381 4750 
Q 2619 4750 2861 4703 
Q 3103 4656 3366 4563 
z
" transform="scale(0.015625)"/>
       </defs>
       <use xlink:href="#DejaVuSans-2212"/>
       <use xlink:href="#DejaVuSans-33" x="83.789062"/>
       <use xlink:href="#DejaVuSans-2e" x="147.412109"/>
       <use xlink:href="#DejaVuSans-36" x="179.199219"/>
      </g>
     </g>
    </g>
    <g id="xtick_3">
     <g id="line2d_3">
      <g>
       <use xlink:href="#m67b576da98" x="148.145042" y="183.52" style="stroke: #000000; stroke-width: 0.8"/>
      </g>
     </g>
     <g id="text_3">
      <!-- −3.5 -->
      <g transform="translate(136.003636 198.118438) scale(0.1 -0.1)">
       <defs>
        <path id="DejaVuSans-35" d="M 691 4666 
L 3169 4666 
L 3169 4134 
L 1269 4134 
L 1269 2991 
Q 1406 3038 1543 3061 
Q 1681 3084 1819 3084 
Q 2600 3084 3056 2656 
Q 3513 2228 3513 1497 
Q 3513 744 3044 326 
Q 2575 -91 1722 -91 
Q 1428 -91 1123 -41 
Q 819 9 494 109 
L 494 744 
Q 775 591 1075 516 
Q 1375 441 1709 441 
Q 2250 441 2565 725 
Q 2881 1009 2881 1497 
Q 2881 1984 2565 2268 
Q 2250 2553 1709 2553 
Q 1456 2553 1204 2497 
Q 953 2441 691 2322 
L 691 4666 
z
" transform="scale(0.015625)"/>
       </defs>
       <use xlink:href="#DejaVuSans-2212"/>
       <use xlink:href="#DejaVuSans-33" x="83.789062"/>
       <use xlink:href="#DejaVuSans-2e" x="147.412109"/>
       <use xlink:href="#DejaVuSans-35" x="179.199219"/>
      </g>
     </g>
    </g>
    <g id="xtick_4">
     <g id="line2d_4">
      <g>
       <use xlink:href="#m67b576da98" x="183.21697" y="183.52" style="stroke: #000000; stroke-width: 0.8"/>
      </g>
     </g>
     <g id="text_4">
      <!-- −3.4 -->
      <g transform="translate(171.075564 198.118438) scale(0.1 -0.1)">
       <defs>
        <path id="DejaVuSans-34" d="M 2419 4116 
L 825 1625 
L 2419 1625 
L 2419 4116 
z
M 2253 4666 
L 3047 4666 
L 3047 1625 
L 3713 1625 
L 3713 1100 
L 3047 1100 
L 3047 0 
L 2419 0 
L 2419 1100 
L 313 1100 
L 313 1709 
L 2253 4666 
z
" transform="scale(0.015625)"/>
       </defs>
       <use xlink:href="#DejaVuSans-2212"/>
       <use xlink:href="#DejaVuSans-33" x="83.789062"/>
       <use xlink:href="#DejaVuSans-2e" x="147.412109"/>
       <use xlink:href="#DejaVuSans-34" x="179.199219"/>
      </g>
     </g>
    </g>
    <g id="xtick_5">
     <g id="line2d_5">
      <g>
       <use xlink:href="#m67b576da98" x="218.288898" y="183.52" style="stroke: #000000; stroke-width: 0.8"/>
      </g>
     </g>
     <g id="text_5">
      <!-- −3.3 -->
      <g transform="translate(206.147492 198.118438) scale(0.1 -0.1)">
       <use xlink:href="#DejaVuSans-2212"/>
       <use xlink:href="#DejaVuSans-33" x="83.789062"/>
       <use xlink:href="#DejaVuSans-2e" x="147.412109"/>
       <use xlink:href="#DejaVuSans-33" x="179.199219"/>
      </g>
     </g>
    </g>
    <g id="text_6">
     <!-- True energy  (eV/atom) -->
     <g transform="translate(88.016406 211.796563) scale(0.1 -0.1)">
      <defs>
       <path id="DejaVuSans-54" d="M -19 4666 
L 3928 4666 
L 3928 4134 
L 2272 4134 
L 2272 0 
L 1638 0 
L 1638 4134 
L -19 4134 
L -19 4666 
z
" transform="scale(0.015625)"/>
       <path id="DejaVuSans-72" d="M 2631 2963 
Q 2534 3019 2420 3045 
Q 2306 3072 2169 3072 
Q 1681 3072 1420 2755 
Q 1159 2438 1159 1844 
L 1159 0 
L 581 0 
L 581 3500 
L 1159 3500 
L 1159 2956 
Q 1341 3275 1631 3429 
Q 1922 3584 2338 3584 
Q 2397 3584 2469 3576 
Q 2541 3569 2628 3553 
L 2631 2963 
z
" transform="scale(0.015625)"/>
       <path id="DejaVuSans-75" d="M 544 1381 
L 544 3500 
L 1119 3500 
L 1119 1403 
Q 1119 906 1312 657 
Q 1506 409 1894 409 
Q 2359 409 2629 706 
Q 2900 1003 2900 1516 
L 2900 3500 
L 3475 3500 
L 3475 0 
L 2900 0 
L 2900 538 
Q 2691 219 2414 64 
Q 2138 -91 1772 -91 
Q 1169 -91 856 284 
Q 544 659 544 1381 
z
M 1991 3584 
L 1991 3584 
z
" transform="scale(0.015625)"/>
       <path id="DejaVuSans-65" d="M 3597 1894 
L 3597 1613 
L 953 1613 
Q 991 1019 1311 708 
Q 1631 397 2203 397 
Q 2534 397 2845 478 
Q 3156 559 3463 722 
L 3463 178 
Q 3153 47 2828 -22 
Q 2503 -91 2169 -91 
Q 1331 -91 842 396 
Q 353 884 353 1716 
Q 353 2575 817 3079 
Q 1281 3584 2069 3584 
Q 2775 3584 3186 3129 
Q 3597 2675 3597 1894 
z
M 3022 2063 
Q 3016 2534 2758 2815 
Q 2500 3097 2075 3097 
Q 1594 3097 1305 2825 
Q 1016 2553 972 2059 
L 3022 2063 
z
" transform="scale(0.015625)"/>
       <path id="DejaVuSans-20" transform="scale(0.015625)"/>
       <path id="DejaVuSans-6e" d="M 3513 2113 
L 3513 0 
L 2938 0 
L 2938 2094 
Q 2938 2591 2744 2837 
Q 2550 3084 2163 3084 
Q 1697 3084 1428 2787 
Q 1159 2491 1159 1978 
L 1159 0 
L 581 0 
L 581 3500 
L 1159 3500 
L 1159 2956 
Q 1366 3272 1645 3428 
Q 1925 3584 2291 3584 
Q 2894 3584 3203 3211 
Q 3513 2838 3513 2113 
z
" transform="scale(0.015625)"/>
       <path id="DejaVuSans-67" d="M 2906 1791 
Q 2906 2416 2648 2759 
Q 2391 3103 1925 3103 
Q 1463 3103 1205 2759 
Q 947 2416 947 1791 
Q 947 1169 1205 825 
Q 1463 481 1925 481 
Q 2391 481 2648 825 
Q 2906 1169 2906 1791 
z
M 3481 434 
Q 3481 -459 3084 -895 
Q 2688 -1331 1869 -1331 
Q 1566 -1331 1297 -1286 
Q 1028 -1241 775 -1147 
L 775 -588 
Q 1028 -725 1275 -790 
Q 1522 -856 1778 -856 
Q 2344 -856 2625 -561 
Q 2906 -266 2906 331 
L 2906 616 
Q 2728 306 2450 153 
Q 2172 0 1784 0 
Q 1141 0 747 490 
Q 353 981 353 1791 
Q 353 2603 747 3093 
Q 1141 3584 1784 3584 
Q 2172 3584 2450 3431 
Q 2728 3278 2906 2969 
L 2906 3500 
L 3481 3500 
L 3481 434 
z
" transform="scale(0.015625)"/>
       <path id="DejaVuSans-79" d="M 2059 -325 
Q 1816 -950 1584 -1140 
Q 1353 -1331 966 -1331 
L 506 -1331 
L 506 -850 
L 844 -850 
Q 1081 -850 1212 -737 
Q 1344 -625 1503 -206 
L 1606 56 
L 191 3500 
L 800 3500 
L 1894 763 
L 2988 3500 
L 3597 3500 
L 2059 -325 
z
" transform="scale(0.015625)"/>
       <path id="DejaVuSans-28" d="M 1984 4856 
Q 1566 4138 1362 3434 
Q 1159 2731 1159 2009 
Q 1159 1288 1364 580 
Q 1569 -128 1984 -844 
L 1484 -844 
Q 1016 -109 783 600 
Q 550 1309 550 2009 
Q 550 2706 781 3412 
Q 1013 4119 1484 4856 
L 1984 4856 
z
" transform="scale(0.015625)"/>
       <path id="DejaVuSans-56" d="M 1831 0 
L 50 4666 
L 709 4666 
L 2188 738 
L 3669 4666 
L 4325 4666 
L 2547 0 
L 1831 0 
z
" transform="scale(0.015625)"/>
       <path id="DejaVuSans-2f" d="M 1625 4666 
L 2156 4666 
L 531 -594 
L 0 -594 
L 1625 4666 
z
" transform="scale(0.015625)"/>
       <path id="DejaVuSans-61" d="M 2194 1759 
Q 1497 1759 1228 1600 
Q 959 1441 959 1056 
Q 959 750 1161 570 
Q 1363 391 1709 391 
Q 2188 391 2477 730 
Q 2766 1069 2766 1631 
L 2766 1759 
L 2194 1759 
z
M 3341 1997 
L 3341 0 
L 2766 0 
L 2766 531 
Q 2569 213 2275 61 
Q 1981 -91 1556 -91 
Q 1019 -91 701 211 
Q 384 513 384 1019 
Q 384 1609 779 1909 
Q 1175 2209 1959 2209 
L 2766 2209 
L 2766 2266 
Q 2766 2663 2505 2880 
Q 2244 3097 1772 3097 
Q 1472 3097 1187 3025 
Q 903 2953 641 2809 
L 641 3341 
Q 956 3463 1253 3523 
Q 1550 3584 1831 3584 
Q 2591 3584 2966 3190 
Q 3341 2797 3341 1997 
z
" transform="scale(0.015625)"/>
       <path id="DejaVuSans-74" d="M 1172 4494 
L 1172 3500 
L 2356 3500 
L 2356 3053 
L 1172 3053 
L 1172 1153 
Q 1172 725 1289 603 
Q 1406 481 1766 481 
L 2356 481 
L 2356 0 
L 1766 0 
Q 1100 0 847 248 
Q 594 497 594 1153 
L 594 3053 
L 172 3053 
L 172 3500 
L 594 3500 
L 594 4494 
L 1172 4494 
z
" transform="scale(0.015625)"/>
       <path id="DejaVuSans-6f" d="M 1959 3097 
Q 1497 3097 1228 2736 
Q 959 2375 959 1747 
Q 959 1119 1226 758 
Q 1494 397 1959 397 
Q 2419 397 2687 759 
Q 2956 1122 2956 1747 
Q 2956 2369 2687 2733 
Q 2419 3097 1959 3097 
z
M 1959 3584 
Q 2709 3584 3137 3096 
Q 3566 2609 3566 1747 
Q 3566 888 3137 398 
Q 2709 -91 1959 -91 
Q 1206 -91 779 398 
Q 353 888 353 1747 
Q 353 2609 779 3096 
Q 1206 3584 1959 3584 
z
" transform="scale(0.015625)"/>
       <path id="DejaVuSans-6d" d="M 3328 2828 
Q 3544 3216 3844 3400 
Q 4144 3584 4550 3584 
Q 5097 3584 5394 3201 
Q 5691 2819 5691 2113 
L 5691 0 
L 5113 0 
L 5113 2094 
Q 5113 2597 4934 2840 
Q 4756 3084 4391 3084 
Q 3944 3084 3684 2787 
Q 3425 2491 3425 1978 
L 3425 0 
L 2847 0 
L 2847 2094 
Q 2847 2600 2669 2842 
Q 2491 3084 2119 3084 
Q 1678 3084 1418 2786 
Q 1159 2488 1159 1978 
L 1159 0 
L 581 0 
L 581 3500 
L 1159 3500 
L 1159 2956 
Q 1356 3278 1631 3431 
Q 1906 3584 2284 3584 
Q 2666 3584 2933 3390 
Q 3200 3197 3328 2828 
z
" transform="scale(0.015625)"/>
       <path id="DejaVuSans-29" d="M 513 4856 
L 1013 4856 
Q 1481 4119 1714 3412 
Q 1947 2706 1947 2009 
Q 1947 1309 1714 600 
Q 1481 -109 1013 -844 
L 513 -844 
Q 928 -128 1133 580 
Q 1338 1288 1338 2009 
Q 1338 2731 1133 3434 
Q 928 4138 513 4856 
z
" transform="scale(0.015625)"/>
      </defs>
      <use xlink:href="#DejaVuSans-54"/>
      <use xlink:href="#DejaVuSans-72" x="46.333984"/>
      <use xlink:href="#DejaVuSans-75" x="87.447266"/>
      <use xlink:href="#DejaVuSans-65" x="150.826172"/>
      <use xlink:href="#DejaVuSans-20" x="212.349609"/>
      <use xlink:href="#DejaVuSans-65" x="244.136719"/>
      <use xlink:href="#DejaVuSans-6e" x="305.660156"/>
      <use xlink:href="#DejaVuSans-65" x="369.039062"/>
      <use xlink:href="#DejaVuSans-72" x="430.5625"/>
      <use xlink:href="#DejaVuSans-67" x="469.925781"/>
      <use xlink:href="#DejaVuSans-79" x="533.402344"/>
      <use xlink:href="#DejaVuSans-20" x="592.582031"/>
      <use xlink:href="#DejaVuSans-20" x="624.369141"/>
      <use xlink:href="#DejaVuSans-28" x="656.15625"/>
      <use xlink:href="#DejaVuSans-65" x="695.169922"/>
      <use xlink:href="#DejaVuSans-56" x="756.693359"/>
      <use xlink:href="#DejaVuSans-2f" x="825.101562"/>
      <use xlink:href="#DejaVuSans-61" x="858.792969"/>
      <use xlink:href="#DejaVuSans-74" x="920.072266"/>
      <use xlink:href="#DejaVuSans-6f" x="959.28125"/>
      <use xlink:href="#DejaVuSans-6d" x="1020.462891"/>
      <use xlink:href="#DejaVuSans-29" x="1117.875"/>
     </g>
    </g>
   </g>
   <g id="matplotlib.axis_2">
    <g id="ytick_1">
     <g id="line2d_6">
      <defs>
       <path id="m45d2b182d6" d="M 0 0 
L -3.5 0 
" style="stroke: #000000; stroke-width: 0.8"/>
      </defs>
      <g>
       <use xlink:href="#m45d2b182d6" x="52.160938" y="158.21975" style="stroke: #000000; stroke-width: 0.8"/>
      </g>
     </g>
     <g id="text_7">
      <!-- −3.7 -->
      <g transform="translate(20.878125 162.018969) scale(0.1 -0.1)">
       <use xlink:href="#DejaVuSans-2212"/>
       <use xlink:href="#DejaVuSans-33" x="83.789062"/>
       <use xlink:href="#DejaVuSans-2e" x="147.412109"/>
       <use xlink:href="#DejaVuSans-37" x="179.199219"/>
      </g>
     </g>
    </g>
    <g id="ytick_2">
     <g id="line2d_7">
      <g>
       <use xlink:href="#m45d2b182d6" x="52.160938" y="123.147823" style="stroke: #000000; stroke-width: 0.8"/>
      </g>
     </g>
     <g id="text_8">
      <!-- −3.6 -->
      <g transform="translate(20.878125 126.947042) scale(0.1 -0.1)">
       <use xlink:href="#DejaVuSans-2212"/>
       <use xlink:href="#DejaVuSans-33" x="83.789062"/>
       <use xlink:href="#DejaVuSans-2e" x="147.412109"/>
       <use xlink:href="#DejaVuSans-36" x="179.199219"/>
      </g>
     </g>
    </g>
    <g id="ytick_3">
     <g id="line2d_8">
      <g>
       <use xlink:href="#m45d2b182d6" x="52.160938" y="88.075895" style="stroke: #000000; stroke-width: 0.8"/>
      </g>
     </g>
     <g id="text_9">
      <!-- −3.5 -->
      <g transform="translate(20.878125 91.875114) scale(0.1 -0.1)">
       <use xlink:href="#DejaVuSans-2212"/>
       <use xlink:href="#DejaVuSans-33" x="83.789062"/>
       <use xlink:href="#DejaVuSans-2e" x="147.412109"/>
       <use xlink:href="#DejaVuSans-35" x="179.199219"/>
      </g>
     </g>
    </g>
    <g id="ytick_4">
     <g id="line2d_9">
      <g>
       <use xlink:href="#m45d2b182d6" x="52.160938" y="53.003967" style="stroke: #000000; stroke-width: 0.8"/>
      </g>
     </g>
     <g id="text_10">
      <!-- −3.4 -->
      <g transform="translate(20.878125 56.803186) scale(0.1 -0.1)">
       <use xlink:href="#DejaVuSans-2212"/>
       <use xlink:href="#DejaVuSans-33" x="83.789062"/>
       <use xlink:href="#DejaVuSans-2e" x="147.412109"/>
       <use xlink:href="#DejaVuSans-34" x="179.199219"/>
      </g>
     </g>
    </g>
    <g id="ytick_5">
     <g id="line2d_10">
      <g>
       <use xlink:href="#m45d2b182d6" x="52.160938" y="17.93204" style="stroke: #000000; stroke-width: 0.8"/>
      </g>
     </g>
     <g id="text_11">
      <!-- −3.3 -->
      <g transform="translate(20.878125 21.731258) scale(0.1 -0.1)">
       <use xlink:href="#DejaVuSans-2212"/>
       <use xlink:href="#DejaVuSans-33" x="83.789062"/>
       <use xlink:href="#DejaVuSans-2e" x="147.412109"/>
       <use xlink:href="#DejaVuSans-33" x="179.199219"/>
      </g>
     </g>
    </g>
    <g id="text_12">
     <!-- Predicted energy  (eV/atom) -->
     <g transform="translate(14.798437 161.057656) rotate(-90) scale(0.1 -0.1)">
      <defs>
       <path id="DejaVuSans-50" d="M 1259 4147 
L 1259 2394 
L 2053 2394 
Q 2494 2394 2734 2622 
Q 2975 2850 2975 3272 
Q 2975 3691 2734 3919 
Q 2494 4147 2053 4147 
L 1259 4147 
z
M 628 4666 
L 2053 4666 
Q 2838 4666 3239 4311 
Q 3641 3956 3641 3272 
Q 3641 2581 3239 2228 
Q 2838 1875 2053 1875 
L 1259 1875 
L 1259 0 
L 628 0 
L 628 4666 
z
" transform="scale(0.015625)"/>
       <path id="DejaVuSans-64" d="M 2906 2969 
L 2906 4863 
L 3481 4863 
L 3481 0 
L 2906 0 
L 2906 525 
Q 2725 213 2448 61 
Q 2172 -91 1784 -91 
Q 1150 -91 751 415 
Q 353 922 353 1747 
Q 353 2572 751 3078 
Q 1150 3584 1784 3584 
Q 2172 3584 2448 3432 
Q 2725 3281 2906 2969 
z
M 947 1747 
Q 947 1113 1208 752 
Q 1469 391 1925 391 
Q 2381 391 2643 752 
Q 2906 1113 2906 1747 
Q 2906 2381 2643 2742 
Q 2381 3103 1925 3103 
Q 1469 3103 1208 2742 
Q 947 2381 947 1747 
z
" transform="scale(0.015625)"/>
       <path id="DejaVuSans-69" d="M 603 3500 
L 1178 3500 
L 1178 0 
L 603 0 
L 603 3500 
z
M 603 4863 
L 1178 4863 
L 1178 4134 
L 603 4134 
L 603 4863 
z
" transform="scale(0.015625)"/>
       <path id="DejaVuSans-63" d="M 3122 3366 
L 3122 2828 
Q 2878 2963 2633 3030 
Q 2388 3097 2138 3097 
Q 1578 3097 1268 2742 
Q 959 2388 959 1747 
Q 959 1106 1268 751 
Q 1578 397 2138 397 
Q 2388 397 2633 464 
Q 2878 531 3122 666 
L 3122 134 
Q 2881 22 2623 -34 
Q 2366 -91 2075 -91 
Q 1284 -91 818 406 
Q 353 903 353 1747 
Q 353 2603 823 3093 
Q 1294 3584 2113 3584 
Q 2378 3584 2631 3529 
Q 2884 3475 3122 3366 
z
" transform="scale(0.015625)"/>
      </defs>
      <use xlink:href="#DejaVuSans-50"/>
      <use xlink:href="#DejaVuSans-72" x="58.552734"/>
      <use xlink:href="#DejaVuSans-65" x="97.416016"/>
      <use xlink:href="#DejaVuSans-64" x="158.939453"/>
      <use xlink:href="#DejaVuSans-69" x="222.416016"/>
      <use xlink:href="#DejaVuSans-63" x="250.199219"/>
      <use xlink:href="#DejaVuSans-74" x="305.179688"/>
      <use xlink:href="#DejaVuSans-65" x="344.388672"/>
      <use xlink:href="#DejaVuSans-64" x="405.912109"/>
      <use xlink:href="#DejaVuSans-20" x="469.388672"/>
      <use xlink:href="#DejaVuSans-65" x="501.175781"/>
      <use xlink:href="#DejaVuSans-6e" x="562.699219"/>
      <use xlink:href="#DejaVuSans-65" x="626.078125"/>
      <use xlink:href="#DejaVuSans-72" x="687.601562"/>
      <use xlink:href="#DejaVuSans-67" x="726.964844"/>
      <use xlink:href="#DejaVuSans-79" x="790.441406"/>
      <use xlink:href="#DejaVuSans-20" x="849.621094"/>
      <use xlink:href="#DejaVuSans-20" x="881.408203"/>
      <use xlink:href="#DejaVuSans-28" x="913.195312"/>
      <use xlink:href="#DejaVuSans-65" x="952.208984"/>
      <use xlink:href="#DejaVuSans-56" x="1013.732422"/>
      <use xlink:href="#DejaVuSans-2f" x="1082.140625"/>
      <use xlink:href="#DejaVuSans-61" x="1115.832031"/>
      <use xlink:href="#DejaVuSans-74" x="1177.111328"/>
      <use xlink:href="#DejaVuSans-6f" x="1216.320312"/>
      <use xlink:href="#DejaVuSans-6d" x="1277.501953"/>
      <use xlink:href="#DejaVuSans-29" x="1374.914062"/>
     </g>
    </g>
   </g>
   <g id="line2d_11">
    <path d="M 62.700937 173.52 
L 229.020938 7.2 
" clip-path="url(#p6b5989d689)" style="fill: none; stroke-dasharray: 3.7,1.6; stroke-dashoffset: 0; stroke: #000000"/>
   </g>
   <g id="line2d_12">
    <path d="M 62.700937 173.52 
L 229.020938 7.2 
" clip-path="url(#p6b5989d689)" style="fill: none; stroke-dasharray: 3.7,1.6; stroke-dashoffset: 0; stroke: #000000"/>
   </g>
   <g id="patch_3">
    <path d="M 52.160938 173.52 
L 52.160938 7.2 
" style="fill: none; stroke: #000000; stroke-width: 0.8; stroke-linejoin: miter; stroke-linecap: square"/>
   </g>
   <g id="patch_4">
    <path d="M 62.160938 183.52 
L 229.560938 183.52 
" style="fill: none; stroke: #000000; stroke-width: 0.8; stroke-linejoin: miter; stroke-linecap: square"/>
   </g>
   <g id="legend_1">
    <g id="patch_5">
     <path d="M 67.160938 44.55625 
L 127.148438 44.55625 
L 127.148438 12.2 
L 67.160938 12.2 
z
" style="fill: #ffffff; opacity: 0.8; stroke: #cccccc; stroke-linejoin: miter"/>
    </g>
    <g id="PathCollection_3">
     <g>
      <use xlink:href="#mfe5750841f" x="81.160938" y="21.173438" style="fill: #4169e1"/>
     </g>
    </g>
    <g id="text_13">
     <!-- Train -->
     <g transform="translate(99.160938 23.798438) scale(0.1 -0.1)">
      <use xlink:href="#DejaVuSans-54"/>
      <use xlink:href="#DejaVuSans-72" x="46.333984"/>
      <use xlink:href="#DejaVuSans-61" x="87.447266"/>
      <use xlink:href="#DejaVuSans-69" x="148.726562"/>
      <use xlink:href="#DejaVuSans-6e" x="176.509766"/>
     </g>
    </g>
    <g id="PathCollection_4">
     <g>
      <use xlink:href="#me1a343c191" x="81.160938" y="35.851563" style="fill: #dc143c"/>
     </g>
    </g>
    <g id="text_14">
     <!-- Test -->
     <g transform="translate(99.160938 38.476563) scale(0.1 -0.1)">
      <defs>
       <path id="DejaVuSans-73" d="M 2834 3397 
L 2834 2853 
Q 2591 2978 2328 3040 
Q 2066 3103 1784 3103 
Q 1356 3103 1142 2972 
Q 928 2841 928 2578 
Q 928 2378 1081 2264 
Q 1234 2150 1697 2047 
L 1894 2003 
Q 2506 1872 2764 1633 
Q 3022 1394 3022 966 
Q 3022 478 2636 193 
Q 2250 -91 1575 -91 
Q 1294 -91 989 -36 
Q 684 19 347 128 
L 347 722 
Q 666 556 975 473 
Q 1284 391 1588 391 
Q 1994 391 2212 530 
Q 2431 669 2431 922 
Q 2431 1156 2273 1281 
Q 2116 1406 1581 1522 
L 1381 1569 
Q 847 1681 609 1914 
Q 372 2147 372 2553 
Q 372 3047 722 3315 
Q 1072 3584 1716 3584 
Q 2034 3584 2315 3537 
Q 2597 3491 2834 3397 
z
" transform="scale(0.015625)"/>
      </defs>
      <use xlink:href="#DejaVuSans-54"/>
      <use xlink:href="#DejaVuSans-65" x="44.083984"/>
      <use xlink:href="#DejaVuSans-73" x="105.607422"/>
      <use xlink:href="#DejaVuSans-74" x="157.707031"/>
     </g>
    </g>
   </g>
  </g>
 </g>
 <defs>
  <clipPath id="p6b5989d689">
   <rect x="62.160938" y="7.2" width="167.4" height="166.32"/>
  </clipPath>
 </defs>
</svg>
